<?xml version="1.0" encoding="utf-8" standalone="no"?>
<!DOCTYPE svg PUBLIC "-//W3C//DTD SVG 1.1//EN"
  "http://www.w3.org/Graphics/SVG/1.1/DTD/svg11.dtd">
<!-- Created with matplotlib (https://matplotlib.org/) -->
<svg height="345.6pt" version="1.1" viewBox="0 0 460.8 345.6" width="460.8pt" xmlns="http://www.w3.org/2000/svg" xmlns:xlink="http://www.w3.org/1999/xlink">
 <defs>
  <style type="text/css">
*{stroke-linecap:butt;stroke-linejoin:round;}
  </style>
 </defs>
 <g id="figure_1">
  <g id="patch_1">
   <path d="M 0 345.6 
L 460.8 345.6 
L 460.8 0 
L 0 0 
z
" style="fill:#ffffff;"/>
  </g>
  <g id="axes_1">
   <g id="patch_2">
    <path d="M 57.6 302.4 
L 414.72 302.4 
L 414.72 41.472 
L 57.6 41.472 
z
" style="fill:#ffffff;"/>
   </g>
   <g id="matplotlib.axis_1">
    <g id="xtick_1">
     <g id="line2d_1">
      <path clip-path="url(#pc6f6862cb0)" d="M 73.832727 302.4 
L 73.832727 41.472 
" style="fill:none;stroke:#eeeeee;stroke-linecap:round;stroke-width:0.8;"/>
     </g>
     <g id="text_1">
      <!-- 0% -->
      <defs>
       <path d="M 50.78125 25.09375 
Q 50.78125 13.03125 44.65625 6 
Q 38.53125 -1.03125 28.171875 -1.03125 
Q 17.875 -1.03125 11.6875 6 
Q 5.515625 13.03125 5.515625 25.09375 
L 5.515625 46 
Q 5.515625 57.953125 11.640625 65.03125 
Q 17.78125 72.125 28.078125 72.125 
Q 38.421875 72.125 44.59375 65.03125 
Q 50.78125 57.953125 50.78125 46 
z
M 41.15625 48 
Q 41.15625 55.671875 37.734375 60.109375 
Q 34.328125 64.546875 28.078125 64.546875 
Q 21.875 64.546875 18.5 60.109375 
Q 15.140625 55.671875 15.140625 48 
L 15.140625 23.140625 
Q 15.140625 15.484375 18.578125 10.984375 
Q 22.015625 6.5 28.171875 6.5 
Q 34.421875 6.5 37.78125 10.96875 
Q 41.15625 15.4375 41.15625 23.140625 
z
" id="Roboto-Regular-48"/>
       <path d="M 5.078125 57.421875 
Q 5.078125 63.625 9.078125 67.875 
Q 13.09375 72.125 19.78125 72.125 
Q 26.46875 72.125 30.46875 67.890625 
Q 34.46875 63.671875 34.46875 57.421875 
L 34.46875 53.65625 
Q 34.46875 47.46875 30.484375 43.265625 
Q 26.515625 39.0625 19.875 39.0625 
Q 13.140625 39.0625 9.109375 43.265625 
Q 5.078125 47.46875 5.078125 53.65625 
z
M 12.203125 53.65625 
Q 12.203125 50.046875 14.171875 47.53125 
Q 16.15625 45.015625 19.875 45.015625 
Q 23.4375 45.015625 25.390625 47.5 
Q 27.34375 50 27.34375 53.65625 
L 27.34375 57.421875 
Q 27.34375 61.03125 25.359375 63.59375 
Q 23.390625 66.15625 19.78125 66.15625 
Q 16.109375 66.15625 14.15625 63.59375 
Q 12.203125 61.03125 12.203125 57.421875 
z
M 39.5 17.4375 
Q 39.5 23.640625 43.5 27.859375 
Q 47.515625 32.078125 54.203125 32.078125 
Q 60.84375 32.078125 64.859375 27.859375 
Q 68.890625 23.640625 68.890625 17.4375 
L 68.890625 13.625 
Q 68.890625 7.375 64.890625 3.171875 
Q 60.890625 -1.03125 54.296875 -1.03125 
Q 47.5625 -1.03125 43.53125 3.171875 
Q 39.5 7.375 39.5 13.625 
z
M 46.625 13.625 
Q 46.625 9.96875 48.609375 7.453125 
Q 50.59375 4.9375 54.296875 4.9375 
Q 57.859375 4.9375 59.8125 7.453125 
Q 61.765625 9.96875 61.765625 13.625 
L 61.765625 17.4375 
Q 61.765625 21.046875 59.765625 23.578125 
Q 57.765625 26.125 54.203125 26.125 
Q 50.59375 26.125 48.609375 23.578125 
Q 46.625 21.046875 46.625 17.4375 
z
M 22.359375 5.375 
L 17.046875 8.640625 
L 51.765625 64.203125 
L 57.078125 60.9375 
z
" id="Roboto-Regular-37"/>
      </defs>
      <g style="fill:#757575;" transform="translate(67.360852 317.017187)scale(0.1 -0.1)">
       <use xlink:href="#Roboto-Regular-48"/>
       <use x="56.298828" xlink:href="#Roboto-Regular-37"/>
      </g>
     </g>
    </g>
    <g id="xtick_2">
     <g id="line2d_2">
      <path clip-path="url(#pc6f6862cb0)" d="M 138.763636 302.4 
L 138.763636 41.472 
" style="fill:none;stroke:#eeeeee;stroke-linecap:round;stroke-width:0.8;"/>
     </g>
     <g id="text_2">
      <!-- 20% -->
      <defs>
       <path d="M 51.46875 0 
L 7.328125 0 
L 7.328125 6.59375 
L 29.640625 33.203125 
Q 35.59375 40.4375 37.71875 44.703125 
Q 39.84375 48.96875 39.84375 53.328125 
Q 39.84375 58.25 36.953125 61.390625 
Q 34.078125 64.546875 29 64.546875 
Q 22.703125 64.546875 19.40625 60.6875 
Q 16.109375 56.84375 16.109375 51.078125 
L 6.84375 51.078125 
L 6.734375 51.375 
Q 6.5 60.0625 12.546875 66.09375 
Q 18.609375 72.125 29 72.125 
Q 38.53125 72.125 44 66.84375 
Q 49.46875 61.578125 49.46875 53.21875 
Q 49.46875 47.609375 46.359375 42.234375 
Q 43.265625 36.859375 36.921875 28.765625 
L 19 7.765625 
L 19.09375 7.515625 
L 51.46875 7.515625 
z
" id="Roboto-Regular-50"/>
      </defs>
      <g style="fill:#757575;" transform="translate(129.476918 317.017187)scale(0.1 -0.1)">
       <use xlink:href="#Roboto-Regular-50"/>
       <use x="56.298828" xlink:href="#Roboto-Regular-48"/>
       <use x="112.597656" xlink:href="#Roboto-Regular-37"/>
      </g>
     </g>
    </g>
    <g id="xtick_3">
     <g id="line2d_3">
      <path clip-path="url(#pc6f6862cb0)" d="M 203.694545 302.4 
L 203.694545 41.472 
" style="fill:none;stroke:#eeeeee;stroke-linecap:round;stroke-width:0.8;"/>
     </g>
     <g id="text_3">
      <!-- 40% -->
      <defs>
       <path d="M 43.609375 23.921875 
L 53.421875 23.921875 
L 53.421875 16.40625 
L 43.609375 16.40625 
L 43.609375 0 
L 34.03125 0 
L 34.03125 16.40625 
L 3.515625 16.40625 
L 3.515625 21.828125 
L 33.453125 71.09375 
L 43.609375 71.09375 
z
M 13.8125 23.921875 
L 34.03125 23.921875 
L 34.03125 57.28125 
L 33.734375 57.328125 
L 32.8125 54.890625 
z
" id="Roboto-Regular-52"/>
      </defs>
      <g style="fill:#757575;" transform="translate(194.407827 317.017187)scale(0.1 -0.1)">
       <use xlink:href="#Roboto-Regular-52"/>
       <use x="56.298828" xlink:href="#Roboto-Regular-48"/>
       <use x="112.597656" xlink:href="#Roboto-Regular-37"/>
      </g>
     </g>
    </g>
    <g id="xtick_4">
     <g id="line2d_4">
      <path clip-path="url(#pc6f6862cb0)" d="M 268.625455 302.4 
L 268.625455 41.472 
" style="fill:none;stroke:#eeeeee;stroke-linecap:round;stroke-width:0.8;"/>
     </g>
     <g id="text_4">
      <!-- 60% -->
      <defs>
       <path d="M 31.296875 72.125 
Q 35.5 72.125 39.59375 71.28125 
Q 43.703125 70.453125 46.390625 69.1875 
L 44.34375 61.8125 
Q 41.546875 63.03125 38.46875 63.78125 
Q 35.40625 64.546875 31.296875 64.546875 
Q 24.609375 64.546875 20.4375 58.828125 
Q 16.265625 53.125 16.265625 44.390625 
L 16.265625 38.875 
Q 19.234375 41.84375 23.3125 43.546875 
Q 27.390625 45.265625 32.078125 45.265625 
Q 41.265625 45.265625 46.609375 39.109375 
Q 51.953125 32.953125 51.953125 22.953125 
Q 51.953125 12.015625 45.96875 5.484375 
Q 39.984375 -1.03125 29.828125 -1.03125 
Q 19.96875 -1.03125 13.328125 6.46875 
Q 6.6875 13.96875 6.6875 26.953125 
L 6.6875 43.3125 
Q 6.6875 55.8125 13.796875 63.96875 
Q 20.90625 72.125 31.296875 72.125 
z
M 29 38.09375 
Q 24.46875 38.09375 21.21875 36.15625 
Q 17.96875 34.234375 16.265625 30.953125 
L 16.265625 26.03125 
Q 16.265625 17 20.1875 11.75 
Q 24.125 6.5 29.828125 6.5 
Q 35.84375 6.5 39.078125 11.0625 
Q 42.328125 15.625 42.328125 22.953125 
Q 42.328125 29.890625 38.84375 33.984375 
Q 35.359375 38.09375 29 38.09375 
z
" id="Roboto-Regular-54"/>
      </defs>
      <g style="fill:#757575;" transform="translate(259.338736 317.017187)scale(0.1 -0.1)">
       <use xlink:href="#Roboto-Regular-54"/>
       <use x="56.298828" xlink:href="#Roboto-Regular-48"/>
       <use x="112.597656" xlink:href="#Roboto-Regular-37"/>
      </g>
     </g>
    </g>
    <g id="xtick_5">
     <g id="line2d_5">
      <path clip-path="url(#pc6f6862cb0)" d="M 333.556364 302.4 
L 333.556364 41.472 
" style="fill:none;stroke:#eeeeee;stroke-linecap:round;stroke-width:0.8;"/>
     </g>
     <g id="text_5">
      <!-- 80% -->
      <defs>
       <path d="M 49.3125 52.9375 
Q 49.3125 47.359375 46.1875 43.140625 
Q 43.0625 38.921875 37.890625 36.8125 
Q 43.953125 34.71875 47.609375 30.125 
Q 51.265625 25.53125 51.265625 19.53125 
Q 51.265625 9.71875 44.890625 4.34375 
Q 38.53125 -1.03125 28.65625 -1.03125 
Q 18.21875 -1.03125 11.59375 4.34375 
Q 4.984375 9.71875 4.984375 19.53125 
Q 4.984375 25.53125 8.71875 30.125 
Q 12.453125 34.71875 18.796875 36.859375 
Q 13.328125 38.921875 10.15625 43.140625 
Q 6.984375 47.359375 6.984375 52.9375 
Q 6.984375 62.25 12.96875 67.1875 
Q 18.953125 72.125 28.5625 72.125 
Q 37.640625 72.125 43.46875 67.15625 
Q 49.3125 62.203125 49.3125 52.9375 
z
M 41.703125 19.734375 
Q 41.703125 25.53125 37.90625 29.296875 
Q 34.125 33.0625 28.5625 33.0625 
Q 22.515625 33.0625 18.546875 29.296875 
Q 14.59375 25.53125 14.59375 19.734375 
Q 14.59375 13.71875 18.53125 10.109375 
Q 22.46875 6.5 28.65625 6.5 
Q 34.234375 6.5 37.96875 10.125 
Q 41.703125 13.765625 41.703125 19.734375 
z
M 39.703125 52.78125 
Q 39.703125 57.90625 36.5 61.21875 
Q 33.296875 64.546875 28.5625 64.546875 
Q 23.34375 64.546875 19.96875 61.34375 
Q 16.609375 58.15625 16.609375 52.78125 
Q 16.609375 47.359375 20.015625 43.984375 
Q 23.4375 40.625 28.65625 40.625 
Q 33.40625 40.625 36.546875 43.984375 
Q 39.703125 47.359375 39.703125 52.78125 
z
" id="Roboto-Regular-56"/>
      </defs>
      <g style="fill:#757575;" transform="translate(324.269645 317.017187)scale(0.1 -0.1)">
       <use xlink:href="#Roboto-Regular-56"/>
       <use x="56.298828" xlink:href="#Roboto-Regular-48"/>
       <use x="112.597656" xlink:href="#Roboto-Regular-37"/>
      </g>
     </g>
    </g>
    <g id="xtick_6">
     <g id="line2d_6">
      <path clip-path="url(#pc6f6862cb0)" d="M 398.487273 302.4 
L 398.487273 41.472 
" style="fill:none;stroke:#eeeeee;stroke-linecap:round;stroke-width:0.8;"/>
     </g>
     <g id="text_6">
      <!-- 100% -->
      <defs>
       <path d="M 34.671875 0 
L 25 0 
L 25 62.203125 
L 9.515625 62.0625 
L 9.515625 69.484375 
L 34.671875 72.125 
z
" id="Roboto-Regular-49"/>
      </defs>
      <g style="fill:#757575;" transform="translate(386.38571 317.017187)scale(0.1 -0.1)">
       <use xlink:href="#Roboto-Regular-49"/>
       <use x="56.298828" xlink:href="#Roboto-Regular-48"/>
       <use x="112.597656" xlink:href="#Roboto-Regular-48"/>
       <use x="168.896484" xlink:href="#Roboto-Regular-37"/>
      </g>
     </g>
    </g>
    <g id="text_7">
     <!-- Percent of households to which transfer is targeted -->
     <defs>
      <path d="M 17.578125 28.515625 
L 17.578125 0 
L 7.953125 0 
L 7.953125 71.09375 
L 35.15625 71.09375 
Q 46.53125 71.09375 52.859375 65.234375 
Q 59.1875 59.375 59.1875 49.8125 
Q 59.1875 40.140625 52.859375 34.328125 
Q 46.53125 28.515625 35.15625 28.515625 
z
M 17.578125 36.03125 
L 35.15625 36.03125 
Q 42.390625 36.03125 45.953125 39.90625 
Q 49.515625 43.796875 49.515625 49.703125 
Q 49.515625 55.609375 45.921875 59.5625 
Q 42.328125 63.53125 35.15625 63.53125 
L 17.578125 63.53125 
z
" id="Roboto-Regular-80"/>
      <path d="M 29.890625 -1.03125 
Q 18.0625 -1.03125 11.390625 6.265625 
Q 4.734375 13.578125 4.734375 25.390625 
L 4.734375 27.546875 
Q 4.734375 38.921875 11.296875 46.359375 
Q 17.875 53.8125 27.34375 53.8125 
Q 37.9375 53.8125 43.234375 47.21875 
Q 48.53125 40.625 48.53125 29.6875 
L 48.53125 24.609375 
L 14.75 24.609375 
L 14.65625 24.359375 
Q 14.59375 16.453125 18.375 11.46875 
Q 22.171875 6.5 29.890625 6.5 
Q 34.671875 6.5 37.5 7.5 
Q 40.328125 8.5 44.1875 10.546875 
L 46.578125 3.765625 
Q 43.953125 1.859375 40.15625 0.40625 
Q 36.375 -1.03125 29.890625 -1.03125 
z
M 27.34375 46.234375 
Q 22.3125 46.234375 19.015625 42.359375 
Q 15.71875 38.484375 14.984375 32.421875 
L 15.09375 32.171875 
L 38.921875 32.171875 
L 38.921875 32.953125 
Q 38.921875 38.71875 36.078125 42.46875 
Q 33.25 46.234375 27.34375 46.234375 
z
" id="Roboto-Regular-101"/>
      <path d="M 31.984375 44.34375 
L 27.046875 44.625 
Q 23.25 44.625 20.625 42.8125 
Q 18.015625 41.015625 16.609375 37.75 
L 16.609375 0 
L 6.984375 0 
L 6.984375 52.828125 
L 15.578125 52.828125 
L 16.265625 44.625 
Q 18.453125 48.921875 21.828125 51.359375 
Q 25.203125 53.8125 29.640625 53.8125 
Q 30.71875 53.8125 31.6875 53.640625 
Q 32.671875 53.46875 33.296875 53.265625 
z
" id="Roboto-Regular-114"/>
      <path d="M 27.984375 6.5 
Q 32.421875 6.5 35.734375 9.453125 
Q 39.0625 12.40625 39.0625 16.703125 
L 47.75 16.703125 
L 47.90625 16.40625 
Q 48.09375 9.578125 42.03125 4.265625 
Q 35.984375 -1.03125 27.984375 -1.03125 
Q 16.84375 -1.03125 10.78125 6.53125 
Q 4.734375 14.109375 4.734375 25.390625 
L 4.734375 27.4375 
Q 4.734375 38.625 10.8125 46.21875 
Q 16.890625 53.8125 27.984375 53.8125 
Q 36.8125 53.8125 42.453125 48.34375 
Q 48.09375 42.875 47.90625 34.90625 
L 47.796875 34.625 
L 39.0625 34.625 
Q 39.0625 39.453125 35.90625 42.84375 
Q 32.765625 46.234375 27.984375 46.234375 
Q 20.90625 46.234375 17.65625 40.734375 
Q 14.40625 35.25 14.40625 27.4375 
L 14.40625 25.390625 
Q 14.40625 17.4375 17.59375 11.96875 
Q 20.796875 6.5 27.984375 6.5 
z
" id="Roboto-Regular-99"/>
      <path d="M 15.578125 52.828125 
L 16.265625 44.96875 
Q 18.890625 49.171875 22.875 51.484375 
Q 26.859375 53.8125 31.9375 53.8125 
Q 40.484375 53.8125 45.171875 48.796875 
Q 49.859375 43.796875 49.859375 33.34375 
L 49.859375 0 
L 40.234375 0 
L 40.234375 33.15625 
Q 40.234375 40.140625 37.46875 43.0625 
Q 34.71875 46 29.046875 46 
Q 24.609375 46 21.5 44.21875 
Q 18.40625 42.4375 16.609375 39.203125 
L 16.609375 0 
L 6.984375 0 
L 6.984375 52.828125 
z
" id="Roboto-Regular-110"/>
      <path d="M 19.234375 65.578125 
L 19.234375 52.828125 
L 29.25 52.828125 
L 29.25 45.703125 
L 19.234375 45.703125 
L 19.234375 13.625 
Q 19.234375 9.90625 20.765625 8.390625 
Q 22.3125 6.890625 24.859375 6.890625 
Q 25.6875 6.890625 26.6875 7.078125 
Q 27.6875 7.28125 28.46875 7.5625 
L 29.78125 0.984375 
Q 28.65625 0.09375 26.5625 -0.46875 
Q 24.46875 -1.03125 22.40625 -1.03125 
Q 16.609375 -1.03125 13.109375 2.515625 
Q 9.625 6.0625 9.625 13.625 
L 9.625 45.703125 
L 1.265625 45.703125 
L 1.265625 52.828125 
L 9.625 52.828125 
L 9.625 65.578125 
z
" id="Roboto-Regular-116"/>
      <path id="Roboto-Regular-32"/>
      <path d="M 4.734375 26.90625 
Q 4.734375 38.625 11.078125 46.21875 
Q 17.4375 53.8125 28.328125 53.8125 
Q 39.3125 53.8125 45.671875 46.234375 
Q 52.046875 38.671875 52.046875 26.90625 
L 52.046875 25.828125 
Q 52.046875 14.015625 45.703125 6.484375 
Q 39.359375 -1.03125 28.421875 -1.03125 
Q 17.484375 -1.03125 11.109375 6.515625 
Q 4.734375 14.0625 4.734375 25.828125 
z
M 14.359375 25.828125 
Q 14.359375 17.4375 17.890625 11.96875 
Q 21.4375 6.5 28.421875 6.5 
Q 35.296875 6.5 38.859375 11.96875 
Q 42.4375 17.4375 42.4375 25.828125 
L 42.4375 26.90625 
Q 42.4375 35.203125 38.84375 40.71875 
Q 35.25 46.234375 28.328125 46.234375 
Q 21.4375 46.234375 17.890625 40.71875 
Q 14.359375 35.203125 14.359375 26.90625 
z
" id="Roboto-Regular-111"/>
      <path d="M 9.671875 0 
L 9.671875 45.703125 
L 1.375 45.703125 
L 1.375 52.828125 
L 9.671875 52.828125 
L 9.671875 59.515625 
Q 9.671875 67.96875 14.0625 72.578125 
Q 18.453125 77.203125 26.375 77.203125 
Q 28.03125 77.203125 29.703125 76.921875 
Q 31.390625 76.65625 33.453125 76.171875 
L 32.28125 68.84375 
Q 31.390625 69.046875 30.140625 69.1875 
Q 28.90625 69.34375 27.59375 69.34375 
Q 23.34375 69.34375 21.3125 66.828125 
Q 19.28125 64.3125 19.28125 59.515625 
L 19.28125 52.828125 
L 28.859375 52.828125 
L 28.859375 45.703125 
L 19.28125 45.703125 
L 19.28125 0 
z
" id="Roboto-Regular-102"/>
      <path d="M 16.609375 45.75 
Q 19.34375 49.5625 23.3125 51.6875 
Q 27.296875 53.8125 32.125 53.8125 
Q 40.578125 53.8125 45.28125 48.734375 
Q 50 43.65625 50 33.109375 
L 50 0 
L 40.375 0 
L 40.375 33.203125 
Q 40.375 39.75 37.5625 42.875 
Q 34.765625 46 29.203125 46 
Q 24.90625 46 21.734375 44.3125 
Q 18.5625 42.625 16.609375 39.59375 
L 16.609375 0 
L 6.984375 0 
L 6.984375 76.171875 
L 16.609375 76.171875 
z
" id="Roboto-Regular-104"/>
      <path d="M 40.53125 7.859375 
Q 38.03125 3.609375 34.09375 1.28125 
Q 30.171875 -1.03125 25.09375 -1.03125 
Q 16.453125 -1.03125 11.609375 4.484375 
Q 6.78125 10.015625 6.78125 21.6875 
L 6.78125 52.828125 
L 16.40625 52.828125 
L 16.40625 21.578125 
Q 16.40625 13.140625 18.890625 9.953125 
Q 21.390625 6.78125 26.65625 6.78125 
Q 31.78125 6.78125 35.125 8.875 
Q 38.484375 10.984375 40.1875 14.84375 
L 40.1875 52.828125 
L 49.8125 52.828125 
L 49.8125 0 
L 41.15625 0 
z
" id="Roboto-Regular-117"/>
      <path d="M 37.703125 14.203125 
Q 37.703125 17.390625 35.28125 19.390625 
Q 32.859375 21.390625 26.125 22.90625 
Q 16.796875 24.90625 11.78125 28.515625 
Q 6.78125 32.125 6.78125 38.1875 
Q 6.78125 44.625 12.28125 49.21875 
Q 17.78125 53.8125 26.515625 53.8125 
Q 35.5 53.8125 41.0625 48.921875 
Q 46.625 44.046875 46.390625 37.546875 
L 46.296875 37.25 
L 37.109375 37.25 
Q 37.109375 40.671875 34.109375 43.453125 
Q 31.109375 46.234375 26.515625 46.234375 
Q 21.4375 46.234375 18.921875 43.9375 
Q 16.40625 41.65625 16.40625 38.484375 
Q 16.40625 35.359375 18.578125 33.640625 
Q 20.75 31.9375 27.546875 30.515625 
Q 37.25 28.46875 42.28125 24.703125 
Q 47.3125 20.953125 47.3125 14.890625 
Q 47.3125 7.859375 41.625 3.40625 
Q 35.9375 -1.03125 26.765625 -1.03125 
Q 16.65625 -1.03125 10.84375 4.09375 
Q 5.03125 9.234375 5.328125 16.0625 
L 5.421875 16.359375 
L 14.59375 16.359375 
Q 14.84375 11.234375 18.40625 8.859375 
Q 21.96875 6.5 26.765625 6.5 
Q 31.890625 6.5 34.796875 8.671875 
Q 37.703125 10.84375 37.703125 14.203125 
z
" id="Roboto-Regular-115"/>
      <path d="M 17.390625 0 
L 7.765625 0 
L 7.765625 76.171875 
L 17.390625 76.171875 
z
" id="Roboto-Regular-108"/>
      <path d="M 4.78125 25.4375 
Q 4.78125 38.1875 10.21875 46 
Q 15.671875 53.8125 25.484375 53.8125 
Q 30.125 53.8125 33.71875 52.09375 
Q 37.3125 50.390625 39.84375 47.125 
L 39.84375 76.171875 
L 49.46875 76.171875 
L 49.46875 0 
L 42.09375 0 
L 40.625 6.6875 
Q 38.03125 2.875 34.21875 0.921875 
Q 30.421875 -1.03125 25.390625 -1.03125 
Q 15.71875 -1.03125 10.25 5.96875 
Q 4.78125 12.984375 4.78125 24.421875 
z
M 14.40625 24.421875 
Q 14.40625 16.40625 17.671875 11.59375 
Q 20.953125 6.78125 27.828125 6.78125 
Q 32.125 6.78125 35.046875 8.734375 
Q 37.984375 10.6875 39.84375 14.203125 
L 39.84375 38.875 
Q 37.984375 42.140625 35.03125 44.0625 
Q 32.078125 46 27.9375 46 
Q 21 46 17.703125 40.28125 
Q 14.40625 34.578125 14.40625 25.4375 
z
" id="Roboto-Regular-100"/>
      <path d="M 20.515625 19.234375 
L 21.734375 12.453125 
L 22.015625 12.453125 
L 23.296875 19.234375 
L 33.84375 52.828125 
L 41.546875 52.828125 
L 52.15625 19.234375 
L 53.515625 11.671875 
L 53.8125 11.671875 
L 55.375 19.234375 
L 63.1875 52.828125 
L 73.25 52.828125 
L 57.90625 0 
L 50.140625 0 
L 39.703125 32.171875 
L 37.703125 40.578125 
L 37.40625 40.578125 
L 35.546875 32.171875 
L 25.296875 0 
L 17.53125 0 
L 2.203125 52.828125 
L 12.203125 52.828125 
z
" id="Roboto-Regular-119"/>
      <path d="M 17.390625 0 
L 7.765625 0 
L 7.765625 52.828125 
L 17.390625 52.828125 
z
M 17.390625 66.359375 
L 7.765625 66.359375 
L 7.765625 76.171875 
L 17.390625 76.171875 
z
" id="Roboto-Regular-105"/>
      <path d="M 39.453125 0 
Q 38.96875 2.390625 38.6875 4.21875 
Q 38.421875 6.0625 38.375 7.90625 
Q 35.6875 4.109375 31.359375 1.53125 
Q 27.046875 -1.03125 22.078125 -1.03125 
Q 13.8125 -1.03125 9.484375 3.1875 
Q 5.171875 7.421875 5.171875 14.84375 
Q 5.171875 22.40625 11.296875 26.671875 
Q 17.4375 30.953125 27.9375 30.953125 
L 38.375 30.953125 
L 38.375 36.1875 
Q 38.375 40.828125 35.546875 43.53125 
Q 32.71875 46.234375 27.546875 46.234375 
Q 22.859375 46.234375 19.96875 43.890625 
Q 17.09375 41.546875 17.09375 38.28125 
L 7.953125 38.1875 
L 7.859375 38.484375 
Q 7.515625 44.234375 13.25 49.015625 
Q 19 53.8125 28.078125 53.8125 
Q 37.0625 53.8125 42.53125 49.234375 
Q 48 44.671875 48 36.078125 
L 48 10.640625 
Q 48 7.8125 48.28125 5.171875 
Q 48.578125 2.546875 49.359375 0 
z
M 23.484375 7.03125 
Q 28.71875 7.03125 32.90625 9.71875 
Q 37.109375 12.40625 38.375 15.875 
L 38.375 24.46875 
L 27.59375 24.46875 
Q 21.78125 24.46875 18.28125 21.53125 
Q 14.796875 18.609375 14.796875 14.65625 
Q 14.796875 11.140625 16.984375 9.078125 
Q 19.1875 7.03125 23.484375 7.03125 
z
" id="Roboto-Regular-97"/>
      <path d="M 5.28125 25.4375 
Q 5.28125 38.1875 10.71875 46 
Q 16.15625 53.8125 25.921875 53.8125 
Q 30.953125 53.8125 34.765625 51.78125 
Q 38.578125 49.75 41.15625 45.953125 
L 42.328125 52.828125 
L 50 52.828125 
L 50 -0.296875 
Q 50 -10.453125 44.09375 -15.890625 
Q 38.1875 -21.34375 27.046875 -21.34375 
Q 23.25 -21.34375 18.828125 -20.28125 
Q 14.40625 -19.234375 11.03125 -17.4375 
L 12.5 -9.96875 
Q 15.28125 -11.421875 19.203125 -12.328125 
Q 23.140625 -13.234375 26.953125 -13.234375 
Q 33.984375 -13.234375 37.171875 -10.03125 
Q 40.375 -6.84375 40.375 -0.296875 
L 40.375 5.71875 
Q 37.796875 2.390625 34.171875 0.671875 
Q 30.5625 -1.03125 25.828125 -1.03125 
Q 16.15625 -1.03125 10.71875 5.96875 
Q 5.28125 12.984375 5.28125 24.421875 
z
M 14.890625 24.421875 
Q 14.890625 16.453125 18.15625 11.609375 
Q 21.4375 6.78125 28.265625 6.78125 
Q 32.625 6.78125 35.546875 8.765625 
Q 38.484375 10.75 40.375 14.359375 
L 40.375 38.671875 
Q 38.53125 42.046875 35.546875 44.015625 
Q 32.5625 46 28.375 46 
Q 21.484375 46 18.1875 40.28125 
Q 14.890625 34.578125 14.890625 25.4375 
z
" id="Roboto-Regular-103"/>
     </defs>
     <g style="fill:#757575;" transform="translate(122.025625 330.76875)scale(0.1 -0.1)">
      <use xlink:href="#Roboto-Regular-80"/>
      <use x="63.216797" xlink:href="#Roboto-Regular-101"/>
      <use x="115.560547" xlink:href="#Roboto-Regular-114"/>
      <use x="150.554688" xlink:href="#Roboto-Regular-99"/>
      <use x="202.898438" xlink:href="#Roboto-Regular-101"/>
      <use x="255.242188" xlink:href="#Roboto-Regular-110"/>
      <use x="312.078125" xlink:href="#Roboto-Regular-116"/>
      <use x="343.962891" xlink:href="#Roboto-Regular-32"/>
      <use x="368.816406" xlink:href="#Roboto-Regular-111"/>
      <use x="425.652344" xlink:href="#Roboto-Regular-102"/>
      <use x="456.121094" xlink:href="#Roboto-Regular-32"/>
      <use x="480.974609" xlink:href="#Roboto-Regular-104"/>
      <use x="537.810547" xlink:href="#Roboto-Regular-111"/>
      <use x="594.646484" xlink:href="#Roboto-Regular-117"/>
      <use x="651.482422" xlink:href="#Roboto-Regular-115"/>
      <use x="703.777344" xlink:href="#Roboto-Regular-101"/>
      <use x="756.121094" xlink:href="#Roboto-Regular-104"/>
      <use x="812.957031" xlink:href="#Roboto-Regular-111"/>
      <use x="869.792969" xlink:href="#Roboto-Regular-108"/>
      <use x="894.988281" xlink:href="#Roboto-Regular-100"/>
      <use x="951.824219" xlink:href="#Roboto-Regular-115"/>
      <use x="1004.119141" xlink:href="#Roboto-Regular-32"/>
      <use x="1028.972656" xlink:href="#Roboto-Regular-116"/>
      <use x="1060.857422" xlink:href="#Roboto-Regular-111"/>
      <use x="1117.693359" xlink:href="#Roboto-Regular-32"/>
      <use x="1142.546875" xlink:href="#Roboto-Regular-119"/>
      <use x="1218.230469" xlink:href="#Roboto-Regular-104"/>
      <use x="1275.066406" xlink:href="#Roboto-Regular-105"/>
      <use x="1300.261719" xlink:href="#Roboto-Regular-99"/>
      <use x="1352.605469" xlink:href="#Roboto-Regular-104"/>
      <use x="1409.441406" xlink:href="#Roboto-Regular-32"/>
      <use x="1434.294922" xlink:href="#Roboto-Regular-116"/>
      <use x="1466.179688" xlink:href="#Roboto-Regular-114"/>
      <use x="1501.189453" xlink:href="#Roboto-Regular-97"/>
      <use x="1556.169922" xlink:href="#Roboto-Regular-110"/>
      <use x="1613.005859" xlink:href="#Roboto-Regular-115"/>
      <use x="1665.300781" xlink:href="#Roboto-Regular-102"/>
      <use x="1695.769531" xlink:href="#Roboto-Regular-101"/>
      <use x="1748.113281" xlink:href="#Roboto-Regular-114"/>
      <use x="1783.123047" xlink:href="#Roboto-Regular-32"/>
      <use x="1807.976562" xlink:href="#Roboto-Regular-105"/>
      <use x="1833.171875" xlink:href="#Roboto-Regular-115"/>
      <use x="1885.466797" xlink:href="#Roboto-Regular-32"/>
      <use x="1910.320312" xlink:href="#Roboto-Regular-116"/>
      <use x="1942.205078" xlink:href="#Roboto-Regular-97"/>
      <use x="1997.185547" xlink:href="#Roboto-Regular-114"/>
      <use x="2032.195312" xlink:href="#Roboto-Regular-103"/>
      <use x="2089.03125" xlink:href="#Roboto-Regular-101"/>
      <use x="2141.375" xlink:href="#Roboto-Regular-116"/>
      <use x="2173.259766" xlink:href="#Roboto-Regular-101"/>
      <use x="2225.603516" xlink:href="#Roboto-Regular-100"/>
     </g>
    </g>
   </g>
   <g id="matplotlib.axis_2">
    <g id="ytick_1">
     <g id="line2d_7">
      <path clip-path="url(#pc6f6862cb0)" d="M 57.6 294.864329 
L 414.72 294.864329 
" style="fill:none;stroke:#eeeeee;stroke-linecap:round;stroke-width:0.8;"/>
     </g>
     <g id="text_8">
      <!-- $\mathdefault{-10^{3}}$ -->
      <defs>
       <path d="M 48.96875 31.640625 
L 8.203125 31.640625 
L 8.203125 39.203125 
L 48.96875 39.203125 
z
" id="Roboto-Regular-8722"/>
       <path d="M 28.265625 40.4375 
Q 34.71875 40.4375 37.375 43.625 
Q 40.046875 46.828125 40.046875 52.59375 
Q 40.046875 57.953125 37.140625 61.25 
Q 34.234375 64.546875 28.515625 64.546875 
Q 22.953125 64.546875 19.3125 61.109375 
Q 15.671875 57.671875 15.671875 52.484375 
L 6.5 52.484375 
L 6.34375 52.78125 
Q 6.109375 60.796875 12.40625 66.453125 
Q 18.703125 72.125 28.515625 72.125 
Q 38.421875 72.125 44.03125 67.109375 
Q 49.65625 62.109375 49.65625 52.390625 
Q 49.65625 47.40625 47.046875 43.296875 
Q 44.4375 39.203125 39.75 36.921875 
Q 45.125 34.765625 47.921875 30.390625 
Q 50.734375 26.03125 50.734375 19.828125 
Q 50.734375 10.0625 44.546875 4.515625 
Q 38.375 -1.03125 28.515625 -1.03125 
Q 19.4375 -1.03125 12.515625 4.3125 
Q 5.609375 9.671875 5.859375 18.453125 
L 5.953125 18.75 
L 15.140625 18.75 
Q 15.140625 13.578125 18.875 10.03125 
Q 22.609375 6.5 28.515625 6.5 
Q 34.375 6.5 37.734375 10.125 
Q 41.109375 13.765625 41.109375 19.625 
Q 41.109375 26.3125 38 29.625 
Q 34.90625 32.953125 28.265625 32.953125 
L 20.359375 32.953125 
L 20.359375 40.4375 
z
" id="Roboto-Regular-51"/>
      </defs>
      <g style="fill:#757575;" transform="translate(29.3 298.672923)scale(0.1 -0.1)">
       <use transform="translate(0 0.532813)" xlink:href="#Roboto-Regular-8722"/>
       <use transform="translate(57.128906 0.532813)" xlink:href="#Roboto-Regular-49"/>
       <use transform="translate(113.427734 0.532813)" xlink:href="#Roboto-Regular-48"/>
       <use transform="translate(170.651055 37.5125)scale(0.7)" xlink:href="#Roboto-Regular-51"/>
      </g>
     </g>
    </g>
    <g id="ytick_2">
     <g id="line2d_8">
      <path clip-path="url(#pc6f6862cb0)" d="M 57.6 261.045471 
L 414.72 261.045471 
" style="fill:none;stroke:#eeeeee;stroke-linecap:round;stroke-width:0.8;"/>
     </g>
     <g id="text_9">
      <!-- $\mathdefault{-10^{2}}$ -->
      <g style="fill:#757575;" transform="translate(29.3 264.854065)scale(0.1 -0.1)">
       <use transform="translate(0 0.532813)" xlink:href="#Roboto-Regular-8722"/>
       <use transform="translate(57.128906 0.532813)" xlink:href="#Roboto-Regular-49"/>
       <use transform="translate(113.427734 0.532813)" xlink:href="#Roboto-Regular-48"/>
       <use transform="translate(170.651055 37.5125)scale(0.7)" xlink:href="#Roboto-Regular-50"/>
      </g>
     </g>
    </g>
    <g id="ytick_3">
     <g id="line2d_9">
      <path clip-path="url(#pc6f6862cb0)" d="M 57.6 227.226613 
L 414.72 227.226613 
" style="fill:none;stroke:#eeeeee;stroke-linecap:round;stroke-width:0.8;"/>
     </g>
     <g id="text_10">
      <!-- $\mathdefault{-10^{1}}$ -->
      <g style="fill:#757575;" transform="translate(29.3 231.035206)scale(0.1 -0.1)">
       <use transform="translate(0 0.532813)" xlink:href="#Roboto-Regular-8722"/>
       <use transform="translate(57.128906 0.532813)" xlink:href="#Roboto-Regular-49"/>
       <use transform="translate(113.427734 0.532813)" xlink:href="#Roboto-Regular-48"/>
       <use transform="translate(170.651055 37.5125)scale(0.7)" xlink:href="#Roboto-Regular-49"/>
      </g>
     </g>
    </g>
    <g id="ytick_4">
     <g id="line2d_10">
      <path clip-path="url(#pc6f6862cb0)" d="M 57.6 193.407754 
L 414.72 193.407754 
" style="fill:none;stroke:#eeeeee;stroke-linecap:round;stroke-width:0.8;"/>
     </g>
     <g id="text_11">
      <!-- $\mathdefault{-10^{0}}$ -->
      <g style="fill:#757575;" transform="translate(29.3 197.216348)scale(0.1 -0.1)">
       <use transform="translate(0 0.532813)" xlink:href="#Roboto-Regular-8722"/>
       <use transform="translate(57.128906 0.532813)" xlink:href="#Roboto-Regular-49"/>
       <use transform="translate(113.427734 0.532813)" xlink:href="#Roboto-Regular-48"/>
       <use transform="translate(170.651055 37.5125)scale(0.7)" xlink:href="#Roboto-Regular-48"/>
      </g>
     </g>
    </g>
    <g id="ytick_5">
     <g id="line2d_11">
      <path clip-path="url(#pc6f6862cb0)" d="M 57.6 159.588896 
L 414.72 159.588896 
" style="fill:none;stroke:#eeeeee;stroke-linecap:round;stroke-width:0.8;"/>
     </g>
     <g id="text_12">
      <!-- $\mathdefault{-10^{-1}}$ -->
      <g style="fill:#757575;" transform="translate(25.3 163.39749)scale(0.1 -0.1)">
       <use transform="translate(0 0.532813)" xlink:href="#Roboto-Regular-8722"/>
       <use transform="translate(57.128906 0.532813)" xlink:href="#Roboto-Regular-49"/>
       <use transform="translate(113.427734 0.532813)" xlink:href="#Roboto-Regular-48"/>
       <use transform="translate(170.651055 37.5125)scale(0.7)" xlink:href="#Roboto-Regular-8722"/>
       <use transform="translate(210.641289 37.5125)scale(0.7)" xlink:href="#Roboto-Regular-49"/>
      </g>
     </g>
    </g>
    <g id="ytick_6">
     <g id="line2d_12">
      <path clip-path="url(#pc6f6862cb0)" d="M 57.6 125.770038 
L 414.72 125.770038 
" style="fill:none;stroke:#eeeeee;stroke-linecap:round;stroke-width:0.8;"/>
     </g>
     <g id="text_13">
      <!-- $\mathdefault{-10^{-2}}$ -->
      <g style="fill:#757575;" transform="translate(25.3 129.578632)scale(0.1 -0.1)">
       <use transform="translate(0 0.532813)" xlink:href="#Roboto-Regular-8722"/>
       <use transform="translate(57.128906 0.532813)" xlink:href="#Roboto-Regular-49"/>
       <use transform="translate(113.427734 0.532813)" xlink:href="#Roboto-Regular-48"/>
       <use transform="translate(170.651055 37.5125)scale(0.7)" xlink:href="#Roboto-Regular-8722"/>
       <use transform="translate(210.641289 37.5125)scale(0.7)" xlink:href="#Roboto-Regular-50"/>
      </g>
     </g>
    </g>
    <g id="ytick_7">
     <g id="line2d_13">
      <path clip-path="url(#pc6f6862cb0)" d="M 57.6 91.95118 
L 414.72 91.95118 
" style="fill:none;stroke:#eeeeee;stroke-linecap:round;stroke-width:0.8;"/>
     </g>
     <g id="text_14">
      <!-- $\mathdefault{-10^{-3}}$ -->
      <g style="fill:#757575;" transform="translate(25.3 95.759773)scale(0.1 -0.1)">
       <use transform="translate(0 0.532813)" xlink:href="#Roboto-Regular-8722"/>
       <use transform="translate(57.128906 0.532813)" xlink:href="#Roboto-Regular-49"/>
       <use transform="translate(113.427734 0.532813)" xlink:href="#Roboto-Regular-48"/>
       <use transform="translate(170.651055 37.5125)scale(0.7)" xlink:href="#Roboto-Regular-8722"/>
       <use transform="translate(210.641289 37.5125)scale(0.7)" xlink:href="#Roboto-Regular-51"/>
      </g>
     </g>
    </g>
    <g id="ytick_8">
     <g id="line2d_14">
      <path clip-path="url(#pc6f6862cb0)" d="M 57.6 58.132321 
L 414.72 58.132321 
" style="fill:none;stroke:#eeeeee;stroke-linecap:round;stroke-width:0.8;"/>
     </g>
     <g id="text_15">
      <!-- $\mathdefault{-10^{-4}}$ -->
      <g style="fill:#757575;" transform="translate(25.3 61.940915)scale(0.1 -0.1)">
       <use transform="translate(0 0.254688)" xlink:href="#Roboto-Regular-8722"/>
       <use transform="translate(57.128906 0.254688)" xlink:href="#Roboto-Regular-49"/>
       <use transform="translate(113.427734 0.254688)" xlink:href="#Roboto-Regular-48"/>
       <use transform="translate(170.651055 37.234375)scale(0.7)" xlink:href="#Roboto-Regular-8722"/>
       <use transform="translate(210.641289 37.234375)scale(0.7)" xlink:href="#Roboto-Regular-52"/>
      </g>
     </g>
    </g>
   </g>
   <g id="line2d_15">
    <path clip-path="url(#pc6f6862cb0)" d="M 73.832727 290.539636 
L 77.079273 281.809744 
L 80.325818 260.180269 
L 83.572364 116.85892 
L 86.818909 120.151448 
L 90.065455 125.415237 
L 93.312 130.124136 
L 96.558545 134.189748 
L 99.805091 137.693157 
L 103.051636 140.97871 
L 106.298182 143.907042 
L 109.544727 146.595977 
L 112.791273 149.062344 
L 116.037818 151.339428 
L 119.284364 153.449681 
L 122.530909 155.415252 
L 125.777455 157.255208 
L 129.024 158.984796 
L 132.270545 160.616978 
L 135.517091 162.159709 
L 138.763636 163.622258 
L 142.010182 165.016188 
L 145.256727 166.344538 
L 148.503273 167.612947 
L 151.749818 168.826721 
L 154.996364 169.993138 
L 158.242909 171.110424 
L 161.489455 172.188786 
L 164.736 173.226074 
L 167.982545 174.226718 
L 171.229091 175.192467 
L 174.475636 176.125886 
L 177.722182 177.02981 
L 180.968727 177.907005 
L 184.215273 178.7558 
L 187.461818 179.579776 
L 190.708364 180.381404 
L 193.954909 181.160208 
L 197.201455 181.916886 
L 200.448 182.655335 
L 203.694545 183.373358 
L 206.941091 184.073143 
L 210.187636 184.757058 
L 213.434182 185.423106 
L 216.680727 186.074777 
L 219.927273 186.710776 
L 223.173818 187.332538 
L 226.420364 187.941199 
L 229.666909 188.535894 
L 232.913455 189.118799 
L 236.16 189.688414 
L 239.406545 190.248023 
L 242.653091 190.7953 
L 245.899636 191.332107 
L 249.146182 191.859603 
L 252.392727 192.375812 
L 255.639273 192.88278 
L 258.885818 193.381206 
L 262.132364 193.869368 
L 265.378909 194.34988 
L 268.625455 194.822209 
L 271.872 195.286066 
L 275.118545 195.741881 
L 278.365091 196.190179 
L 281.611636 196.632259 
L 284.858182 197.065775 
L 288.104727 197.493665 
L 291.351273 197.914125 
L 294.597818 198.32861 
L 297.844364 198.736352 
L 301.090909 199.138177 
L 304.337455 199.533446 
L 307.584 199.92408 
L 310.830545 200.308214 
L 314.077091 200.687471 
L 317.323636 201.060695 
L 320.570182 201.429679 
L 323.816727 201.793314 
L 327.063273 202.151752 
L 330.309818 202.506142 
L 333.556364 202.854686 
L 336.802909 203.199289 
L 340.049455 203.539869 
L 343.296 203.875865 
L 346.542545 204.207505 
L 349.789091 204.535512 
L 353.035636 204.858722 
L 356.282182 205.17877 
L 359.528727 205.494198 
L 362.775273 205.805933 
L 366.021818 206.114901 
L 369.268364 206.419449 
L 372.514909 206.721089 
L 375.761455 207.018864 
L 379.008 207.313193 
L 382.254545 207.604482 
L 385.501091 207.892597 
L 388.747636 208.177432 
L 391.994182 208.45915 
L 395.240727 208.73785 
L 398.487273 209.013137 
" style="fill:none;stroke:#1f77b4;stroke-linecap:round;stroke-width:1.5;"/>
   </g>
   <g id="line2d_16">
    <path clip-path="url(#pc6f6862cb0)" d="M 73.832727 290.539636 
L 77.079273 281.809738 
L 80.325818 260.180094 
L 83.572364 104.301583 
L 86.818909 95.116264 
L 90.065455 93.228941 
L 93.312 92.877102 
L 96.558545 91.890474 
L 99.805091 88.38146 
L 103.051636 88.89679 
L 106.298182 88.368465 
L 109.544727 88.854796 
L 112.791273 90.038503 
L 116.037818 91.388977 
L 119.284364 92.729794 
L 122.530909 94.125742 
L 125.777455 95.47227 
L 129.024 96.772125 
L 132.270545 98.06015 
L 135.517091 99.193218 
L 138.763636 100.357172 
L 142.010182 101.545533 
L 145.256727 102.690738 
L 148.503273 103.79837 
L 151.749818 104.864371 
L 154.996364 105.898896 
L 158.242909 106.901403 
L 161.489455 107.874791 
L 164.736 108.817655 
L 167.982545 109.731949 
L 171.229091 110.618848 
L 174.475636 111.48075 
L 177.722182 112.318766 
L 180.968727 113.136463 
L 184.215273 113.932094 
L 187.461818 114.703425 
L 190.708364 115.460265 
L 193.954909 116.194327 
L 197.201455 116.91386 
L 200.448 117.617203 
L 203.694545 118.304381 
L 206.941091 118.975255 
L 210.187636 119.632906 
L 213.434182 120.275086 
L 216.680727 120.90468 
L 219.927273 121.520628 
L 223.173818 122.123358 
L 226.420364 122.71471 
L 229.666909 123.293976 
L 232.913455 123.863053 
L 236.16 124.420237 
L 239.406545 124.968628 
L 242.653091 125.505764 
L 245.899636 126.033512 
L 249.146182 126.553005 
L 252.392727 127.062124 
L 255.639273 127.562697 
L 258.885818 128.055619 
L 262.132364 128.539221 
L 265.378909 129.015842 
L 268.625455 129.485034 
L 271.872 129.946419 
L 275.118545 130.400418 
L 278.365091 130.847486 
L 281.611636 131.288904 
L 284.858182 131.722307 
L 288.104727 132.150583 
L 291.351273 132.571869 
L 294.597818 132.987696 
L 297.844364 133.397213 
L 301.090909 133.801215 
L 304.337455 134.199119 
L 307.584 134.592749 
L 310.830545 134.98025 
L 314.077091 135.363243 
L 317.323636 135.740523 
L 320.570182 136.113902 
L 323.816727 136.482208 
L 327.063273 136.845643 
L 330.309818 137.205181 
L 333.556364 137.559258 
L 336.802909 137.909679 
L 340.049455 138.256343 
L 343.296 138.598656 
L 346.542545 138.936792 
L 349.789091 139.271576 
L 353.035636 139.601769 
L 356.282182 139.929026 
L 359.528727 140.251837 
L 362.775273 140.571127 
L 366.021818 140.887887 
L 369.268364 141.200384 
L 372.514909 141.51016 
L 375.761455 141.816224 
L 379.008 142.118995 
L 382.254545 142.418894 
L 385.501091 142.715772 
L 388.747636 143.009509 
L 391.994182 143.300267 
L 395.240727 143.588143 
L 398.487273 143.87272 
" style="fill:none;stroke:#ff7f0e;stroke-linecap:round;stroke-width:1.5;"/>
   </g>
   <g id="line2d_17">
    <path clip-path="url(#pc6f6862cb0)" d="M 73.832727 290.539636 
L 77.079273 281.809738 
L 80.325818 260.180092 
L 83.572364 104.135555 
L 86.818909 94.521845 
L 90.065455 92.133747 
L 93.312 91.229456 
L 96.558545 89.433367 
L 99.805091 84.079172 
L 103.051636 83.497892 
L 106.298182 81.09895 
L 109.544727 79.987568 
L 112.791273 80.054249 
L 116.037818 80.508487 
L 119.284364 81.01052 
L 122.530909 81.747356 
L 125.777455 82.490095 
L 129.024 83.229913 
L 132.270545 84.051746 
L 135.517091 84.55495 
L 138.763636 85.249371 
L 142.010182 86.134712 
L 145.256727 87.000809 
L 148.503273 87.861708 
L 151.749818 88.689561 
L 154.996364 89.508989 
L 158.242909 90.326295 
L 161.489455 91.125277 
L 164.736 91.909396 
L 167.982545 92.674214 
L 171.229091 93.421933 
L 174.475636 94.155645 
L 177.722182 94.873382 
L 180.968727 95.580642 
L 184.215273 96.278003 
L 187.461818 96.945212 
L 190.708364 97.615456 
L 193.954909 98.255813 
L 197.201455 98.901249 
L 200.448 99.53113 
L 203.694545 100.154499 
L 206.941091 100.762542 
L 210.187636 101.36214 
L 213.434182 101.950373 
L 216.680727 102.528156 
L 219.927273 103.095591 
L 223.173818 103.649177 
L 226.420364 104.194135 
L 229.666909 104.730878 
L 232.913455 105.260436 
L 236.16 105.780377 
L 239.406545 106.293349 
L 242.653091 106.796315 
L 245.899636 107.291505 
L 249.146182 107.780177 
L 252.392727 108.259617 
L 255.639273 108.730793 
L 258.885818 109.195836 
L 262.132364 109.653396 
L 265.378909 110.104626 
L 268.625455 110.549644 
L 271.872 110.987776 
L 275.118545 111.419539 
L 278.365091 111.845135 
L 281.611636 112.265819 
L 284.858182 112.679339 
L 288.104727 113.088295 
L 291.351273 113.490712 
L 294.597818 113.888552 
L 297.844364 114.28065 
L 301.090909 114.667688 
L 304.337455 115.049523 
L 307.584 115.427381 
L 310.830545 115.799695 
L 314.077091 116.168031 
L 317.323636 116.531071 
L 320.570182 116.890659 
L 323.816727 117.245434 
L 327.063273 117.595938 
L 330.309818 117.942202 
L 333.556364 118.284029 
L 336.802909 118.622615 
L 340.049455 118.95781 
L 343.296 119.288973 
L 346.542545 119.615993 
L 349.789091 119.940207 
L 353.035636 120.260184 
L 356.282182 120.57749 
L 359.528727 120.890606 
L 362.775273 121.200346 
L 366.021818 121.507939 
L 369.268364 121.811539 
L 372.514909 122.112614 
L 375.761455 122.41022 
L 379.008 122.70472 
L 382.254545 122.996583 
L 385.501091 123.285636 
L 388.747636 123.571746 
L 391.994182 123.855059 
L 395.240727 124.135679 
L 398.487273 124.413193 
" style="fill:none;stroke:#2ca02c;stroke-linecap:round;stroke-width:1.5;"/>
   </g>
   <g id="line2d_18">
    <path clip-path="url(#pc6f6862cb0)" d="M 73.832727 290.539636 
L 77.079273 281.809738 
L 80.325818 260.180092 
L 83.572364 104.087029 
L 86.818909 94.336541 
L 90.065455 91.774017 
L 93.312 90.663501 
L 96.558545 88.545909 
L 99.805091 82.360597 
L 103.051636 81.203303 
L 106.298182 77.656998 
L 109.544727 75.356762 
L 112.791273 74.450961 
L 116.037818 74.029681 
L 119.284364 73.607504 
L 122.530909 73.543372 
L 125.777455 73.491867 
L 129.024 73.430228 
L 132.270545 73.530984 
L 135.517091 72.93783 
L 138.763636 72.73905 
L 142.010182 73.03662 
L 145.256727 73.328746 
L 148.503273 73.667717 
L 151.749818 73.957565 
L 154.996364 74.273836 
L 158.242909 74.65587 
L 161.489455 75.02681 
L 164.736 75.412544 
L 167.982545 75.785319 
L 171.229091 76.159067 
L 174.475636 76.53962 
L 177.722182 76.923168 
L 180.968727 77.312707 
L 184.215273 77.729942 
L 187.461818 78.081112 
L 190.708364 78.494439 
L 193.954909 78.834515 
L 197.201455 79.258439 
L 200.448 79.658438 
L 203.694545 80.09009 
L 206.941091 80.499866 
L 210.187636 80.918138 
L 213.434182 81.339607 
L 216.680727 81.754976 
L 219.927273 82.170019 
L 223.173818 82.558475 
L 226.420364 82.946697 
L 229.666909 83.343857 
L 232.913455 83.746513 
L 236.16 84.147389 
L 239.406545 84.548071 
L 242.653091 84.939973 
L 245.899636 85.329677 
L 249.146182 85.72009 
L 252.392727 86.103155 
L 255.639273 86.474335 
L 258.885818 86.846454 
L 262.132364 87.219404 
L 265.378909 87.586243 
L 268.625455 87.951686 
L 271.872 88.312919 
L 275.118545 88.671679 
L 278.365091 89.026264 
L 281.611636 89.37835 
L 284.858182 89.726005 
L 288.104727 90.070284 
L 291.351273 90.408066 
L 294.597818 90.745511 
L 297.844364 91.078551 
L 301.090909 91.40716 
L 304.337455 91.735506 
L 307.584 92.059498 
L 310.830545 92.380113 
L 314.077091 92.698869 
L 317.323636 93.013154 
L 320.570182 93.325701 
L 323.816727 93.633148 
L 327.063273 93.939452 
L 330.309818 94.237127 
L 333.556364 94.536173 
L 336.802909 94.833818 
L 340.049455 95.129565 
L 343.296 95.422148 
L 346.542545 95.708926 
L 349.789091 95.996181 
L 353.035636 96.280637 
L 356.282182 96.563364 
L 359.528727 96.842408 
L 362.775273 97.117916 
L 366.021818 97.393503 
L 369.268364 97.665986 
L 372.514909 97.936441 
L 375.761455 98.20424 
L 379.008 98.469281 
L 382.254545 98.732705 
L 385.501091 98.994086 
L 388.747636 99.253164 
L 391.994182 99.509963 
L 395.240727 99.764744 
L 398.487273 100.01707 
" style="fill:none;stroke:#d62728;stroke-linecap:round;stroke-width:1.5;"/>
   </g>
   <g id="line2d_19">
    <path clip-path="url(#pc6f6862cb0)" d="M 73.832727 290.539636 
L 77.079273 281.809738 
L 80.325818 260.180092 
L 83.572364 104.079818 
L 86.818909 94.307043 
L 90.065455 91.713416 
L 93.312 90.563704 
L 96.558545 88.383042 
L 99.805091 82.027247 
L 103.051636 80.740453 
L 106.298182 76.91883 
L 109.544727 74.301414 
L 112.791273 73.108372 
L 116.037818 72.407762 
L 119.284364 71.665678 
L 122.530909 71.301912 
L 125.777455 70.934229 
L 129.024 70.530557 
L 132.270545 70.302299 
L 135.517091 69.159407 
L 138.763636 68.467166 
L 142.010182 68.423754 
L 145.256727 68.36178 
L 148.503273 68.366231 
L 151.749818 68.288378 
L 154.996364 68.242471 
L 158.242909 68.305179 
L 161.489455 68.345668 
L 164.736 68.413316 
L 167.982545 68.455702 
L 171.229091 68.503313 
L 174.475636 68.562725 
L 177.722182 68.639088 
L 180.968727 68.719721 
L 184.215273 68.862266 
L 187.461818 68.883213 
L 190.708364 69.027578 
L 193.954909 69.029336 
L 197.201455 69.21395 
L 200.448 69.352624 
L 203.694545 69.570579 
L 206.941091 69.746927 
L 210.187636 69.951442 
L 213.434182 70.17771 
L 216.680727 70.399619 
L 219.927273 70.630046 
L 223.173818 70.802893 
L 226.420364 70.983218 
L 229.666909 71.199353 
L 232.913455 71.441089 
L 236.16 71.690273 
L 239.406545 71.950318 
L 242.653091 72.196941 
L 245.899636 72.449525 
L 249.146182 72.715143 
L 252.392727 72.971498 
L 255.639273 73.20278 
L 258.885818 73.449086 
L 262.132364 73.711279 
L 265.378909 73.96343 
L 268.625455 74.222031 
L 271.872 74.479186 
L 275.118545 74.740369 
L 278.365091 74.998907 
L 281.611636 75.258643 
L 284.858182 75.51695 
L 288.104727 75.77198 
L 291.351273 76.017382 
L 294.597818 76.271414 
L 297.844364 76.521254 
L 301.090909 76.765096 
L 304.337455 77.021177 
L 307.584 77.268409 
L 310.830545 77.515986 
L 314.077091 77.765658 
L 317.323636 78.010374 
L 320.570182 78.256417 
L 323.816727 78.493818 
L 327.063273 78.737773 
L 330.309818 78.959758 
L 333.556364 79.195698 
L 336.802909 79.434093 
L 340.049455 79.673783 
L 343.296 79.910869 
L 346.542545 80.134862 
L 349.789091 80.367893 
L 353.035636 80.601064 
L 356.282182 80.834068 
L 359.528727 81.062971 
L 362.775273 81.286625 
L 366.021818 81.516178 
L 369.268364 81.743886 
L 372.514909 81.969727 
L 375.761455 82.194149 
L 379.008 82.415299 
L 382.254545 82.637147 
L 385.501091 82.858387 
L 388.747636 83.0782 
L 391.994182 83.296127 
L 395.240727 83.513257 
L 398.487273 83.728983 
" style="fill:none;stroke:#9467bd;stroke-linecap:round;stroke-width:1.5;"/>
   </g>
   <g id="line2d_20">
    <path clip-path="url(#pc6f6862cb0)" d="M 73.832727 290.539636 
L 77.079273 281.809738 
L 80.325818 260.180092 
L 83.572364 104.077447 
L 86.818909 94.296739 
L 90.065455 91.691019 
L 93.312 90.524973 
L 96.558545 88.317081 
L 99.805091 81.886359 
L 103.051636 80.537711 
L 106.298182 76.582116 
L 109.544727 73.800787 
L 112.791273 72.44833 
L 116.037818 71.583876 
L 119.284364 70.646011 
L 122.530909 70.087789 
L 125.777455 69.506703 
L 129.024 68.861739 
L 132.270545 68.39024 
L 135.517091 66.82866 
L 138.763636 65.729922 
L 142.010182 65.383074 
L 145.256727 64.991581 
L 148.503273 64.670296 
L 151.749818 64.221195 
L 154.996364 63.787866 
L 158.242909 63.495134 
L 161.489455 63.150441 
L 164.736 62.83159 
L 167.982545 62.454237 
L 171.229091 62.069293 
L 174.475636 61.678676 
L 177.722182 61.313612 
L 180.968727 60.92198 
L 184.215273 60.630099 
L 187.461818 60.097827 
L 190.708364 59.772256 
L 193.954909 59.143233 
L 197.201455 58.874186 
L 200.448 58.49156 
L 203.694545 58.269687 
L 206.941091 57.943789 
L 210.187636 57.672876 
L 213.434182 57.458845 
L 216.680727 57.229882 
L 219.927273 57.007768 
L 223.173818 56.618502 
L 226.420364 56.234702 
L 229.666909 55.952861 
L 232.913455 55.753943 
L 236.16 55.57136 
L 239.406545 55.438997 
L 242.653091 55.251299 
L 245.899636 55.095965 
L 249.146182 54.992122 
L 252.392727 54.847139 
L 255.639273 54.606961 
L 258.885818 54.440912 
L 262.132364 54.355182 
L 265.378909 54.222808 
L 268.625455 54.126071 
L 271.872 54.031928 
L 275.118545 53.967954 
L 278.365091 53.899159 
L 281.611636 53.854133 
L 284.858182 53.803062 
L 288.104727 53.744751 
L 291.351273 53.646132 
L 294.597818 53.609082 
L 297.844364 53.551745 
L 301.090909 53.464105 
L 304.337455 53.486234 
L 307.584 53.446956 
L 310.830545 53.432484 
L 314.077091 53.442747 
L 317.323636 53.433099 
L 320.570182 53.442733 
L 323.816727 53.403897 
L 327.063273 53.437178 
L 330.309818 53.338402 
L 333.556364 53.332364 
L 336.802909 53.353298 
L 340.049455 53.40763 
L 343.296 53.454804 
L 346.542545 53.409282 
L 349.789091 53.446543 
L 353.035636 53.510706 
L 356.282182 53.586303 
L 359.528727 53.642997 
L 362.775273 53.678528 
L 366.021818 53.775837 
L 369.268364 53.877625 
L 372.514909 53.973604 
L 375.761455 54.077092 
L 379.008 54.160093 
L 382.254545 54.267409 
L 385.501091 54.390546 
L 388.747636 54.51846 
L 391.994182 54.641199 
L 395.240727 54.777519 
L 398.487273 54.923506 
" style="fill:none;stroke:#8c564b;stroke-linecap:round;stroke-width:1.5;"/>
   </g>
   <g id="legend_1">
    <g id="patch_3">
     <path d="M 204.361562 297.4 
L 267.958438 297.4 
Q 269.958438 297.4 269.958438 295.4 
L 269.958438 193.860937 
Q 269.958438 191.860937 267.958438 191.860937 
L 204.361562 191.860937 
Q 202.361562 191.860937 202.361562 193.860937 
L 202.361562 295.4 
Q 202.361562 297.4 204.361562 297.4 
z
" style="fill:#ffffff;opacity:0.8;stroke:#cccccc;stroke-linejoin:miter;"/>
    </g>
    <g id="text_16">
     <!-- Share of GDP -->
     <defs>
      <path d="M 46.78125 18.84375 
Q 46.78125 23.484375 43.265625 26.359375 
Q 39.75 29.25 30.71875 31.59375 
Q 19.96875 34.234375 14.03125 39.453125 
Q 8.109375 44.671875 8.109375 52.640625 
Q 8.109375 61.03125 14.453125 66.578125 
Q 20.796875 72.125 31.15625 72.125 
Q 42.390625 72.125 49.046875 65.75 
Q 55.71875 59.375 55.515625 50.875 
L 55.375 50.59375 
L 46.1875 50.59375 
Q 46.1875 56.640625 41.96875 60.59375 
Q 37.75 64.546875 31.15625 64.546875 
Q 24.46875 64.546875 21.09375 61.296875 
Q 17.71875 58.0625 17.71875 52.78125 
Q 17.71875 48.09375 21.5 44.984375 
Q 25.296875 41.890625 34.03125 39.59375 
Q 45.015625 36.71875 50.703125 31.734375 
Q 56.390625 26.765625 56.390625 18.953125 
Q 56.390625 10.25 49.578125 4.609375 
Q 42.78125 -1.03125 31.984375 -1.03125 
Q 21.6875 -1.03125 13.796875 4.734375 
Q 5.90625 10.5 6.15625 20.171875 
L 6.25 20.453125 
L 15.4375 20.453125 
Q 15.4375 13.765625 20.515625 10.125 
Q 25.59375 6.5 31.984375 6.5 
Q 38.71875 6.5 42.75 9.984375 
Q 46.78125 13.484375 46.78125 18.84375 
z
" id="Roboto-Regular-83"/>
      <path d="M 59.421875 9.578125 
Q 56.890625 5.609375 50.609375 2.28125 
Q 44.34375 -1.03125 34.328125 -1.03125 
Q 22.015625 -1.03125 13.953125 7.125 
Q 5.90625 15.28125 5.90625 28.21875 
L 5.90625 42.875 
Q 5.90625 55.8125 13.671875 63.96875 
Q 21.4375 72.125 33.6875 72.125 
Q 45.5625 72.125 52.4375 65.796875 
Q 59.328125 59.46875 59.125 49.703125 
L 59.03125 49.421875 
L 49.8125 49.421875 
Q 49.8125 55.90625 45.609375 60.21875 
Q 41.40625 64.546875 33.6875 64.546875 
Q 25.53125 64.546875 20.546875 58.4375 
Q 15.578125 52.34375 15.578125 42.96875 
L 15.578125 28.21875 
Q 15.578125 18.75 20.84375 12.625 
Q 26.125 6.5 34.328125 6.5 
Q 40.625 6.5 44.3125 8.125 
Q 48 9.765625 49.8125 12.015625 
L 49.8125 28.03125 
L 33.6875 28.03125 
L 33.6875 35.546875 
L 59.421875 35.546875 
z
" id="Roboto-Regular-71"/>
      <path d="M 8.25 0 
L 8.25 71.09375 
L 30.609375 71.09375 
Q 44.53125 71.09375 53 62.515625 
Q 61.46875 53.953125 61.46875 40.375 
L 61.46875 30.671875 
Q 61.46875 17.046875 53 8.515625 
Q 44.53125 0 30.609375 0 
z
M 17.875 63.53125 
L 17.875 7.515625 
L 30.609375 7.515625 
Q 40.484375 7.515625 46.171875 14.015625 
Q 51.859375 20.515625 51.859375 30.671875 
L 51.859375 40.484375 
Q 51.859375 50.53125 46.171875 57.03125 
Q 40.484375 63.53125 30.609375 63.53125 
z
" id="Roboto-Regular-68"/>
     </defs>
     <g style="fill:#212121;" transform="translate(206.361562 203.478125)scale(0.1 -0.1)">
      <use xlink:href="#Roboto-Regular-83"/>
      <use x="61.132812" xlink:href="#Roboto-Regular-104"/>
      <use x="117.96875" xlink:href="#Roboto-Regular-97"/>
      <use x="172.949219" xlink:href="#Roboto-Regular-114"/>
      <use x="207.943359" xlink:href="#Roboto-Regular-101"/>
      <use x="260.287109" xlink:href="#Roboto-Regular-32"/>
      <use x="285.140625" xlink:href="#Roboto-Regular-111"/>
      <use x="341.976562" xlink:href="#Roboto-Regular-102"/>
      <use x="372.445312" xlink:href="#Roboto-Regular-32"/>
      <use x="397.298828" xlink:href="#Roboto-Regular-71"/>
      <use x="465.023438" xlink:href="#Roboto-Regular-68"/>
      <use x="532.699219" xlink:href="#Roboto-Regular-80"/>
     </g>
    </g>
    <g id="line2d_21">
     <path d="M 208.720937 214.626562 
L 228.720937 214.626562 
" style="fill:none;stroke:#1f77b4;stroke-linecap:round;stroke-width:1.5;"/>
    </g>
    <g id="line2d_22"/>
    <g id="text_17">
     <!-- 0.01% -->
     <defs>
      <path d="M 17.484375 0 
L 7.859375 0 
L 7.859375 9.859375 
L 17.484375 9.859375 
z
" id="Roboto-Regular-46"/>
     </defs>
     <g style="fill:#212121;" transform="translate(236.720937 218.126562)scale(0.1 -0.1)">
      <use xlink:href="#Roboto-Regular-48"/>
      <use x="56.298828" xlink:href="#Roboto-Regular-46"/>
      <use x="83.056641" xlink:href="#Roboto-Regular-48"/>
      <use x="139.339844" xlink:href="#Roboto-Regular-49"/>
      <use x="195.638672" xlink:href="#Roboto-Regular-37"/>
     </g>
    </g>
    <g id="line2d_23">
     <path d="M 208.720937 229.275 
L 228.720937 229.275 
" style="fill:none;stroke:#ff7f0e;stroke-linecap:round;stroke-width:1.5;"/>
    </g>
    <g id="line2d_24"/>
    <g id="text_18">
     <!-- 0.1% -->
     <g style="fill:#212121;" transform="translate(236.720937 232.775)scale(0.1 -0.1)">
      <use xlink:href="#Roboto-Regular-48"/>
      <use x="56.298828" xlink:href="#Roboto-Regular-46"/>
      <use x="83.056641" xlink:href="#Roboto-Regular-49"/>
      <use x="139.355469" xlink:href="#Roboto-Regular-37"/>
     </g>
    </g>
    <g id="line2d_25">
     <path d="M 208.720937 243.923437 
L 228.720937 243.923437 
" style="fill:none;stroke:#2ca02c;stroke-linecap:round;stroke-width:1.5;"/>
    </g>
    <g id="line2d_26"/>
    <g id="text_19">
     <!-- 0.2% -->
     <g style="fill:#212121;" transform="translate(236.720937 247.423437)scale(0.1 -0.1)">
      <use xlink:href="#Roboto-Regular-48"/>
      <use x="56.298828" xlink:href="#Roboto-Regular-46"/>
      <use x="83.056641" xlink:href="#Roboto-Regular-50"/>
      <use x="139.355469" xlink:href="#Roboto-Regular-37"/>
     </g>
    </g>
    <g id="line2d_27">
     <path d="M 208.720937 258.571875 
L 228.720937 258.571875 
" style="fill:none;stroke:#d62728;stroke-linecap:round;stroke-width:1.5;"/>
    </g>
    <g id="line2d_28"/>
    <g id="text_20">
     <!-- 0.5% -->
     <defs>
      <path d="M 8.546875 31.59375 
L 12.640625 71.09375 
L 48.25 71.09375 
L 48.25 62.546875 
L 20.75 62.546875 
L 18.453125 42.09375 
Q 20.75 43.796875 23.53125 44.890625 
Q 26.3125 46 29.890625 46.046875 
Q 39.75 46.140625 45.328125 39.859375 
Q 50.921875 33.59375 50.921875 22.65625 
Q 50.921875 11.96875 45.1875 5.46875 
Q 39.453125 -1.03125 28.46875 -1.03125 
Q 19.4375 -1.03125 13.421875 3.90625 
Q 7.421875 8.84375 7.671875 18.40625 
L 7.765625 18.703125 
L 16.453125 18.703125 
Q 16.453125 12.890625 19.796875 9.6875 
Q 23.140625 6.5 28.46875 6.5 
Q 34.578125 6.5 37.9375 10.796875 
Q 41.3125 15.09375 41.3125 22.5625 
Q 41.3125 29.34375 37.90625 33.546875 
Q 34.515625 37.75 28.46875 37.75 
Q 22.796875 37.75 20.25 36.03125 
Q 17.71875 34.328125 16.5 30.765625 
z
" id="Roboto-Regular-53"/>
     </defs>
     <g style="fill:#212121;" transform="translate(236.720937 262.071875)scale(0.1 -0.1)">
      <use xlink:href="#Roboto-Regular-48"/>
      <use x="56.298828" xlink:href="#Roboto-Regular-46"/>
      <use x="83.056641" xlink:href="#Roboto-Regular-53"/>
      <use x="139.355469" xlink:href="#Roboto-Regular-37"/>
     </g>
    </g>
    <g id="line2d_29">
     <path d="M 208.720937 273.220312 
L 228.720937 273.220312 
" style="fill:none;stroke:#9467bd;stroke-linecap:round;stroke-width:1.5;"/>
    </g>
    <g id="line2d_30"/>
    <g id="text_21">
     <!-- 1.0% -->
     <g style="fill:#212121;" transform="translate(236.720937 276.720312)scale(0.1 -0.1)">
      <use xlink:href="#Roboto-Regular-49"/>
      <use x="56.298828" xlink:href="#Roboto-Regular-46"/>
      <use x="83.056641" xlink:href="#Roboto-Regular-48"/>
      <use x="139.355469" xlink:href="#Roboto-Regular-37"/>
     </g>
    </g>
    <g id="line2d_31">
     <path d="M 208.720937 287.86875 
L 228.720937 287.86875 
" style="fill:none;stroke:#8c564b;stroke-linecap:round;stroke-width:1.5;"/>
    </g>
    <g id="line2d_32"/>
    <g id="text_22">
     <!-- 5.0% -->
     <g style="fill:#212121;" transform="translate(236.720937 291.36875)scale(0.1 -0.1)">
      <use xlink:href="#Roboto-Regular-53"/>
      <use x="56.298828" xlink:href="#Roboto-Regular-46"/>
      <use x="83.056641" xlink:href="#Roboto-Regular-48"/>
      <use x="139.355469" xlink:href="#Roboto-Regular-37"/>
     </g>
    </g>
   </g>
  </g>
 </g>
 <defs>
  <clipPath id="pc6f6862cb0">
   <rect height="260.928" width="357.12" x="57.6" y="41.472"/>
  </clipPath>
 </defs>
</svg>
