<?xml version="1.0" encoding="utf-8" standalone="no"?>
<!DOCTYPE svg PUBLIC "-//W3C//DTD SVG 1.1//EN"
  "http://www.w3.org/Graphics/SVG/1.1/DTD/svg11.dtd">
<!-- Created with matplotlib (https://matplotlib.org/) -->
<svg height="345.6pt" version="1.1" viewBox="0 0 460.8 345.6" width="460.8pt" xmlns="http://www.w3.org/2000/svg" xmlns:xlink="http://www.w3.org/1999/xlink">
 <defs>
  <style type="text/css">
*{stroke-linecap:butt;stroke-linejoin:round;}
  </style>
 </defs>
 <g id="figure_1">
  <g id="patch_1">
   <path d="M 0 345.6 
L 460.8 345.6 
L 460.8 0 
L 0 0 
z
" style="fill:#ffffff;"/>
  </g>
  <g id="axes_1">
   <g id="patch_2">
    <path d="M 57.6 302.4 
L 414.72 302.4 
L 414.72 41.472 
L 57.6 41.472 
z
" style="fill:#ffffff;"/>
   </g>
   <g id="matplotlib.axis_1">
    <g id="xtick_1">
     <g id="line2d_1">
      <path clip-path="url(#p617fa51903)" d="M 73.832727 302.4 
L 73.832727 41.472 
" style="fill:none;stroke:#eeeeee;stroke-linecap:round;stroke-width:0.8;"/>
     </g>
     <g id="text_1">
      <!-- 0% -->
      <defs>
       <path d="M 50.78125 25.09375 
Q 50.78125 13.03125 44.65625 6 
Q 38.53125 -1.03125 28.171875 -1.03125 
Q 17.875 -1.03125 11.6875 6 
Q 5.515625 13.03125 5.515625 25.09375 
L 5.515625 46 
Q 5.515625 57.953125 11.640625 65.03125 
Q 17.78125 72.125 28.078125 72.125 
Q 38.421875 72.125 44.59375 65.03125 
Q 50.78125 57.953125 50.78125 46 
z
M 41.15625 48 
Q 41.15625 55.671875 37.734375 60.109375 
Q 34.328125 64.546875 28.078125 64.546875 
Q 21.875 64.546875 18.5 60.109375 
Q 15.140625 55.671875 15.140625 48 
L 15.140625 23.140625 
Q 15.140625 15.484375 18.578125 10.984375 
Q 22.015625 6.5 28.171875 6.5 
Q 34.421875 6.5 37.78125 10.96875 
Q 41.15625 15.4375 41.15625 23.140625 
z
" id="Roboto-Regular-48"/>
       <path d="M 5.078125 57.421875 
Q 5.078125 63.625 9.078125 67.875 
Q 13.09375 72.125 19.78125 72.125 
Q 26.46875 72.125 30.46875 67.890625 
Q 34.46875 63.671875 34.46875 57.421875 
L 34.46875 53.65625 
Q 34.46875 47.46875 30.484375 43.265625 
Q 26.515625 39.0625 19.875 39.0625 
Q 13.140625 39.0625 9.109375 43.265625 
Q 5.078125 47.46875 5.078125 53.65625 
z
M 12.203125 53.65625 
Q 12.203125 50.046875 14.171875 47.53125 
Q 16.15625 45.015625 19.875 45.015625 
Q 23.4375 45.015625 25.390625 47.5 
Q 27.34375 50 27.34375 53.65625 
L 27.34375 57.421875 
Q 27.34375 61.03125 25.359375 63.59375 
Q 23.390625 66.15625 19.78125 66.15625 
Q 16.109375 66.15625 14.15625 63.59375 
Q 12.203125 61.03125 12.203125 57.421875 
z
M 39.5 17.4375 
Q 39.5 23.640625 43.5 27.859375 
Q 47.515625 32.078125 54.203125 32.078125 
Q 60.84375 32.078125 64.859375 27.859375 
Q 68.890625 23.640625 68.890625 17.4375 
L 68.890625 13.625 
Q 68.890625 7.375 64.890625 3.171875 
Q 60.890625 -1.03125 54.296875 -1.03125 
Q 47.5625 -1.03125 43.53125 3.171875 
Q 39.5 7.375 39.5 13.625 
z
M 46.625 13.625 
Q 46.625 9.96875 48.609375 7.453125 
Q 50.59375 4.9375 54.296875 4.9375 
Q 57.859375 4.9375 59.8125 7.453125 
Q 61.765625 9.96875 61.765625 13.625 
L 61.765625 17.4375 
Q 61.765625 21.046875 59.765625 23.578125 
Q 57.765625 26.125 54.203125 26.125 
Q 50.59375 26.125 48.609375 23.578125 
Q 46.625 21.046875 46.625 17.4375 
z
M 22.359375 5.375 
L 17.046875 8.640625 
L 51.765625 64.203125 
L 57.078125 60.9375 
z
" id="Roboto-Regular-37"/>
      </defs>
      <g style="fill:#757575;" transform="translate(67.360852 317.017187)scale(0.1 -0.1)">
       <use xlink:href="#Roboto-Regular-48"/>
       <use x="56.298828" xlink:href="#Roboto-Regular-37"/>
      </g>
     </g>
    </g>
    <g id="xtick_2">
     <g id="line2d_2">
      <path clip-path="url(#p617fa51903)" d="M 138.763636 302.4 
L 138.763636 41.472 
" style="fill:none;stroke:#eeeeee;stroke-linecap:round;stroke-width:0.8;"/>
     </g>
     <g id="text_2">
      <!-- 20% -->
      <defs>
       <path d="M 51.46875 0 
L 7.328125 0 
L 7.328125 6.59375 
L 29.640625 33.203125 
Q 35.59375 40.4375 37.71875 44.703125 
Q 39.84375 48.96875 39.84375 53.328125 
Q 39.84375 58.25 36.953125 61.390625 
Q 34.078125 64.546875 29 64.546875 
Q 22.703125 64.546875 19.40625 60.6875 
Q 16.109375 56.84375 16.109375 51.078125 
L 6.84375 51.078125 
L 6.734375 51.375 
Q 6.5 60.0625 12.546875 66.09375 
Q 18.609375 72.125 29 72.125 
Q 38.53125 72.125 44 66.84375 
Q 49.46875 61.578125 49.46875 53.21875 
Q 49.46875 47.609375 46.359375 42.234375 
Q 43.265625 36.859375 36.921875 28.765625 
L 19 7.765625 
L 19.09375 7.515625 
L 51.46875 7.515625 
z
" id="Roboto-Regular-50"/>
      </defs>
      <g style="fill:#757575;" transform="translate(129.476918 317.017187)scale(0.1 -0.1)">
       <use xlink:href="#Roboto-Regular-50"/>
       <use x="56.298828" xlink:href="#Roboto-Regular-48"/>
       <use x="112.597656" xlink:href="#Roboto-Regular-37"/>
      </g>
     </g>
    </g>
    <g id="xtick_3">
     <g id="line2d_3">
      <path clip-path="url(#p617fa51903)" d="M 203.694545 302.4 
L 203.694545 41.472 
" style="fill:none;stroke:#eeeeee;stroke-linecap:round;stroke-width:0.8;"/>
     </g>
     <g id="text_3">
      <!-- 40% -->
      <defs>
       <path d="M 43.609375 23.921875 
L 53.421875 23.921875 
L 53.421875 16.40625 
L 43.609375 16.40625 
L 43.609375 0 
L 34.03125 0 
L 34.03125 16.40625 
L 3.515625 16.40625 
L 3.515625 21.828125 
L 33.453125 71.09375 
L 43.609375 71.09375 
z
M 13.8125 23.921875 
L 34.03125 23.921875 
L 34.03125 57.28125 
L 33.734375 57.328125 
L 32.8125 54.890625 
z
" id="Roboto-Regular-52"/>
      </defs>
      <g style="fill:#757575;" transform="translate(194.407827 317.017187)scale(0.1 -0.1)">
       <use xlink:href="#Roboto-Regular-52"/>
       <use x="56.298828" xlink:href="#Roboto-Regular-48"/>
       <use x="112.597656" xlink:href="#Roboto-Regular-37"/>
      </g>
     </g>
    </g>
    <g id="xtick_4">
     <g id="line2d_4">
      <path clip-path="url(#p617fa51903)" d="M 268.625455 302.4 
L 268.625455 41.472 
" style="fill:none;stroke:#eeeeee;stroke-linecap:round;stroke-width:0.8;"/>
     </g>
     <g id="text_4">
      <!-- 60% -->
      <defs>
       <path d="M 31.296875 72.125 
Q 35.5 72.125 39.59375 71.28125 
Q 43.703125 70.453125 46.390625 69.1875 
L 44.34375 61.8125 
Q 41.546875 63.03125 38.46875 63.78125 
Q 35.40625 64.546875 31.296875 64.546875 
Q 24.609375 64.546875 20.4375 58.828125 
Q 16.265625 53.125 16.265625 44.390625 
L 16.265625 38.875 
Q 19.234375 41.84375 23.3125 43.546875 
Q 27.390625 45.265625 32.078125 45.265625 
Q 41.265625 45.265625 46.609375 39.109375 
Q 51.953125 32.953125 51.953125 22.953125 
Q 51.953125 12.015625 45.96875 5.484375 
Q 39.984375 -1.03125 29.828125 -1.03125 
Q 19.96875 -1.03125 13.328125 6.46875 
Q 6.6875 13.96875 6.6875 26.953125 
L 6.6875 43.3125 
Q 6.6875 55.8125 13.796875 63.96875 
Q 20.90625 72.125 31.296875 72.125 
z
M 29 38.09375 
Q 24.46875 38.09375 21.21875 36.15625 
Q 17.96875 34.234375 16.265625 30.953125 
L 16.265625 26.03125 
Q 16.265625 17 20.1875 11.75 
Q 24.125 6.5 29.828125 6.5 
Q 35.84375 6.5 39.078125 11.0625 
Q 42.328125 15.625 42.328125 22.953125 
Q 42.328125 29.890625 38.84375 33.984375 
Q 35.359375 38.09375 29 38.09375 
z
" id="Roboto-Regular-54"/>
      </defs>
      <g style="fill:#757575;" transform="translate(259.338736 317.017187)scale(0.1 -0.1)">
       <use xlink:href="#Roboto-Regular-54"/>
       <use x="56.298828" xlink:href="#Roboto-Regular-48"/>
       <use x="112.597656" xlink:href="#Roboto-Regular-37"/>
      </g>
     </g>
    </g>
    <g id="xtick_5">
     <g id="line2d_5">
      <path clip-path="url(#p617fa51903)" d="M 333.556364 302.4 
L 333.556364 41.472 
" style="fill:none;stroke:#eeeeee;stroke-linecap:round;stroke-width:0.8;"/>
     </g>
     <g id="text_5">
      <!-- 80% -->
      <defs>
       <path d="M 49.3125 52.9375 
Q 49.3125 47.359375 46.1875 43.140625 
Q 43.0625 38.921875 37.890625 36.8125 
Q 43.953125 34.71875 47.609375 30.125 
Q 51.265625 25.53125 51.265625 19.53125 
Q 51.265625 9.71875 44.890625 4.34375 
Q 38.53125 -1.03125 28.65625 -1.03125 
Q 18.21875 -1.03125 11.59375 4.34375 
Q 4.984375 9.71875 4.984375 19.53125 
Q 4.984375 25.53125 8.71875 30.125 
Q 12.453125 34.71875 18.796875 36.859375 
Q 13.328125 38.921875 10.15625 43.140625 
Q 6.984375 47.359375 6.984375 52.9375 
Q 6.984375 62.25 12.96875 67.1875 
Q 18.953125 72.125 28.5625 72.125 
Q 37.640625 72.125 43.46875 67.15625 
Q 49.3125 62.203125 49.3125 52.9375 
z
M 41.703125 19.734375 
Q 41.703125 25.53125 37.90625 29.296875 
Q 34.125 33.0625 28.5625 33.0625 
Q 22.515625 33.0625 18.546875 29.296875 
Q 14.59375 25.53125 14.59375 19.734375 
Q 14.59375 13.71875 18.53125 10.109375 
Q 22.46875 6.5 28.65625 6.5 
Q 34.234375 6.5 37.96875 10.125 
Q 41.703125 13.765625 41.703125 19.734375 
z
M 39.703125 52.78125 
Q 39.703125 57.90625 36.5 61.21875 
Q 33.296875 64.546875 28.5625 64.546875 
Q 23.34375 64.546875 19.96875 61.34375 
Q 16.609375 58.15625 16.609375 52.78125 
Q 16.609375 47.359375 20.015625 43.984375 
Q 23.4375 40.625 28.65625 40.625 
Q 33.40625 40.625 36.546875 43.984375 
Q 39.703125 47.359375 39.703125 52.78125 
z
" id="Roboto-Regular-56"/>
      </defs>
      <g style="fill:#757575;" transform="translate(324.269645 317.017187)scale(0.1 -0.1)">
       <use xlink:href="#Roboto-Regular-56"/>
       <use x="56.298828" xlink:href="#Roboto-Regular-48"/>
       <use x="112.597656" xlink:href="#Roboto-Regular-37"/>
      </g>
     </g>
    </g>
    <g id="xtick_6">
     <g id="line2d_6">
      <path clip-path="url(#p617fa51903)" d="M 398.487273 302.4 
L 398.487273 41.472 
" style="fill:none;stroke:#eeeeee;stroke-linecap:round;stroke-width:0.8;"/>
     </g>
     <g id="text_6">
      <!-- 100% -->
      <defs>
       <path d="M 34.671875 0 
L 25 0 
L 25 62.203125 
L 9.515625 62.0625 
L 9.515625 69.484375 
L 34.671875 72.125 
z
" id="Roboto-Regular-49"/>
      </defs>
      <g style="fill:#757575;" transform="translate(386.38571 317.017187)scale(0.1 -0.1)">
       <use xlink:href="#Roboto-Regular-49"/>
       <use x="56.298828" xlink:href="#Roboto-Regular-48"/>
       <use x="112.597656" xlink:href="#Roboto-Regular-48"/>
       <use x="168.896484" xlink:href="#Roboto-Regular-37"/>
      </g>
     </g>
    </g>
    <g id="text_7">
     <!-- Percent of households to which transfer is targeted -->
     <defs>
      <path d="M 17.578125 28.515625 
L 17.578125 0 
L 7.953125 0 
L 7.953125 71.09375 
L 35.15625 71.09375 
Q 46.53125 71.09375 52.859375 65.234375 
Q 59.1875 59.375 59.1875 49.8125 
Q 59.1875 40.140625 52.859375 34.328125 
Q 46.53125 28.515625 35.15625 28.515625 
z
M 17.578125 36.03125 
L 35.15625 36.03125 
Q 42.390625 36.03125 45.953125 39.90625 
Q 49.515625 43.796875 49.515625 49.703125 
Q 49.515625 55.609375 45.921875 59.5625 
Q 42.328125 63.53125 35.15625 63.53125 
L 17.578125 63.53125 
z
" id="Roboto-Regular-80"/>
      <path d="M 29.890625 -1.03125 
Q 18.0625 -1.03125 11.390625 6.265625 
Q 4.734375 13.578125 4.734375 25.390625 
L 4.734375 27.546875 
Q 4.734375 38.921875 11.296875 46.359375 
Q 17.875 53.8125 27.34375 53.8125 
Q 37.9375 53.8125 43.234375 47.21875 
Q 48.53125 40.625 48.53125 29.6875 
L 48.53125 24.609375 
L 14.75 24.609375 
L 14.65625 24.359375 
Q 14.59375 16.453125 18.375 11.46875 
Q 22.171875 6.5 29.890625 6.5 
Q 34.671875 6.5 37.5 7.5 
Q 40.328125 8.5 44.1875 10.546875 
L 46.578125 3.765625 
Q 43.953125 1.859375 40.15625 0.40625 
Q 36.375 -1.03125 29.890625 -1.03125 
z
M 27.34375 46.234375 
Q 22.3125 46.234375 19.015625 42.359375 
Q 15.71875 38.484375 14.984375 32.421875 
L 15.09375 32.171875 
L 38.921875 32.171875 
L 38.921875 32.953125 
Q 38.921875 38.71875 36.078125 42.46875 
Q 33.25 46.234375 27.34375 46.234375 
z
" id="Roboto-Regular-101"/>
      <path d="M 31.984375 44.34375 
L 27.046875 44.625 
Q 23.25 44.625 20.625 42.8125 
Q 18.015625 41.015625 16.609375 37.75 
L 16.609375 0 
L 6.984375 0 
L 6.984375 52.828125 
L 15.578125 52.828125 
L 16.265625 44.625 
Q 18.453125 48.921875 21.828125 51.359375 
Q 25.203125 53.8125 29.640625 53.8125 
Q 30.71875 53.8125 31.6875 53.640625 
Q 32.671875 53.46875 33.296875 53.265625 
z
" id="Roboto-Regular-114"/>
      <path d="M 27.984375 6.5 
Q 32.421875 6.5 35.734375 9.453125 
Q 39.0625 12.40625 39.0625 16.703125 
L 47.75 16.703125 
L 47.90625 16.40625 
Q 48.09375 9.578125 42.03125 4.265625 
Q 35.984375 -1.03125 27.984375 -1.03125 
Q 16.84375 -1.03125 10.78125 6.53125 
Q 4.734375 14.109375 4.734375 25.390625 
L 4.734375 27.4375 
Q 4.734375 38.625 10.8125 46.21875 
Q 16.890625 53.8125 27.984375 53.8125 
Q 36.8125 53.8125 42.453125 48.34375 
Q 48.09375 42.875 47.90625 34.90625 
L 47.796875 34.625 
L 39.0625 34.625 
Q 39.0625 39.453125 35.90625 42.84375 
Q 32.765625 46.234375 27.984375 46.234375 
Q 20.90625 46.234375 17.65625 40.734375 
Q 14.40625 35.25 14.40625 27.4375 
L 14.40625 25.390625 
Q 14.40625 17.4375 17.59375 11.96875 
Q 20.796875 6.5 27.984375 6.5 
z
" id="Roboto-Regular-99"/>
      <path d="M 15.578125 52.828125 
L 16.265625 44.96875 
Q 18.890625 49.171875 22.875 51.484375 
Q 26.859375 53.8125 31.9375 53.8125 
Q 40.484375 53.8125 45.171875 48.796875 
Q 49.859375 43.796875 49.859375 33.34375 
L 49.859375 0 
L 40.234375 0 
L 40.234375 33.15625 
Q 40.234375 40.140625 37.46875 43.0625 
Q 34.71875 46 29.046875 46 
Q 24.609375 46 21.5 44.21875 
Q 18.40625 42.4375 16.609375 39.203125 
L 16.609375 0 
L 6.984375 0 
L 6.984375 52.828125 
z
" id="Roboto-Regular-110"/>
      <path d="M 19.234375 65.578125 
L 19.234375 52.828125 
L 29.25 52.828125 
L 29.25 45.703125 
L 19.234375 45.703125 
L 19.234375 13.625 
Q 19.234375 9.90625 20.765625 8.390625 
Q 22.3125 6.890625 24.859375 6.890625 
Q 25.6875 6.890625 26.6875 7.078125 
Q 27.6875 7.28125 28.46875 7.5625 
L 29.78125 0.984375 
Q 28.65625 0.09375 26.5625 -0.46875 
Q 24.46875 -1.03125 22.40625 -1.03125 
Q 16.609375 -1.03125 13.109375 2.515625 
Q 9.625 6.0625 9.625 13.625 
L 9.625 45.703125 
L 1.265625 45.703125 
L 1.265625 52.828125 
L 9.625 52.828125 
L 9.625 65.578125 
z
" id="Roboto-Regular-116"/>
      <path id="Roboto-Regular-32"/>
      <path d="M 4.734375 26.90625 
Q 4.734375 38.625 11.078125 46.21875 
Q 17.4375 53.8125 28.328125 53.8125 
Q 39.3125 53.8125 45.671875 46.234375 
Q 52.046875 38.671875 52.046875 26.90625 
L 52.046875 25.828125 
Q 52.046875 14.015625 45.703125 6.484375 
Q 39.359375 -1.03125 28.421875 -1.03125 
Q 17.484375 -1.03125 11.109375 6.515625 
Q 4.734375 14.0625 4.734375 25.828125 
z
M 14.359375 25.828125 
Q 14.359375 17.4375 17.890625 11.96875 
Q 21.4375 6.5 28.421875 6.5 
Q 35.296875 6.5 38.859375 11.96875 
Q 42.4375 17.4375 42.4375 25.828125 
L 42.4375 26.90625 
Q 42.4375 35.203125 38.84375 40.71875 
Q 35.25 46.234375 28.328125 46.234375 
Q 21.4375 46.234375 17.890625 40.71875 
Q 14.359375 35.203125 14.359375 26.90625 
z
" id="Roboto-Regular-111"/>
      <path d="M 9.671875 0 
L 9.671875 45.703125 
L 1.375 45.703125 
L 1.375 52.828125 
L 9.671875 52.828125 
L 9.671875 59.515625 
Q 9.671875 67.96875 14.0625 72.578125 
Q 18.453125 77.203125 26.375 77.203125 
Q 28.03125 77.203125 29.703125 76.921875 
Q 31.390625 76.65625 33.453125 76.171875 
L 32.28125 68.84375 
Q 31.390625 69.046875 30.140625 69.1875 
Q 28.90625 69.34375 27.59375 69.34375 
Q 23.34375 69.34375 21.3125 66.828125 
Q 19.28125 64.3125 19.28125 59.515625 
L 19.28125 52.828125 
L 28.859375 52.828125 
L 28.859375 45.703125 
L 19.28125 45.703125 
L 19.28125 0 
z
" id="Roboto-Regular-102"/>
      <path d="M 16.609375 45.75 
Q 19.34375 49.5625 23.3125 51.6875 
Q 27.296875 53.8125 32.125 53.8125 
Q 40.578125 53.8125 45.28125 48.734375 
Q 50 43.65625 50 33.109375 
L 50 0 
L 40.375 0 
L 40.375 33.203125 
Q 40.375 39.75 37.5625 42.875 
Q 34.765625 46 29.203125 46 
Q 24.90625 46 21.734375 44.3125 
Q 18.5625 42.625 16.609375 39.59375 
L 16.609375 0 
L 6.984375 0 
L 6.984375 76.171875 
L 16.609375 76.171875 
z
" id="Roboto-Regular-104"/>
      <path d="M 40.53125 7.859375 
Q 38.03125 3.609375 34.09375 1.28125 
Q 30.171875 -1.03125 25.09375 -1.03125 
Q 16.453125 -1.03125 11.609375 4.484375 
Q 6.78125 10.015625 6.78125 21.6875 
L 6.78125 52.828125 
L 16.40625 52.828125 
L 16.40625 21.578125 
Q 16.40625 13.140625 18.890625 9.953125 
Q 21.390625 6.78125 26.65625 6.78125 
Q 31.78125 6.78125 35.125 8.875 
Q 38.484375 10.984375 40.1875 14.84375 
L 40.1875 52.828125 
L 49.8125 52.828125 
L 49.8125 0 
L 41.15625 0 
z
" id="Roboto-Regular-117"/>
      <path d="M 37.703125 14.203125 
Q 37.703125 17.390625 35.28125 19.390625 
Q 32.859375 21.390625 26.125 22.90625 
Q 16.796875 24.90625 11.78125 28.515625 
Q 6.78125 32.125 6.78125 38.1875 
Q 6.78125 44.625 12.28125 49.21875 
Q 17.78125 53.8125 26.515625 53.8125 
Q 35.5 53.8125 41.0625 48.921875 
Q 46.625 44.046875 46.390625 37.546875 
L 46.296875 37.25 
L 37.109375 37.25 
Q 37.109375 40.671875 34.109375 43.453125 
Q 31.109375 46.234375 26.515625 46.234375 
Q 21.4375 46.234375 18.921875 43.9375 
Q 16.40625 41.65625 16.40625 38.484375 
Q 16.40625 35.359375 18.578125 33.640625 
Q 20.75 31.9375 27.546875 30.515625 
Q 37.25 28.46875 42.28125 24.703125 
Q 47.3125 20.953125 47.3125 14.890625 
Q 47.3125 7.859375 41.625 3.40625 
Q 35.9375 -1.03125 26.765625 -1.03125 
Q 16.65625 -1.03125 10.84375 4.09375 
Q 5.03125 9.234375 5.328125 16.0625 
L 5.421875 16.359375 
L 14.59375 16.359375 
Q 14.84375 11.234375 18.40625 8.859375 
Q 21.96875 6.5 26.765625 6.5 
Q 31.890625 6.5 34.796875 8.671875 
Q 37.703125 10.84375 37.703125 14.203125 
z
" id="Roboto-Regular-115"/>
      <path d="M 17.390625 0 
L 7.765625 0 
L 7.765625 76.171875 
L 17.390625 76.171875 
z
" id="Roboto-Regular-108"/>
      <path d="M 4.78125 25.4375 
Q 4.78125 38.1875 10.21875 46 
Q 15.671875 53.8125 25.484375 53.8125 
Q 30.125 53.8125 33.71875 52.09375 
Q 37.3125 50.390625 39.84375 47.125 
L 39.84375 76.171875 
L 49.46875 76.171875 
L 49.46875 0 
L 42.09375 0 
L 40.625 6.6875 
Q 38.03125 2.875 34.21875 0.921875 
Q 30.421875 -1.03125 25.390625 -1.03125 
Q 15.71875 -1.03125 10.25 5.96875 
Q 4.78125 12.984375 4.78125 24.421875 
z
M 14.40625 24.421875 
Q 14.40625 16.40625 17.671875 11.59375 
Q 20.953125 6.78125 27.828125 6.78125 
Q 32.125 6.78125 35.046875 8.734375 
Q 37.984375 10.6875 39.84375 14.203125 
L 39.84375 38.875 
Q 37.984375 42.140625 35.03125 44.0625 
Q 32.078125 46 27.9375 46 
Q 21 46 17.703125 40.28125 
Q 14.40625 34.578125 14.40625 25.4375 
z
" id="Roboto-Regular-100"/>
      <path d="M 20.515625 19.234375 
L 21.734375 12.453125 
L 22.015625 12.453125 
L 23.296875 19.234375 
L 33.84375 52.828125 
L 41.546875 52.828125 
L 52.15625 19.234375 
L 53.515625 11.671875 
L 53.8125 11.671875 
L 55.375 19.234375 
L 63.1875 52.828125 
L 73.25 52.828125 
L 57.90625 0 
L 50.140625 0 
L 39.703125 32.171875 
L 37.703125 40.578125 
L 37.40625 40.578125 
L 35.546875 32.171875 
L 25.296875 0 
L 17.53125 0 
L 2.203125 52.828125 
L 12.203125 52.828125 
z
" id="Roboto-Regular-119"/>
      <path d="M 17.390625 0 
L 7.765625 0 
L 7.765625 52.828125 
L 17.390625 52.828125 
z
M 17.390625 66.359375 
L 7.765625 66.359375 
L 7.765625 76.171875 
L 17.390625 76.171875 
z
" id="Roboto-Regular-105"/>
      <path d="M 39.453125 0 
Q 38.96875 2.390625 38.6875 4.21875 
Q 38.421875 6.0625 38.375 7.90625 
Q 35.6875 4.109375 31.359375 1.53125 
Q 27.046875 -1.03125 22.078125 -1.03125 
Q 13.8125 -1.03125 9.484375 3.1875 
Q 5.171875 7.421875 5.171875 14.84375 
Q 5.171875 22.40625 11.296875 26.671875 
Q 17.4375 30.953125 27.9375 30.953125 
L 38.375 30.953125 
L 38.375 36.1875 
Q 38.375 40.828125 35.546875 43.53125 
Q 32.71875 46.234375 27.546875 46.234375 
Q 22.859375 46.234375 19.96875 43.890625 
Q 17.09375 41.546875 17.09375 38.28125 
L 7.953125 38.1875 
L 7.859375 38.484375 
Q 7.515625 44.234375 13.25 49.015625 
Q 19 53.8125 28.078125 53.8125 
Q 37.0625 53.8125 42.53125 49.234375 
Q 48 44.671875 48 36.078125 
L 48 10.640625 
Q 48 7.8125 48.28125 5.171875 
Q 48.578125 2.546875 49.359375 0 
z
M 23.484375 7.03125 
Q 28.71875 7.03125 32.90625 9.71875 
Q 37.109375 12.40625 38.375 15.875 
L 38.375 24.46875 
L 27.59375 24.46875 
Q 21.78125 24.46875 18.28125 21.53125 
Q 14.796875 18.609375 14.796875 14.65625 
Q 14.796875 11.140625 16.984375 9.078125 
Q 19.1875 7.03125 23.484375 7.03125 
z
" id="Roboto-Regular-97"/>
      <path d="M 5.28125 25.4375 
Q 5.28125 38.1875 10.71875 46 
Q 16.15625 53.8125 25.921875 53.8125 
Q 30.953125 53.8125 34.765625 51.78125 
Q 38.578125 49.75 41.15625 45.953125 
L 42.328125 52.828125 
L 50 52.828125 
L 50 -0.296875 
Q 50 -10.453125 44.09375 -15.890625 
Q 38.1875 -21.34375 27.046875 -21.34375 
Q 23.25 -21.34375 18.828125 -20.28125 
Q 14.40625 -19.234375 11.03125 -17.4375 
L 12.5 -9.96875 
Q 15.28125 -11.421875 19.203125 -12.328125 
Q 23.140625 -13.234375 26.953125 -13.234375 
Q 33.984375 -13.234375 37.171875 -10.03125 
Q 40.375 -6.84375 40.375 -0.296875 
L 40.375 5.71875 
Q 37.796875 2.390625 34.171875 0.671875 
Q 30.5625 -1.03125 25.828125 -1.03125 
Q 16.15625 -1.03125 10.71875 5.96875 
Q 5.28125 12.984375 5.28125 24.421875 
z
M 14.890625 24.421875 
Q 14.890625 16.453125 18.15625 11.609375 
Q 21.4375 6.78125 28.265625 6.78125 
Q 32.625 6.78125 35.546875 8.765625 
Q 38.484375 10.75 40.375 14.359375 
L 40.375 38.671875 
Q 38.53125 42.046875 35.546875 44.015625 
Q 32.5625 46 28.375 46 
Q 21.484375 46 18.1875 40.28125 
Q 14.890625 34.578125 14.890625 25.4375 
z
" id="Roboto-Regular-103"/>
     </defs>
     <g style="fill:#757575;" transform="translate(122.025625 330.76875)scale(0.1 -0.1)">
      <use xlink:href="#Roboto-Regular-80"/>
      <use x="63.216797" xlink:href="#Roboto-Regular-101"/>
      <use x="115.560547" xlink:href="#Roboto-Regular-114"/>
      <use x="150.554688" xlink:href="#Roboto-Regular-99"/>
      <use x="202.898438" xlink:href="#Roboto-Regular-101"/>
      <use x="255.242188" xlink:href="#Roboto-Regular-110"/>
      <use x="312.078125" xlink:href="#Roboto-Regular-116"/>
      <use x="343.962891" xlink:href="#Roboto-Regular-32"/>
      <use x="368.816406" xlink:href="#Roboto-Regular-111"/>
      <use x="425.652344" xlink:href="#Roboto-Regular-102"/>
      <use x="456.121094" xlink:href="#Roboto-Regular-32"/>
      <use x="480.974609" xlink:href="#Roboto-Regular-104"/>
      <use x="537.810547" xlink:href="#Roboto-Regular-111"/>
      <use x="594.646484" xlink:href="#Roboto-Regular-117"/>
      <use x="651.482422" xlink:href="#Roboto-Regular-115"/>
      <use x="703.777344" xlink:href="#Roboto-Regular-101"/>
      <use x="756.121094" xlink:href="#Roboto-Regular-104"/>
      <use x="812.957031" xlink:href="#Roboto-Regular-111"/>
      <use x="869.792969" xlink:href="#Roboto-Regular-108"/>
      <use x="894.988281" xlink:href="#Roboto-Regular-100"/>
      <use x="951.824219" xlink:href="#Roboto-Regular-115"/>
      <use x="1004.119141" xlink:href="#Roboto-Regular-32"/>
      <use x="1028.972656" xlink:href="#Roboto-Regular-116"/>
      <use x="1060.857422" xlink:href="#Roboto-Regular-111"/>
      <use x="1117.693359" xlink:href="#Roboto-Regular-32"/>
      <use x="1142.546875" xlink:href="#Roboto-Regular-119"/>
      <use x="1218.230469" xlink:href="#Roboto-Regular-104"/>
      <use x="1275.066406" xlink:href="#Roboto-Regular-105"/>
      <use x="1300.261719" xlink:href="#Roboto-Regular-99"/>
      <use x="1352.605469" xlink:href="#Roboto-Regular-104"/>
      <use x="1409.441406" xlink:href="#Roboto-Regular-32"/>
      <use x="1434.294922" xlink:href="#Roboto-Regular-116"/>
      <use x="1466.179688" xlink:href="#Roboto-Regular-114"/>
      <use x="1501.189453" xlink:href="#Roboto-Regular-97"/>
      <use x="1556.169922" xlink:href="#Roboto-Regular-110"/>
      <use x="1613.005859" xlink:href="#Roboto-Regular-115"/>
      <use x="1665.300781" xlink:href="#Roboto-Regular-102"/>
      <use x="1695.769531" xlink:href="#Roboto-Regular-101"/>
      <use x="1748.113281" xlink:href="#Roboto-Regular-114"/>
      <use x="1783.123047" xlink:href="#Roboto-Regular-32"/>
      <use x="1807.976562" xlink:href="#Roboto-Regular-105"/>
      <use x="1833.171875" xlink:href="#Roboto-Regular-115"/>
      <use x="1885.466797" xlink:href="#Roboto-Regular-32"/>
      <use x="1910.320312" xlink:href="#Roboto-Regular-116"/>
      <use x="1942.205078" xlink:href="#Roboto-Regular-97"/>
      <use x="1997.185547" xlink:href="#Roboto-Regular-114"/>
      <use x="2032.195312" xlink:href="#Roboto-Regular-103"/>
      <use x="2089.03125" xlink:href="#Roboto-Regular-101"/>
      <use x="2141.375" xlink:href="#Roboto-Regular-116"/>
      <use x="2173.259766" xlink:href="#Roboto-Regular-101"/>
      <use x="2225.603516" xlink:href="#Roboto-Regular-100"/>
     </g>
    </g>
   </g>
   <g id="matplotlib.axis_2">
    <g id="ytick_1">
     <g id="line2d_7">
      <path clip-path="url(#p617fa51903)" d="M 57.6 294.984561 
L 414.72 294.984561 
" style="fill:none;stroke:#eeeeee;stroke-linecap:round;stroke-width:0.8;"/>
     </g>
     <g id="text_8">
      <!-- $\mathdefault{-10^{3}}$ -->
      <defs>
       <path d="M 48.96875 31.640625 
L 8.203125 31.640625 
L 8.203125 39.203125 
L 48.96875 39.203125 
z
" id="Roboto-Regular-8722"/>
       <path d="M 28.265625 40.4375 
Q 34.71875 40.4375 37.375 43.625 
Q 40.046875 46.828125 40.046875 52.59375 
Q 40.046875 57.953125 37.140625 61.25 
Q 34.234375 64.546875 28.515625 64.546875 
Q 22.953125 64.546875 19.3125 61.109375 
Q 15.671875 57.671875 15.671875 52.484375 
L 6.5 52.484375 
L 6.34375 52.78125 
Q 6.109375 60.796875 12.40625 66.453125 
Q 18.703125 72.125 28.515625 72.125 
Q 38.421875 72.125 44.03125 67.109375 
Q 49.65625 62.109375 49.65625 52.390625 
Q 49.65625 47.40625 47.046875 43.296875 
Q 44.4375 39.203125 39.75 36.921875 
Q 45.125 34.765625 47.921875 30.390625 
Q 50.734375 26.03125 50.734375 19.828125 
Q 50.734375 10.0625 44.546875 4.515625 
Q 38.375 -1.03125 28.515625 -1.03125 
Q 19.4375 -1.03125 12.515625 4.3125 
Q 5.609375 9.671875 5.859375 18.453125 
L 5.953125 18.75 
L 15.140625 18.75 
Q 15.140625 13.578125 18.875 10.03125 
Q 22.609375 6.5 28.515625 6.5 
Q 34.375 6.5 37.734375 10.125 
Q 41.109375 13.765625 41.109375 19.625 
Q 41.109375 26.3125 38 29.625 
Q 34.90625 32.953125 28.265625 32.953125 
L 20.359375 32.953125 
L 20.359375 40.4375 
z
" id="Roboto-Regular-51"/>
      </defs>
      <g style="fill:#757575;" transform="translate(29.3 298.793155)scale(0.1 -0.1)">
       <use transform="translate(0 0.532813)" xlink:href="#Roboto-Regular-8722"/>
       <use transform="translate(57.128906 0.532813)" xlink:href="#Roboto-Regular-49"/>
       <use transform="translate(113.427734 0.532813)" xlink:href="#Roboto-Regular-48"/>
       <use transform="translate(170.651055 37.5125)scale(0.7)" xlink:href="#Roboto-Regular-51"/>
      </g>
     </g>
    </g>
    <g id="ytick_2">
     <g id="line2d_8">
      <path clip-path="url(#p617fa51903)" d="M 57.6 260.225495 
L 414.72 260.225495 
" style="fill:none;stroke:#eeeeee;stroke-linecap:round;stroke-width:0.8;"/>
     </g>
     <g id="text_9">
      <!-- $\mathdefault{-10^{2}}$ -->
      <g style="fill:#757575;" transform="translate(29.3 264.034089)scale(0.1 -0.1)">
       <use transform="translate(0 0.532813)" xlink:href="#Roboto-Regular-8722"/>
       <use transform="translate(57.128906 0.532813)" xlink:href="#Roboto-Regular-49"/>
       <use transform="translate(113.427734 0.532813)" xlink:href="#Roboto-Regular-48"/>
       <use transform="translate(170.651055 37.5125)scale(0.7)" xlink:href="#Roboto-Regular-50"/>
      </g>
     </g>
    </g>
    <g id="ytick_3">
     <g id="line2d_9">
      <path clip-path="url(#p617fa51903)" d="M 57.6 225.466429 
L 414.72 225.466429 
" style="fill:none;stroke:#eeeeee;stroke-linecap:round;stroke-width:0.8;"/>
     </g>
     <g id="text_10">
      <!-- $\mathdefault{-10^{1}}$ -->
      <g style="fill:#757575;" transform="translate(29.3 229.275022)scale(0.1 -0.1)">
       <use transform="translate(0 0.532813)" xlink:href="#Roboto-Regular-8722"/>
       <use transform="translate(57.128906 0.532813)" xlink:href="#Roboto-Regular-49"/>
       <use transform="translate(113.427734 0.532813)" xlink:href="#Roboto-Regular-48"/>
       <use transform="translate(170.651055 37.5125)scale(0.7)" xlink:href="#Roboto-Regular-49"/>
      </g>
     </g>
    </g>
    <g id="ytick_4">
     <g id="line2d_10">
      <path clip-path="url(#p617fa51903)" d="M 57.6 190.707362 
L 414.72 190.707362 
" style="fill:none;stroke:#eeeeee;stroke-linecap:round;stroke-width:0.8;"/>
     </g>
     <g id="text_11">
      <!-- $\mathdefault{-10^{0}}$ -->
      <g style="fill:#757575;" transform="translate(29.3 194.515956)scale(0.1 -0.1)">
       <use transform="translate(0 0.532813)" xlink:href="#Roboto-Regular-8722"/>
       <use transform="translate(57.128906 0.532813)" xlink:href="#Roboto-Regular-49"/>
       <use transform="translate(113.427734 0.532813)" xlink:href="#Roboto-Regular-48"/>
       <use transform="translate(170.651055 37.5125)scale(0.7)" xlink:href="#Roboto-Regular-48"/>
      </g>
     </g>
    </g>
    <g id="ytick_5">
     <g id="line2d_11">
      <path clip-path="url(#p617fa51903)" d="M 57.6 155.948296 
L 414.72 155.948296 
" style="fill:none;stroke:#eeeeee;stroke-linecap:round;stroke-width:0.8;"/>
     </g>
     <g id="text_12">
      <!-- $\mathdefault{-10^{-1}}$ -->
      <g style="fill:#757575;" transform="translate(25.3 159.75689)scale(0.1 -0.1)">
       <use transform="translate(0 0.532813)" xlink:href="#Roboto-Regular-8722"/>
       <use transform="translate(57.128906 0.532813)" xlink:href="#Roboto-Regular-49"/>
       <use transform="translate(113.427734 0.532813)" xlink:href="#Roboto-Regular-48"/>
       <use transform="translate(170.651055 37.5125)scale(0.7)" xlink:href="#Roboto-Regular-8722"/>
       <use transform="translate(210.641289 37.5125)scale(0.7)" xlink:href="#Roboto-Regular-49"/>
      </g>
     </g>
    </g>
    <g id="ytick_6">
     <g id="line2d_12">
      <path clip-path="url(#p617fa51903)" d="M 57.6 121.18923 
L 414.72 121.18923 
" style="fill:none;stroke:#eeeeee;stroke-linecap:round;stroke-width:0.8;"/>
     </g>
     <g id="text_13">
      <!-- $\mathdefault{-10^{-2}}$ -->
      <g style="fill:#757575;" transform="translate(25.3 124.997823)scale(0.1 -0.1)">
       <use transform="translate(0 0.532813)" xlink:href="#Roboto-Regular-8722"/>
       <use transform="translate(57.128906 0.532813)" xlink:href="#Roboto-Regular-49"/>
       <use transform="translate(113.427734 0.532813)" xlink:href="#Roboto-Regular-48"/>
       <use transform="translate(170.651055 37.5125)scale(0.7)" xlink:href="#Roboto-Regular-8722"/>
       <use transform="translate(210.641289 37.5125)scale(0.7)" xlink:href="#Roboto-Regular-50"/>
      </g>
     </g>
    </g>
    <g id="ytick_7">
     <g id="line2d_13">
      <path clip-path="url(#p617fa51903)" d="M 57.6 86.430163 
L 414.72 86.430163 
" style="fill:none;stroke:#eeeeee;stroke-linecap:round;stroke-width:0.8;"/>
     </g>
     <g id="text_14">
      <!-- $\mathdefault{-10^{-3}}$ -->
      <g style="fill:#757575;" transform="translate(25.3 90.238757)scale(0.1 -0.1)">
       <use transform="translate(0 0.532813)" xlink:href="#Roboto-Regular-8722"/>
       <use transform="translate(57.128906 0.532813)" xlink:href="#Roboto-Regular-49"/>
       <use transform="translate(113.427734 0.532813)" xlink:href="#Roboto-Regular-48"/>
       <use transform="translate(170.651055 37.5125)scale(0.7)" xlink:href="#Roboto-Regular-8722"/>
       <use transform="translate(210.641289 37.5125)scale(0.7)" xlink:href="#Roboto-Regular-51"/>
      </g>
     </g>
    </g>
    <g id="ytick_8">
     <g id="line2d_14">
      <path clip-path="url(#p617fa51903)" d="M 57.6 51.671097 
L 414.72 51.671097 
" style="fill:none;stroke:#eeeeee;stroke-linecap:round;stroke-width:0.8;"/>
     </g>
     <g id="text_15">
      <!-- $\mathdefault{-10^{-4}}$ -->
      <g style="fill:#757575;" transform="translate(25.3 55.479691)scale(0.1 -0.1)">
       <use transform="translate(0 0.254688)" xlink:href="#Roboto-Regular-8722"/>
       <use transform="translate(57.128906 0.254688)" xlink:href="#Roboto-Regular-49"/>
       <use transform="translate(113.427734 0.254688)" xlink:href="#Roboto-Regular-48"/>
       <use transform="translate(170.651055 37.234375)scale(0.7)" xlink:href="#Roboto-Regular-8722"/>
       <use transform="translate(210.641289 37.234375)scale(0.7)" xlink:href="#Roboto-Regular-52"/>
      </g>
     </g>
    </g>
   </g>
   <g id="line2d_15">
    <path clip-path="url(#p617fa51903)" d="M 73.832727 290.539636 
L 77.079273 282.093468 
L 80.325818 270.63846 
L 83.572364 260.008107 
L 86.818909 252.897827 
L 90.065455 246.961332 
L 93.312 242.06343 
L 96.558545 240.191982 
L 99.805091 236.68398 
L 103.051636 233.042261 
L 106.298182 230.564358 
L 109.544727 228.240179 
L 112.791273 224.714532 
L 116.037818 223.029134 
L 119.284364 218.984402 
L 122.530909 216.466116 
L 125.777455 213.442196 
L 129.024 209.656499 
L 132.270545 209.652637 
L 135.517091 209.652276 
L 138.763636 209.651373 
L 142.010182 204.585089 
L 145.256727 201.21823 
L 148.503273 201.217903 
L 151.749818 196.890621 
L 154.996364 196.888552 
L 158.242909 196.888541 
L 161.489455 196.843471 
L 164.736 190.730079 
L 167.982545 190.730025 
L 171.229091 180.289009 
L 174.475636 180.288464 
L 177.722182 180.287641 
L 180.968727 180.263375 
L 184.215273 180.26309 
L 187.461818 180.26263 
L 190.708364 180.262523 
L 193.954909 180.262557 
L 197.201455 180.262552 
L 200.448 180.262493 
L 203.694545 180.262291 
L 206.941091 180.259981 
L 210.187636 180.259855 
L 213.434182 180.259897 
L 216.680727 180.25981 
L 219.927273 180.259877 
L 223.173818 180.257366 
L 226.420364 180.255989 
L 229.666909 180.255896 
L 232.913455 180.255763 
L 236.16 180.255865 
L 239.406545 180.2558 
L 242.653091 180.255752 
L 245.899636 180.255855 
L 249.146182 180.255897 
L 252.392727 180.255997 
L 255.639273 180.256102 
L 258.885818 180.256189 
L 262.132364 180.256082 
L 265.378909 180.256123 
L 268.625455 180.256242 
L 271.872 180.256349 
L 275.118545 180.255766 
L 278.365091 180.255823 
L 281.611636 180.255838 
L 284.858182 180.255922 
L 288.104727 180.255327 
L 291.351273 180.255374 
L 294.597818 72.109292 
L 297.844364 72.321726 
L 301.090909 72.311756 
L 304.337455 72.442151 
L 307.584 72.504083 
L 310.830545 72.713079 
L 314.077091 72.853514 
L 317.323636 73.070934 
L 320.570182 73.281596 
L 323.816727 73.425697 
L 327.063273 73.651245 
L 330.309818 73.859015 
L 333.556364 74.072157 
L 336.802909 74.287806 
L 340.049455 74.496906 
L 343.296 74.454104 
L 346.542545 74.663488 
L 349.789091 74.887789 
L 353.035636 75.085009 
L 356.282182 75.309666 
L 359.528727 75.523151 
L 362.775273 75.733674 
L 366.021818 75.958432 
L 369.268364 76.057137 
L 372.514909 76.278217 
L 375.761455 76.498701 
L 379.008 76.719789 
L 382.254545 76.940759 
L 385.501091 77.161927 
L 388.747636 77.381814 
L 391.994182 77.584944 
L 395.240727 77.803306 
L 398.487273 77.979297 
" style="fill:none;stroke:#1f77b4;stroke-linecap:round;stroke-width:1.5;"/>
   </g>
   <g id="line2d_16">
    <path clip-path="url(#p617fa51903)" d="M 73.832727 290.539636 
L 77.079273 281.567036 
L 80.325818 259.336057 
L 83.572364 98.895994 
L 86.818909 88.851522 
L 90.065455 86.185789 
L 93.312 85.004114 
L 96.558545 82.762827 
L 99.805091 76.230332 
L 103.051636 74.907764 
L 106.298182 70.979895 
L 109.544727 68.289712 
L 112.791273 67.063502 
L 116.037818 66.343414 
L 119.284364 65.580699 
L 122.530909 65.206819 
L 125.777455 64.828915 
L 129.024 64.41402 
L 132.270545 64.179416 
L 135.517091 63.00475 
L 138.763636 62.293264 
L 142.010182 62.248645 
L 145.256727 62.184948 
L 148.503273 62.189523 
L 151.749818 62.109505 
L 154.996364 62.062322 
L 158.242909 62.126773 
L 161.489455 62.168388 
L 164.736 62.237917 
L 167.982545 62.281481 
L 171.229091 62.330415 
L 174.475636 62.391479 
L 177.722182 62.469965 
L 180.968727 62.55284 
L 184.215273 62.699348 
L 187.461818 62.720877 
L 190.708364 62.869256 
L 193.954909 62.871063 
L 197.201455 63.060809 
L 200.448 63.203339 
L 203.694545 63.427353 
L 206.941091 63.608604 
L 210.187636 63.818805 
L 213.434182 64.051363 
L 216.680727 64.279442 
L 219.927273 64.516274 
L 223.173818 64.693928 
L 226.420364 64.879265 
L 229.666909 65.101409 
L 232.913455 65.349866 
L 236.16 65.605977 
L 239.406545 65.873252 
L 242.653091 66.126731 
L 245.899636 66.386338 
L 249.146182 66.65934 
L 252.392727 66.922822 
L 255.639273 67.160534 
L 258.885818 67.413688 
L 262.132364 67.68317 
L 265.378909 67.942331 
L 268.625455 68.208121 
L 271.872 68.472425 
L 275.118545 68.74087 
L 278.365091 69.006596 
L 281.611636 69.273553 
L 284.858182 69.539041 
L 288.104727 69.801162 
L 291.351273 70.053386 
L 294.597818 70.31448 
L 297.844364 70.571266 
L 301.090909 70.821887 
L 304.337455 71.085087 
L 307.584 71.339193 
L 310.830545 71.593653 
L 314.077091 71.850266 
L 317.323636 72.101785 
L 320.570182 72.354669 
L 323.816727 72.59867 
L 327.063273 72.849407 
L 330.309818 73.077564 
L 333.556364 73.320063 
L 336.802909 73.565086 
L 340.049455 73.81144 
L 343.296 74.055116 
L 346.542545 74.285337 
L 349.789091 74.524846 
L 353.035636 74.7645 
L 356.282182 75.003981 
L 359.528727 75.239249 
L 362.775273 75.46912 
L 366.021818 75.705055 
L 369.268364 75.939094 
L 372.514909 76.171214 
L 375.761455 76.401875 
L 379.008 76.629173 
L 382.254545 76.857188 
L 385.501091 77.08458 
L 388.747636 77.310503 
L 391.994182 77.534489 
L 395.240727 77.757656 
L 398.487273 77.979379 
" style="fill:none;stroke:#ff7f0e;stroke-linecap:round;stroke-width:1.5;"/>
   </g>
   <g id="line2d_17">
    <path clip-path="url(#p617fa51903)" d="M 73.832727 290.539636 
L 77.079273 282.06561 
L 80.325818 257.218871 
L 83.572364 70.043187 
L 86.818909 63.305702 
L 90.065455 60.42368 
L 93.312 58.771949 
L 96.558545 57.545137 
L 99.805091 56.555083 
L 103.051636 55.723875 
L 106.298182 55.0533 
L 109.544727 54.498763 
L 112.791273 54.09862 
L 116.037818 53.80392 
L 119.284364 53.569384 
L 122.530909 53.425691 
L 125.777455 53.332364 
L 129.024 53.333544 
L 132.270545 53.388674 
L 135.517091 53.485589 
L 138.763636 53.654086 
L 142.010182 53.852149 
L 145.256727 54.089657 
L 148.503273 54.359105 
L 151.749818 54.648816 
L 154.996364 54.958038 
L 158.242909 55.288905 
L 161.489455 55.63225 
L 164.736 55.985368 
L 167.982545 56.350781 
L 171.229091 56.72152 
L 174.475636 57.09207 
L 177.722182 57.468822 
L 180.968727 57.850558 
L 184.215273 58.236191 
L 187.461818 58.620945 
L 190.708364 59.005012 
L 193.954909 59.389493 
L 197.201455 59.771626 
L 200.448 60.152166 
L 203.694545 60.531735 
L 206.941091 60.90897 
L 210.187636 61.283134 
L 213.434182 61.657349 
L 216.680727 62.027048 
L 219.927273 62.391477 
L 223.173818 62.754485 
L 226.420364 63.114838 
L 229.666909 63.470528 
L 232.913455 63.82296 
L 236.16 64.173026 
L 239.406545 64.518664 
L 242.653091 64.860484 
L 245.899636 65.199481 
L 249.146182 65.5343 
L 252.392727 65.866391 
L 255.639273 66.194911 
L 258.885818 66.520167 
L 262.132364 66.842349 
L 265.378909 67.160796 
L 268.625455 67.47615 
L 271.872 67.788295 
L 275.118545 68.09745 
L 278.365091 68.403443 
L 281.611636 68.706231 
L 284.858182 69.00642 
L 288.104727 69.303392 
L 291.351273 69.597256 
L 294.597818 69.888273 
L 297.844364 70.177207 
L 301.090909 70.462363 
L 304.337455 70.74587 
L 307.584 71.026891 
L 310.830545 71.304718 
L 314.077091 71.579993 
L 317.323636 71.852854 
L 320.570182 72.123163 
L 323.816727 72.391112 
L 327.063273 72.656439 
L 330.309818 72.920218 
L 333.556364 73.180863 
L 336.802909 73.439927 
L 340.049455 73.696584 
L 343.296 73.950956 
L 346.542545 74.202948 
L 349.789091 74.453253 
L 353.035636 74.701372 
L 356.282182 74.947849 
L 359.528727 75.192322 
L 362.775273 75.434408 
L 366.021818 75.674974 
L 369.268364 75.913377 
L 372.514909 76.15008 
L 375.761455 76.384825 
L 379.008 76.617529 
L 382.254545 76.848874 
L 385.501091 77.078449 
L 388.747636 77.306399 
L 391.994182 77.53246 
L 395.240727 77.757005 
L 398.487273 77.979944 
" style="fill:none;stroke:#2ca02c;stroke-linecap:round;stroke-width:1.5;"/>
   </g>
   <g id="legend_1">
    <g id="patch_3">
     <path d="M 327.965313 297.4 
L 407.72 297.4 
Q 409.72 297.4 409.72 295.4 
L 409.72 252.351562 
Q 409.72 250.351562 407.72 250.351562 
L 327.965313 250.351562 
Q 325.965313 250.351562 325.965313 252.351562 
L 325.965313 295.4 
Q 325.965313 297.4 327.965313 297.4 
z
" style="fill:#ffffff;opacity:0.8;stroke:#cccccc;stroke-linejoin:miter;"/>
    </g>
    <g id="line2d_18">
     <path d="M 329.965313 258.46875 
L 349.965313 258.46875 
" style="fill:none;stroke:#1f77b4;stroke-linecap:round;stroke-width:1.5;"/>
    </g>
    <g id="line2d_19"/>
    <g id="text_16">
     <!-- High noise -->
     <defs>
      <path d="M 62.015625 0 
L 52.390625 0 
L 52.390625 31.390625 
L 17.875 31.390625 
L 17.875 0 
L 8.25 0 
L 8.25 71.09375 
L 17.875 71.09375 
L 17.875 38.96875 
L 52.390625 38.96875 
L 52.390625 71.09375 
L 62.015625 71.09375 
z
" id="Roboto-Regular-72"/>
     </defs>
     <g style="fill:#212121;" transform="translate(357.965313 261.96875)scale(0.1 -0.1)">
      <use xlink:href="#Roboto-Regular-72"/>
      <use x="70.263672" xlink:href="#Roboto-Regular-105"/>
      <use x="95.458984" xlink:href="#Roboto-Regular-103"/>
      <use x="152.294922" xlink:href="#Roboto-Regular-104"/>
      <use x="209.130859" xlink:href="#Roboto-Regular-32"/>
      <use x="233.984375" xlink:href="#Roboto-Regular-110"/>
      <use x="290.820312" xlink:href="#Roboto-Regular-111"/>
      <use x="347.65625" xlink:href="#Roboto-Regular-105"/>
      <use x="372.851562" xlink:href="#Roboto-Regular-115"/>
      <use x="425.146484" xlink:href="#Roboto-Regular-101"/>
     </g>
    </g>
    <g id="line2d_20">
     <path d="M 329.965313 273.220312 
L 349.965313 273.220312 
" style="fill:none;stroke:#ff7f0e;stroke-linecap:round;stroke-width:1.5;"/>
    </g>
    <g id="line2d_21"/>
    <g id="text_17">
     <!-- Low noise -->
     <defs>
      <path d="M 17.828125 7.515625 
L 52.484375 7.515625 
L 52.484375 0 
L 8.203125 0 
L 8.203125 71.09375 
L 17.828125 71.09375 
z
" id="Roboto-Regular-76"/>
     </defs>
     <g style="fill:#212121;" transform="translate(357.965313 276.720312)scale(0.1 -0.1)">
      <use xlink:href="#Roboto-Regular-76"/>
      <use x="54.833984" xlink:href="#Roboto-Regular-111"/>
      <use x="111.669922" xlink:href="#Roboto-Regular-119"/>
      <use x="187.353516" xlink:href="#Roboto-Regular-32"/>
      <use x="212.207031" xlink:href="#Roboto-Regular-110"/>
      <use x="269.042969" xlink:href="#Roboto-Regular-111"/>
      <use x="325.878906" xlink:href="#Roboto-Regular-105"/>
      <use x="351.074219" xlink:href="#Roboto-Regular-115"/>
      <use x="403.369141" xlink:href="#Roboto-Regular-101"/>
     </g>
    </g>
    <g id="line2d_22">
     <path d="M 329.965313 287.86875 
L 349.965313 287.86875 
" style="fill:none;stroke:#2ca02c;stroke-linecap:round;stroke-width:1.5;"/>
    </g>
    <g id="line2d_23"/>
    <g id="text_18">
     <!-- No noise -->
     <defs>
      <path d="M 62.015625 0 
L 52.390625 0 
L 18.171875 54.296875 
L 17.875 54.203125 
L 17.875 0 
L 8.25 0 
L 8.25 71.09375 
L 17.875 71.09375 
L 52.09375 16.84375 
L 52.390625 16.9375 
L 52.390625 71.09375 
L 62.015625 71.09375 
z
" id="Roboto-Regular-78"/>
     </defs>
     <g style="fill:#212121;" transform="translate(357.965313 291.36875)scale(0.1 -0.1)">
      <use xlink:href="#Roboto-Regular-78"/>
      <use x="70.263672" xlink:href="#Roboto-Regular-111"/>
      <use x="127.099609" xlink:href="#Roboto-Regular-32"/>
      <use x="151.953125" xlink:href="#Roboto-Regular-110"/>
      <use x="208.789062" xlink:href="#Roboto-Regular-111"/>
      <use x="265.625" xlink:href="#Roboto-Regular-105"/>
      <use x="290.820312" xlink:href="#Roboto-Regular-115"/>
      <use x="343.115234" xlink:href="#Roboto-Regular-101"/>
     </g>
    </g>
   </g>
  </g>
 </g>
 <defs>
  <clipPath id="p617fa51903">
   <rect height="260.928" width="357.12" x="57.6" y="41.472"/>
  </clipPath>
 </defs>
</svg>
