<?xml version="1.0" encoding="utf-8" standalone="no"?>
<!DOCTYPE svg PUBLIC "-//W3C//DTD SVG 1.1//EN"
  "http://www.w3.org/Graphics/SVG/1.1/DTD/svg11.dtd">
<!-- Created with matplotlib (https://matplotlib.org/) -->
<svg height="345.6pt" version="1.1" viewBox="0 0 460.8 345.6" width="460.8pt" xmlns="http://www.w3.org/2000/svg" xmlns:xlink="http://www.w3.org/1999/xlink">
 <defs>
  <style type="text/css">
*{stroke-linecap:butt;stroke-linejoin:round;}
  </style>
 </defs>
 <g id="figure_1">
  <g id="patch_1">
   <path d="M 0 345.6 
L 460.8 345.6 
L 460.8 0 
L 0 0 
z
" style="fill:#ffffff;"/>
  </g>
  <g id="axes_1">
   <g id="patch_2">
    <path d="M 57.6 302.4 
L 414.72 302.4 
L 414.72 41.472 
L 57.6 41.472 
z
" style="fill:#ffffff;"/>
   </g>
   <g id="matplotlib.axis_1">
    <g id="xtick_1">
     <g id="line2d_1">
      <path clip-path="url(#p13a8e9714c)" d="M 73.832727 302.4 
L 73.832727 41.472 
" style="fill:none;stroke:#eeeeee;stroke-linecap:round;stroke-width:0.8;"/>
     </g>
     <g id="text_1">
      <!-- 0% -->
      <defs>
       <path d="M 50.78125 25.09375 
Q 50.78125 13.03125 44.65625 6 
Q 38.53125 -1.03125 28.171875 -1.03125 
Q 17.875 -1.03125 11.6875 6 
Q 5.515625 13.03125 5.515625 25.09375 
L 5.515625 46 
Q 5.515625 57.953125 11.640625 65.03125 
Q 17.78125 72.125 28.078125 72.125 
Q 38.421875 72.125 44.59375 65.03125 
Q 50.78125 57.953125 50.78125 46 
z
M 41.15625 48 
Q 41.15625 55.671875 37.734375 60.109375 
Q 34.328125 64.546875 28.078125 64.546875 
Q 21.875 64.546875 18.5 60.109375 
Q 15.140625 55.671875 15.140625 48 
L 15.140625 23.140625 
Q 15.140625 15.484375 18.578125 10.984375 
Q 22.015625 6.5 28.171875 6.5 
Q 34.421875 6.5 37.78125 10.96875 
Q 41.15625 15.4375 41.15625 23.140625 
z
" id="Roboto-Regular-48"/>
       <path d="M 5.078125 57.421875 
Q 5.078125 63.625 9.078125 67.875 
Q 13.09375 72.125 19.78125 72.125 
Q 26.46875 72.125 30.46875 67.890625 
Q 34.46875 63.671875 34.46875 57.421875 
L 34.46875 53.65625 
Q 34.46875 47.46875 30.484375 43.265625 
Q 26.515625 39.0625 19.875 39.0625 
Q 13.140625 39.0625 9.109375 43.265625 
Q 5.078125 47.46875 5.078125 53.65625 
z
M 12.203125 53.65625 
Q 12.203125 50.046875 14.171875 47.53125 
Q 16.15625 45.015625 19.875 45.015625 
Q 23.4375 45.015625 25.390625 47.5 
Q 27.34375 50 27.34375 53.65625 
L 27.34375 57.421875 
Q 27.34375 61.03125 25.359375 63.59375 
Q 23.390625 66.15625 19.78125 66.15625 
Q 16.109375 66.15625 14.15625 63.59375 
Q 12.203125 61.03125 12.203125 57.421875 
z
M 39.5 17.4375 
Q 39.5 23.640625 43.5 27.859375 
Q 47.515625 32.078125 54.203125 32.078125 
Q 60.84375 32.078125 64.859375 27.859375 
Q 68.890625 23.640625 68.890625 17.4375 
L 68.890625 13.625 
Q 68.890625 7.375 64.890625 3.171875 
Q 60.890625 -1.03125 54.296875 -1.03125 
Q 47.5625 -1.03125 43.53125 3.171875 
Q 39.5 7.375 39.5 13.625 
z
M 46.625 13.625 
Q 46.625 9.96875 48.609375 7.453125 
Q 50.59375 4.9375 54.296875 4.9375 
Q 57.859375 4.9375 59.8125 7.453125 
Q 61.765625 9.96875 61.765625 13.625 
L 61.765625 17.4375 
Q 61.765625 21.046875 59.765625 23.578125 
Q 57.765625 26.125 54.203125 26.125 
Q 50.59375 26.125 48.609375 23.578125 
Q 46.625 21.046875 46.625 17.4375 
z
M 22.359375 5.375 
L 17.046875 8.640625 
L 51.765625 64.203125 
L 57.078125 60.9375 
z
" id="Roboto-Regular-37"/>
      </defs>
      <g style="fill:#757575;" transform="translate(67.360852 317.017187)scale(0.1 -0.1)">
       <use xlink:href="#Roboto-Regular-48"/>
       <use x="56.298828" xlink:href="#Roboto-Regular-37"/>
      </g>
     </g>
    </g>
    <g id="xtick_2">
     <g id="line2d_2">
      <path clip-path="url(#p13a8e9714c)" d="M 138.763636 302.4 
L 138.763636 41.472 
" style="fill:none;stroke:#eeeeee;stroke-linecap:round;stroke-width:0.8;"/>
     </g>
     <g id="text_2">
      <!-- 20% -->
      <defs>
       <path d="M 51.46875 0 
L 7.328125 0 
L 7.328125 6.59375 
L 29.640625 33.203125 
Q 35.59375 40.4375 37.71875 44.703125 
Q 39.84375 48.96875 39.84375 53.328125 
Q 39.84375 58.25 36.953125 61.390625 
Q 34.078125 64.546875 29 64.546875 
Q 22.703125 64.546875 19.40625 60.6875 
Q 16.109375 56.84375 16.109375 51.078125 
L 6.84375 51.078125 
L 6.734375 51.375 
Q 6.5 60.0625 12.546875 66.09375 
Q 18.609375 72.125 29 72.125 
Q 38.53125 72.125 44 66.84375 
Q 49.46875 61.578125 49.46875 53.21875 
Q 49.46875 47.609375 46.359375 42.234375 
Q 43.265625 36.859375 36.921875 28.765625 
L 19 7.765625 
L 19.09375 7.515625 
L 51.46875 7.515625 
z
" id="Roboto-Regular-50"/>
      </defs>
      <g style="fill:#757575;" transform="translate(129.476918 317.017187)scale(0.1 -0.1)">
       <use xlink:href="#Roboto-Regular-50"/>
       <use x="56.298828" xlink:href="#Roboto-Regular-48"/>
       <use x="112.597656" xlink:href="#Roboto-Regular-37"/>
      </g>
     </g>
    </g>
    <g id="xtick_3">
     <g id="line2d_3">
      <path clip-path="url(#p13a8e9714c)" d="M 203.694545 302.4 
L 203.694545 41.472 
" style="fill:none;stroke:#eeeeee;stroke-linecap:round;stroke-width:0.8;"/>
     </g>
     <g id="text_3">
      <!-- 40% -->
      <defs>
       <path d="M 43.609375 23.921875 
L 53.421875 23.921875 
L 53.421875 16.40625 
L 43.609375 16.40625 
L 43.609375 0 
L 34.03125 0 
L 34.03125 16.40625 
L 3.515625 16.40625 
L 3.515625 21.828125 
L 33.453125 71.09375 
L 43.609375 71.09375 
z
M 13.8125 23.921875 
L 34.03125 23.921875 
L 34.03125 57.28125 
L 33.734375 57.328125 
L 32.8125 54.890625 
z
" id="Roboto-Regular-52"/>
      </defs>
      <g style="fill:#757575;" transform="translate(194.407827 317.017187)scale(0.1 -0.1)">
       <use xlink:href="#Roboto-Regular-52"/>
       <use x="56.298828" xlink:href="#Roboto-Regular-48"/>
       <use x="112.597656" xlink:href="#Roboto-Regular-37"/>
      </g>
     </g>
    </g>
    <g id="xtick_4">
     <g id="line2d_4">
      <path clip-path="url(#p13a8e9714c)" d="M 268.625455 302.4 
L 268.625455 41.472 
" style="fill:none;stroke:#eeeeee;stroke-linecap:round;stroke-width:0.8;"/>
     </g>
     <g id="text_4">
      <!-- 60% -->
      <defs>
       <path d="M 31.296875 72.125 
Q 35.5 72.125 39.59375 71.28125 
Q 43.703125 70.453125 46.390625 69.1875 
L 44.34375 61.8125 
Q 41.546875 63.03125 38.46875 63.78125 
Q 35.40625 64.546875 31.296875 64.546875 
Q 24.609375 64.546875 20.4375 58.828125 
Q 16.265625 53.125 16.265625 44.390625 
L 16.265625 38.875 
Q 19.234375 41.84375 23.3125 43.546875 
Q 27.390625 45.265625 32.078125 45.265625 
Q 41.265625 45.265625 46.609375 39.109375 
Q 51.953125 32.953125 51.953125 22.953125 
Q 51.953125 12.015625 45.96875 5.484375 
Q 39.984375 -1.03125 29.828125 -1.03125 
Q 19.96875 -1.03125 13.328125 6.46875 
Q 6.6875 13.96875 6.6875 26.953125 
L 6.6875 43.3125 
Q 6.6875 55.8125 13.796875 63.96875 
Q 20.90625 72.125 31.296875 72.125 
z
M 29 38.09375 
Q 24.46875 38.09375 21.21875 36.15625 
Q 17.96875 34.234375 16.265625 30.953125 
L 16.265625 26.03125 
Q 16.265625 17 20.1875 11.75 
Q 24.125 6.5 29.828125 6.5 
Q 35.84375 6.5 39.078125 11.0625 
Q 42.328125 15.625 42.328125 22.953125 
Q 42.328125 29.890625 38.84375 33.984375 
Q 35.359375 38.09375 29 38.09375 
z
" id="Roboto-Regular-54"/>
      </defs>
      <g style="fill:#757575;" transform="translate(259.338736 317.017187)scale(0.1 -0.1)">
       <use xlink:href="#Roboto-Regular-54"/>
       <use x="56.298828" xlink:href="#Roboto-Regular-48"/>
       <use x="112.597656" xlink:href="#Roboto-Regular-37"/>
      </g>
     </g>
    </g>
    <g id="xtick_5">
     <g id="line2d_5">
      <path clip-path="url(#p13a8e9714c)" d="M 333.556364 302.4 
L 333.556364 41.472 
" style="fill:none;stroke:#eeeeee;stroke-linecap:round;stroke-width:0.8;"/>
     </g>
     <g id="text_5">
      <!-- 80% -->
      <defs>
       <path d="M 49.3125 52.9375 
Q 49.3125 47.359375 46.1875 43.140625 
Q 43.0625 38.921875 37.890625 36.8125 
Q 43.953125 34.71875 47.609375 30.125 
Q 51.265625 25.53125 51.265625 19.53125 
Q 51.265625 9.71875 44.890625 4.34375 
Q 38.53125 -1.03125 28.65625 -1.03125 
Q 18.21875 -1.03125 11.59375 4.34375 
Q 4.984375 9.71875 4.984375 19.53125 
Q 4.984375 25.53125 8.71875 30.125 
Q 12.453125 34.71875 18.796875 36.859375 
Q 13.328125 38.921875 10.15625 43.140625 
Q 6.984375 47.359375 6.984375 52.9375 
Q 6.984375 62.25 12.96875 67.1875 
Q 18.953125 72.125 28.5625 72.125 
Q 37.640625 72.125 43.46875 67.15625 
Q 49.3125 62.203125 49.3125 52.9375 
z
M 41.703125 19.734375 
Q 41.703125 25.53125 37.90625 29.296875 
Q 34.125 33.0625 28.5625 33.0625 
Q 22.515625 33.0625 18.546875 29.296875 
Q 14.59375 25.53125 14.59375 19.734375 
Q 14.59375 13.71875 18.53125 10.109375 
Q 22.46875 6.5 28.65625 6.5 
Q 34.234375 6.5 37.96875 10.125 
Q 41.703125 13.765625 41.703125 19.734375 
z
M 39.703125 52.78125 
Q 39.703125 57.90625 36.5 61.21875 
Q 33.296875 64.546875 28.5625 64.546875 
Q 23.34375 64.546875 19.96875 61.34375 
Q 16.609375 58.15625 16.609375 52.78125 
Q 16.609375 47.359375 20.015625 43.984375 
Q 23.4375 40.625 28.65625 40.625 
Q 33.40625 40.625 36.546875 43.984375 
Q 39.703125 47.359375 39.703125 52.78125 
z
" id="Roboto-Regular-56"/>
      </defs>
      <g style="fill:#757575;" transform="translate(324.269645 317.017187)scale(0.1 -0.1)">
       <use xlink:href="#Roboto-Regular-56"/>
       <use x="56.298828" xlink:href="#Roboto-Regular-48"/>
       <use x="112.597656" xlink:href="#Roboto-Regular-37"/>
      </g>
     </g>
    </g>
    <g id="xtick_6">
     <g id="line2d_6">
      <path clip-path="url(#p13a8e9714c)" d="M 398.487273 302.4 
L 398.487273 41.472 
" style="fill:none;stroke:#eeeeee;stroke-linecap:round;stroke-width:0.8;"/>
     </g>
     <g id="text_6">
      <!-- 100% -->
      <defs>
       <path d="M 34.671875 0 
L 25 0 
L 25 62.203125 
L 9.515625 62.0625 
L 9.515625 69.484375 
L 34.671875 72.125 
z
" id="Roboto-Regular-49"/>
      </defs>
      <g style="fill:#757575;" transform="translate(386.38571 317.017187)scale(0.1 -0.1)">
       <use xlink:href="#Roboto-Regular-49"/>
       <use x="56.298828" xlink:href="#Roboto-Regular-48"/>
       <use x="112.597656" xlink:href="#Roboto-Regular-48"/>
       <use x="168.896484" xlink:href="#Roboto-Regular-37"/>
      </g>
     </g>
    </g>
    <g id="text_7">
     <!-- Percent of households to which transfer is targeted -->
     <defs>
      <path d="M 17.578125 28.515625 
L 17.578125 0 
L 7.953125 0 
L 7.953125 71.09375 
L 35.15625 71.09375 
Q 46.53125 71.09375 52.859375 65.234375 
Q 59.1875 59.375 59.1875 49.8125 
Q 59.1875 40.140625 52.859375 34.328125 
Q 46.53125 28.515625 35.15625 28.515625 
z
M 17.578125 36.03125 
L 35.15625 36.03125 
Q 42.390625 36.03125 45.953125 39.90625 
Q 49.515625 43.796875 49.515625 49.703125 
Q 49.515625 55.609375 45.921875 59.5625 
Q 42.328125 63.53125 35.15625 63.53125 
L 17.578125 63.53125 
z
" id="Roboto-Regular-80"/>
      <path d="M 29.890625 -1.03125 
Q 18.0625 -1.03125 11.390625 6.265625 
Q 4.734375 13.578125 4.734375 25.390625 
L 4.734375 27.546875 
Q 4.734375 38.921875 11.296875 46.359375 
Q 17.875 53.8125 27.34375 53.8125 
Q 37.9375 53.8125 43.234375 47.21875 
Q 48.53125 40.625 48.53125 29.6875 
L 48.53125 24.609375 
L 14.75 24.609375 
L 14.65625 24.359375 
Q 14.59375 16.453125 18.375 11.46875 
Q 22.171875 6.5 29.890625 6.5 
Q 34.671875 6.5 37.5 7.5 
Q 40.328125 8.5 44.1875 10.546875 
L 46.578125 3.765625 
Q 43.953125 1.859375 40.15625 0.40625 
Q 36.375 -1.03125 29.890625 -1.03125 
z
M 27.34375 46.234375 
Q 22.3125 46.234375 19.015625 42.359375 
Q 15.71875 38.484375 14.984375 32.421875 
L 15.09375 32.171875 
L 38.921875 32.171875 
L 38.921875 32.953125 
Q 38.921875 38.71875 36.078125 42.46875 
Q 33.25 46.234375 27.34375 46.234375 
z
" id="Roboto-Regular-101"/>
      <path d="M 31.984375 44.34375 
L 27.046875 44.625 
Q 23.25 44.625 20.625 42.8125 
Q 18.015625 41.015625 16.609375 37.75 
L 16.609375 0 
L 6.984375 0 
L 6.984375 52.828125 
L 15.578125 52.828125 
L 16.265625 44.625 
Q 18.453125 48.921875 21.828125 51.359375 
Q 25.203125 53.8125 29.640625 53.8125 
Q 30.71875 53.8125 31.6875 53.640625 
Q 32.671875 53.46875 33.296875 53.265625 
z
" id="Roboto-Regular-114"/>
      <path d="M 27.984375 6.5 
Q 32.421875 6.5 35.734375 9.453125 
Q 39.0625 12.40625 39.0625 16.703125 
L 47.75 16.703125 
L 47.90625 16.40625 
Q 48.09375 9.578125 42.03125 4.265625 
Q 35.984375 -1.03125 27.984375 -1.03125 
Q 16.84375 -1.03125 10.78125 6.53125 
Q 4.734375 14.109375 4.734375 25.390625 
L 4.734375 27.4375 
Q 4.734375 38.625 10.8125 46.21875 
Q 16.890625 53.8125 27.984375 53.8125 
Q 36.8125 53.8125 42.453125 48.34375 
Q 48.09375 42.875 47.90625 34.90625 
L 47.796875 34.625 
L 39.0625 34.625 
Q 39.0625 39.453125 35.90625 42.84375 
Q 32.765625 46.234375 27.984375 46.234375 
Q 20.90625 46.234375 17.65625 40.734375 
Q 14.40625 35.25 14.40625 27.4375 
L 14.40625 25.390625 
Q 14.40625 17.4375 17.59375 11.96875 
Q 20.796875 6.5 27.984375 6.5 
z
" id="Roboto-Regular-99"/>
      <path d="M 15.578125 52.828125 
L 16.265625 44.96875 
Q 18.890625 49.171875 22.875 51.484375 
Q 26.859375 53.8125 31.9375 53.8125 
Q 40.484375 53.8125 45.171875 48.796875 
Q 49.859375 43.796875 49.859375 33.34375 
L 49.859375 0 
L 40.234375 0 
L 40.234375 33.15625 
Q 40.234375 40.140625 37.46875 43.0625 
Q 34.71875 46 29.046875 46 
Q 24.609375 46 21.5 44.21875 
Q 18.40625 42.4375 16.609375 39.203125 
L 16.609375 0 
L 6.984375 0 
L 6.984375 52.828125 
z
" id="Roboto-Regular-110"/>
      <path d="M 19.234375 65.578125 
L 19.234375 52.828125 
L 29.25 52.828125 
L 29.25 45.703125 
L 19.234375 45.703125 
L 19.234375 13.625 
Q 19.234375 9.90625 20.765625 8.390625 
Q 22.3125 6.890625 24.859375 6.890625 
Q 25.6875 6.890625 26.6875 7.078125 
Q 27.6875 7.28125 28.46875 7.5625 
L 29.78125 0.984375 
Q 28.65625 0.09375 26.5625 -0.46875 
Q 24.46875 -1.03125 22.40625 -1.03125 
Q 16.609375 -1.03125 13.109375 2.515625 
Q 9.625 6.0625 9.625 13.625 
L 9.625 45.703125 
L 1.265625 45.703125 
L 1.265625 52.828125 
L 9.625 52.828125 
L 9.625 65.578125 
z
" id="Roboto-Regular-116"/>
      <path id="Roboto-Regular-32"/>
      <path d="M 4.734375 26.90625 
Q 4.734375 38.625 11.078125 46.21875 
Q 17.4375 53.8125 28.328125 53.8125 
Q 39.3125 53.8125 45.671875 46.234375 
Q 52.046875 38.671875 52.046875 26.90625 
L 52.046875 25.828125 
Q 52.046875 14.015625 45.703125 6.484375 
Q 39.359375 -1.03125 28.421875 -1.03125 
Q 17.484375 -1.03125 11.109375 6.515625 
Q 4.734375 14.0625 4.734375 25.828125 
z
M 14.359375 25.828125 
Q 14.359375 17.4375 17.890625 11.96875 
Q 21.4375 6.5 28.421875 6.5 
Q 35.296875 6.5 38.859375 11.96875 
Q 42.4375 17.4375 42.4375 25.828125 
L 42.4375 26.90625 
Q 42.4375 35.203125 38.84375 40.71875 
Q 35.25 46.234375 28.328125 46.234375 
Q 21.4375 46.234375 17.890625 40.71875 
Q 14.359375 35.203125 14.359375 26.90625 
z
" id="Roboto-Regular-111"/>
      <path d="M 9.671875 0 
L 9.671875 45.703125 
L 1.375 45.703125 
L 1.375 52.828125 
L 9.671875 52.828125 
L 9.671875 59.515625 
Q 9.671875 67.96875 14.0625 72.578125 
Q 18.453125 77.203125 26.375 77.203125 
Q 28.03125 77.203125 29.703125 76.921875 
Q 31.390625 76.65625 33.453125 76.171875 
L 32.28125 68.84375 
Q 31.390625 69.046875 30.140625 69.1875 
Q 28.90625 69.34375 27.59375 69.34375 
Q 23.34375 69.34375 21.3125 66.828125 
Q 19.28125 64.3125 19.28125 59.515625 
L 19.28125 52.828125 
L 28.859375 52.828125 
L 28.859375 45.703125 
L 19.28125 45.703125 
L 19.28125 0 
z
" id="Roboto-Regular-102"/>
      <path d="M 16.609375 45.75 
Q 19.34375 49.5625 23.3125 51.6875 
Q 27.296875 53.8125 32.125 53.8125 
Q 40.578125 53.8125 45.28125 48.734375 
Q 50 43.65625 50 33.109375 
L 50 0 
L 40.375 0 
L 40.375 33.203125 
Q 40.375 39.75 37.5625 42.875 
Q 34.765625 46 29.203125 46 
Q 24.90625 46 21.734375 44.3125 
Q 18.5625 42.625 16.609375 39.59375 
L 16.609375 0 
L 6.984375 0 
L 6.984375 76.171875 
L 16.609375 76.171875 
z
" id="Roboto-Regular-104"/>
      <path d="M 40.53125 7.859375 
Q 38.03125 3.609375 34.09375 1.28125 
Q 30.171875 -1.03125 25.09375 -1.03125 
Q 16.453125 -1.03125 11.609375 4.484375 
Q 6.78125 10.015625 6.78125 21.6875 
L 6.78125 52.828125 
L 16.40625 52.828125 
L 16.40625 21.578125 
Q 16.40625 13.140625 18.890625 9.953125 
Q 21.390625 6.78125 26.65625 6.78125 
Q 31.78125 6.78125 35.125 8.875 
Q 38.484375 10.984375 40.1875 14.84375 
L 40.1875 52.828125 
L 49.8125 52.828125 
L 49.8125 0 
L 41.15625 0 
z
" id="Roboto-Regular-117"/>
      <path d="M 37.703125 14.203125 
Q 37.703125 17.390625 35.28125 19.390625 
Q 32.859375 21.390625 26.125 22.90625 
Q 16.796875 24.90625 11.78125 28.515625 
Q 6.78125 32.125 6.78125 38.1875 
Q 6.78125 44.625 12.28125 49.21875 
Q 17.78125 53.8125 26.515625 53.8125 
Q 35.5 53.8125 41.0625 48.921875 
Q 46.625 44.046875 46.390625 37.546875 
L 46.296875 37.25 
L 37.109375 37.25 
Q 37.109375 40.671875 34.109375 43.453125 
Q 31.109375 46.234375 26.515625 46.234375 
Q 21.4375 46.234375 18.921875 43.9375 
Q 16.40625 41.65625 16.40625 38.484375 
Q 16.40625 35.359375 18.578125 33.640625 
Q 20.75 31.9375 27.546875 30.515625 
Q 37.25 28.46875 42.28125 24.703125 
Q 47.3125 20.953125 47.3125 14.890625 
Q 47.3125 7.859375 41.625 3.40625 
Q 35.9375 -1.03125 26.765625 -1.03125 
Q 16.65625 -1.03125 10.84375 4.09375 
Q 5.03125 9.234375 5.328125 16.0625 
L 5.421875 16.359375 
L 14.59375 16.359375 
Q 14.84375 11.234375 18.40625 8.859375 
Q 21.96875 6.5 26.765625 6.5 
Q 31.890625 6.5 34.796875 8.671875 
Q 37.703125 10.84375 37.703125 14.203125 
z
" id="Roboto-Regular-115"/>
      <path d="M 17.390625 0 
L 7.765625 0 
L 7.765625 76.171875 
L 17.390625 76.171875 
z
" id="Roboto-Regular-108"/>
      <path d="M 4.78125 25.4375 
Q 4.78125 38.1875 10.21875 46 
Q 15.671875 53.8125 25.484375 53.8125 
Q 30.125 53.8125 33.71875 52.09375 
Q 37.3125 50.390625 39.84375 47.125 
L 39.84375 76.171875 
L 49.46875 76.171875 
L 49.46875 0 
L 42.09375 0 
L 40.625 6.6875 
Q 38.03125 2.875 34.21875 0.921875 
Q 30.421875 -1.03125 25.390625 -1.03125 
Q 15.71875 -1.03125 10.25 5.96875 
Q 4.78125 12.984375 4.78125 24.421875 
z
M 14.40625 24.421875 
Q 14.40625 16.40625 17.671875 11.59375 
Q 20.953125 6.78125 27.828125 6.78125 
Q 32.125 6.78125 35.046875 8.734375 
Q 37.984375 10.6875 39.84375 14.203125 
L 39.84375 38.875 
Q 37.984375 42.140625 35.03125 44.0625 
Q 32.078125 46 27.9375 46 
Q 21 46 17.703125 40.28125 
Q 14.40625 34.578125 14.40625 25.4375 
z
" id="Roboto-Regular-100"/>
      <path d="M 20.515625 19.234375 
L 21.734375 12.453125 
L 22.015625 12.453125 
L 23.296875 19.234375 
L 33.84375 52.828125 
L 41.546875 52.828125 
L 52.15625 19.234375 
L 53.515625 11.671875 
L 53.8125 11.671875 
L 55.375 19.234375 
L 63.1875 52.828125 
L 73.25 52.828125 
L 57.90625 0 
L 50.140625 0 
L 39.703125 32.171875 
L 37.703125 40.578125 
L 37.40625 40.578125 
L 35.546875 32.171875 
L 25.296875 0 
L 17.53125 0 
L 2.203125 52.828125 
L 12.203125 52.828125 
z
" id="Roboto-Regular-119"/>
      <path d="M 17.390625 0 
L 7.765625 0 
L 7.765625 52.828125 
L 17.390625 52.828125 
z
M 17.390625 66.359375 
L 7.765625 66.359375 
L 7.765625 76.171875 
L 17.390625 76.171875 
z
" id="Roboto-Regular-105"/>
      <path d="M 39.453125 0 
Q 38.96875 2.390625 38.6875 4.21875 
Q 38.421875 6.0625 38.375 7.90625 
Q 35.6875 4.109375 31.359375 1.53125 
Q 27.046875 -1.03125 22.078125 -1.03125 
Q 13.8125 -1.03125 9.484375 3.1875 
Q 5.171875 7.421875 5.171875 14.84375 
Q 5.171875 22.40625 11.296875 26.671875 
Q 17.4375 30.953125 27.9375 30.953125 
L 38.375 30.953125 
L 38.375 36.1875 
Q 38.375 40.828125 35.546875 43.53125 
Q 32.71875 46.234375 27.546875 46.234375 
Q 22.859375 46.234375 19.96875 43.890625 
Q 17.09375 41.546875 17.09375 38.28125 
L 7.953125 38.1875 
L 7.859375 38.484375 
Q 7.515625 44.234375 13.25 49.015625 
Q 19 53.8125 28.078125 53.8125 
Q 37.0625 53.8125 42.53125 49.234375 
Q 48 44.671875 48 36.078125 
L 48 10.640625 
Q 48 7.8125 48.28125 5.171875 
Q 48.578125 2.546875 49.359375 0 
z
M 23.484375 7.03125 
Q 28.71875 7.03125 32.90625 9.71875 
Q 37.109375 12.40625 38.375 15.875 
L 38.375 24.46875 
L 27.59375 24.46875 
Q 21.78125 24.46875 18.28125 21.53125 
Q 14.796875 18.609375 14.796875 14.65625 
Q 14.796875 11.140625 16.984375 9.078125 
Q 19.1875 7.03125 23.484375 7.03125 
z
" id="Roboto-Regular-97"/>
      <path d="M 5.28125 25.4375 
Q 5.28125 38.1875 10.71875 46 
Q 16.15625 53.8125 25.921875 53.8125 
Q 30.953125 53.8125 34.765625 51.78125 
Q 38.578125 49.75 41.15625 45.953125 
L 42.328125 52.828125 
L 50 52.828125 
L 50 -0.296875 
Q 50 -10.453125 44.09375 -15.890625 
Q 38.1875 -21.34375 27.046875 -21.34375 
Q 23.25 -21.34375 18.828125 -20.28125 
Q 14.40625 -19.234375 11.03125 -17.4375 
L 12.5 -9.96875 
Q 15.28125 -11.421875 19.203125 -12.328125 
Q 23.140625 -13.234375 26.953125 -13.234375 
Q 33.984375 -13.234375 37.171875 -10.03125 
Q 40.375 -6.84375 40.375 -0.296875 
L 40.375 5.71875 
Q 37.796875 2.390625 34.171875 0.671875 
Q 30.5625 -1.03125 25.828125 -1.03125 
Q 16.15625 -1.03125 10.71875 5.96875 
Q 5.28125 12.984375 5.28125 24.421875 
z
M 14.890625 24.421875 
Q 14.890625 16.453125 18.15625 11.609375 
Q 21.4375 6.78125 28.265625 6.78125 
Q 32.625 6.78125 35.546875 8.765625 
Q 38.484375 10.75 40.375 14.359375 
L 40.375 38.671875 
Q 38.53125 42.046875 35.546875 44.015625 
Q 32.5625 46 28.375 46 
Q 21.484375 46 18.1875 40.28125 
Q 14.890625 34.578125 14.890625 25.4375 
z
" id="Roboto-Regular-103"/>
     </defs>
     <g style="fill:#757575;" transform="translate(122.025625 330.76875)scale(0.1 -0.1)">
      <use xlink:href="#Roboto-Regular-80"/>
      <use x="63.216797" xlink:href="#Roboto-Regular-101"/>
      <use x="115.560547" xlink:href="#Roboto-Regular-114"/>
      <use x="150.554688" xlink:href="#Roboto-Regular-99"/>
      <use x="202.898438" xlink:href="#Roboto-Regular-101"/>
      <use x="255.242188" xlink:href="#Roboto-Regular-110"/>
      <use x="312.078125" xlink:href="#Roboto-Regular-116"/>
      <use x="343.962891" xlink:href="#Roboto-Regular-32"/>
      <use x="368.816406" xlink:href="#Roboto-Regular-111"/>
      <use x="425.652344" xlink:href="#Roboto-Regular-102"/>
      <use x="456.121094" xlink:href="#Roboto-Regular-32"/>
      <use x="480.974609" xlink:href="#Roboto-Regular-104"/>
      <use x="537.810547" xlink:href="#Roboto-Regular-111"/>
      <use x="594.646484" xlink:href="#Roboto-Regular-117"/>
      <use x="651.482422" xlink:href="#Roboto-Regular-115"/>
      <use x="703.777344" xlink:href="#Roboto-Regular-101"/>
      <use x="756.121094" xlink:href="#Roboto-Regular-104"/>
      <use x="812.957031" xlink:href="#Roboto-Regular-111"/>
      <use x="869.792969" xlink:href="#Roboto-Regular-108"/>
      <use x="894.988281" xlink:href="#Roboto-Regular-100"/>
      <use x="951.824219" xlink:href="#Roboto-Regular-115"/>
      <use x="1004.119141" xlink:href="#Roboto-Regular-32"/>
      <use x="1028.972656" xlink:href="#Roboto-Regular-116"/>
      <use x="1060.857422" xlink:href="#Roboto-Regular-111"/>
      <use x="1117.693359" xlink:href="#Roboto-Regular-32"/>
      <use x="1142.546875" xlink:href="#Roboto-Regular-119"/>
      <use x="1218.230469" xlink:href="#Roboto-Regular-104"/>
      <use x="1275.066406" xlink:href="#Roboto-Regular-105"/>
      <use x="1300.261719" xlink:href="#Roboto-Regular-99"/>
      <use x="1352.605469" xlink:href="#Roboto-Regular-104"/>
      <use x="1409.441406" xlink:href="#Roboto-Regular-32"/>
      <use x="1434.294922" xlink:href="#Roboto-Regular-116"/>
      <use x="1466.179688" xlink:href="#Roboto-Regular-114"/>
      <use x="1501.189453" xlink:href="#Roboto-Regular-97"/>
      <use x="1556.169922" xlink:href="#Roboto-Regular-110"/>
      <use x="1613.005859" xlink:href="#Roboto-Regular-115"/>
      <use x="1665.300781" xlink:href="#Roboto-Regular-102"/>
      <use x="1695.769531" xlink:href="#Roboto-Regular-101"/>
      <use x="1748.113281" xlink:href="#Roboto-Regular-114"/>
      <use x="1783.123047" xlink:href="#Roboto-Regular-32"/>
      <use x="1807.976562" xlink:href="#Roboto-Regular-105"/>
      <use x="1833.171875" xlink:href="#Roboto-Regular-115"/>
      <use x="1885.466797" xlink:href="#Roboto-Regular-32"/>
      <use x="1910.320312" xlink:href="#Roboto-Regular-116"/>
      <use x="1942.205078" xlink:href="#Roboto-Regular-97"/>
      <use x="1997.185547" xlink:href="#Roboto-Regular-114"/>
      <use x="2032.195312" xlink:href="#Roboto-Regular-103"/>
      <use x="2089.03125" xlink:href="#Roboto-Regular-101"/>
      <use x="2141.375" xlink:href="#Roboto-Regular-116"/>
      <use x="2173.259766" xlink:href="#Roboto-Regular-101"/>
      <use x="2225.603516" xlink:href="#Roboto-Regular-100"/>
     </g>
    </g>
   </g>
   <g id="matplotlib.axis_2">
    <g id="ytick_1">
     <g id="line2d_7">
      <path clip-path="url(#p13a8e9714c)" d="M 57.6 295.274609 
L 414.72 295.274609 
" style="fill:none;stroke:#eeeeee;stroke-linecap:round;stroke-width:0.8;"/>
     </g>
     <g id="text_8">
      <!-- $\mathdefault{-10^{3}}$ -->
      <defs>
       <path d="M 48.96875 31.640625 
L 8.203125 31.640625 
L 8.203125 39.203125 
L 48.96875 39.203125 
z
" id="Roboto-Regular-8722"/>
       <path d="M 28.265625 40.4375 
Q 34.71875 40.4375 37.375 43.625 
Q 40.046875 46.828125 40.046875 52.59375 
Q 40.046875 57.953125 37.140625 61.25 
Q 34.234375 64.546875 28.515625 64.546875 
Q 22.953125 64.546875 19.3125 61.109375 
Q 15.671875 57.671875 15.671875 52.484375 
L 6.5 52.484375 
L 6.34375 52.78125 
Q 6.109375 60.796875 12.40625 66.453125 
Q 18.703125 72.125 28.515625 72.125 
Q 38.421875 72.125 44.03125 67.109375 
Q 49.65625 62.109375 49.65625 52.390625 
Q 49.65625 47.40625 47.046875 43.296875 
Q 44.4375 39.203125 39.75 36.921875 
Q 45.125 34.765625 47.921875 30.390625 
Q 50.734375 26.03125 50.734375 19.828125 
Q 50.734375 10.0625 44.546875 4.515625 
Q 38.375 -1.03125 28.515625 -1.03125 
Q 19.4375 -1.03125 12.515625 4.3125 
Q 5.609375 9.671875 5.859375 18.453125 
L 5.953125 18.75 
L 15.140625 18.75 
Q 15.140625 13.578125 18.875 10.03125 
Q 22.609375 6.5 28.515625 6.5 
Q 34.375 6.5 37.734375 10.125 
Q 41.109375 13.765625 41.109375 19.625 
Q 41.109375 26.3125 38 29.625 
Q 34.90625 32.953125 28.265625 32.953125 
L 20.359375 32.953125 
L 20.359375 40.4375 
z
" id="Roboto-Regular-51"/>
      </defs>
      <g style="fill:#757575;" transform="translate(29.3 299.083203)scale(0.1 -0.1)">
       <use transform="translate(0 0.532813)" xlink:href="#Roboto-Regular-8722"/>
       <use transform="translate(57.128906 0.532813)" xlink:href="#Roboto-Regular-49"/>
       <use transform="translate(113.427734 0.532813)" xlink:href="#Roboto-Regular-48"/>
       <use transform="translate(170.651055 37.5125)scale(0.7)" xlink:href="#Roboto-Regular-51"/>
      </g>
     </g>
    </g>
    <g id="ytick_2">
     <g id="line2d_8">
      <path clip-path="url(#p13a8e9714c)" d="M 57.6 258.247387 
L 414.72 258.247387 
" style="fill:none;stroke:#eeeeee;stroke-linecap:round;stroke-width:0.8;"/>
     </g>
     <g id="text_9">
      <!-- $\mathdefault{-10^{2}}$ -->
      <g style="fill:#757575;" transform="translate(29.3 262.05598)scale(0.1 -0.1)">
       <use transform="translate(0 0.532813)" xlink:href="#Roboto-Regular-8722"/>
       <use transform="translate(57.128906 0.532813)" xlink:href="#Roboto-Regular-49"/>
       <use transform="translate(113.427734 0.532813)" xlink:href="#Roboto-Regular-48"/>
       <use transform="translate(170.651055 37.5125)scale(0.7)" xlink:href="#Roboto-Regular-50"/>
      </g>
     </g>
    </g>
    <g id="ytick_3">
     <g id="line2d_9">
      <path clip-path="url(#p13a8e9714c)" d="M 57.6 221.220164 
L 414.72 221.220164 
" style="fill:none;stroke:#eeeeee;stroke-linecap:round;stroke-width:0.8;"/>
     </g>
     <g id="text_10">
      <!-- $\mathdefault{-10^{1}}$ -->
      <g style="fill:#757575;" transform="translate(29.3 225.028758)scale(0.1 -0.1)">
       <use transform="translate(0 0.532813)" xlink:href="#Roboto-Regular-8722"/>
       <use transform="translate(57.128906 0.532813)" xlink:href="#Roboto-Regular-49"/>
       <use transform="translate(113.427734 0.532813)" xlink:href="#Roboto-Regular-48"/>
       <use transform="translate(170.651055 37.5125)scale(0.7)" xlink:href="#Roboto-Regular-49"/>
      </g>
     </g>
    </g>
    <g id="ytick_4">
     <g id="line2d_10">
      <path clip-path="url(#p13a8e9714c)" d="M 57.6 184.192942 
L 414.72 184.192942 
" style="fill:none;stroke:#eeeeee;stroke-linecap:round;stroke-width:0.8;"/>
     </g>
     <g id="text_11">
      <!-- $\mathdefault{-10^{0}}$ -->
      <g style="fill:#757575;" transform="translate(29.3 188.001535)scale(0.1 -0.1)">
       <use transform="translate(0 0.532813)" xlink:href="#Roboto-Regular-8722"/>
       <use transform="translate(57.128906 0.532813)" xlink:href="#Roboto-Regular-49"/>
       <use transform="translate(113.427734 0.532813)" xlink:href="#Roboto-Regular-48"/>
       <use transform="translate(170.651055 37.5125)scale(0.7)" xlink:href="#Roboto-Regular-48"/>
      </g>
     </g>
    </g>
    <g id="ytick_5">
     <g id="line2d_11">
      <path clip-path="url(#p13a8e9714c)" d="M 57.6 147.165719 
L 414.72 147.165719 
" style="fill:none;stroke:#eeeeee;stroke-linecap:round;stroke-width:0.8;"/>
     </g>
     <g id="text_12">
      <!-- $\mathdefault{-10^{-1}}$ -->
      <g style="fill:#757575;" transform="translate(25.3 150.974313)scale(0.1 -0.1)">
       <use transform="translate(0 0.532813)" xlink:href="#Roboto-Regular-8722"/>
       <use transform="translate(57.128906 0.532813)" xlink:href="#Roboto-Regular-49"/>
       <use transform="translate(113.427734 0.532813)" xlink:href="#Roboto-Regular-48"/>
       <use transform="translate(170.651055 37.5125)scale(0.7)" xlink:href="#Roboto-Regular-8722"/>
       <use transform="translate(210.641289 37.5125)scale(0.7)" xlink:href="#Roboto-Regular-49"/>
      </g>
     </g>
    </g>
    <g id="ytick_6">
     <g id="line2d_12">
      <path clip-path="url(#p13a8e9714c)" d="M 57.6 110.138497 
L 414.72 110.138497 
" style="fill:none;stroke:#eeeeee;stroke-linecap:round;stroke-width:0.8;"/>
     </g>
     <g id="text_13">
      <!-- $\mathdefault{-10^{-2}}$ -->
      <g style="fill:#757575;" transform="translate(25.3 113.94709)scale(0.1 -0.1)">
       <use transform="translate(0 0.532813)" xlink:href="#Roboto-Regular-8722"/>
       <use transform="translate(57.128906 0.532813)" xlink:href="#Roboto-Regular-49"/>
       <use transform="translate(113.427734 0.532813)" xlink:href="#Roboto-Regular-48"/>
       <use transform="translate(170.651055 37.5125)scale(0.7)" xlink:href="#Roboto-Regular-8722"/>
       <use transform="translate(210.641289 37.5125)scale(0.7)" xlink:href="#Roboto-Regular-50"/>
      </g>
     </g>
    </g>
    <g id="ytick_7">
     <g id="line2d_13">
      <path clip-path="url(#p13a8e9714c)" d="M 57.6 73.111274 
L 414.72 73.111274 
" style="fill:none;stroke:#eeeeee;stroke-linecap:round;stroke-width:0.8;"/>
     </g>
     <g id="text_14">
      <!-- $\mathdefault{-10^{-3}}$ -->
      <g style="fill:#757575;" transform="translate(25.3 76.919868)scale(0.1 -0.1)">
       <use transform="translate(0 0.532813)" xlink:href="#Roboto-Regular-8722"/>
       <use transform="translate(57.128906 0.532813)" xlink:href="#Roboto-Regular-49"/>
       <use transform="translate(113.427734 0.532813)" xlink:href="#Roboto-Regular-48"/>
       <use transform="translate(170.651055 37.5125)scale(0.7)" xlink:href="#Roboto-Regular-8722"/>
       <use transform="translate(210.641289 37.5125)scale(0.7)" xlink:href="#Roboto-Regular-51"/>
      </g>
     </g>
    </g>
   </g>
   <g id="line2d_14">
    <path clip-path="url(#p13a8e9714c)" d="M 73.832727 290.539636 
L 77.079273 281.542325 
L 80.325818 269.339836 
L 83.572364 258.015818 
L 86.818909 250.441576 
L 90.065455 244.117723 
L 93.312 238.900251 
L 96.558545 236.906725 
L 99.805091 233.169886 
L 103.051636 229.290645 
L 106.298182 226.651187 
L 109.544727 224.175525 
L 112.791273 220.420127 
L 116.037818 218.625036 
L 119.284364 214.316992 
L 122.530909 211.635028 
L 125.777455 208.414746 
L 129.024 204.383558 
L 132.270545 204.380046 
L 135.517091 204.380284 
L 138.763636 204.37997 
L 142.010182 198.98679 
L 145.256727 195.404115 
L 148.503273 195.405062 
L 151.749818 190.802442 
L 154.996364 190.802117 
L 158.242909 190.804024 
L 161.489455 190.758126 
L 164.736 184.263238 
L 167.982545 184.266396 
L 171.229091 173.199747 
L 174.475636 173.206017 
L 177.722182 173.212198 
L 180.968727 173.193861 
L 184.215273 173.201045 
L 187.461818 173.208291 
L 190.708364 173.216005 
L 193.954909 173.224056 
L 197.201455 173.232312 
L 200.448 173.240704 
L 203.694545 173.249173 
L 206.941091 173.255651 
L 210.187636 173.264588 
L 213.434182 173.273869 
L 216.680727 173.283245 
L 219.927273 173.292931 
L 223.173818 173.300273 
L 226.420364 173.309001 
L 229.666909 173.31917 
L 232.913455 173.329533 
L 236.16 173.340256 
L 239.406545 173.351037 
L 242.653091 173.362033 
L 245.899636 173.37334 
L 249.146182 173.384774 
L 252.392727 173.396482 
L 255.639273 173.408366 
L 258.885818 173.420424 
L 262.132364 173.432556 
L 265.378909 173.444979 
L 268.625455 173.457628 
L 271.872 173.470472 
L 275.118545 173.482894 
L 278.365091 173.496083 
L 281.611636 173.50943 
L 284.858182 173.52302 
L 288.104727 173.536157 
L 291.351273 173.550097 
L 294.597818 118.061414 
L 297.844364 118.509409 
L 301.090909 118.947544 
L 304.337455 119.382382 
L 307.584 119.810377 
L 310.830545 120.233783 
L 314.077091 120.651768 
L 317.323636 121.065457 
L 320.570182 121.472855 
L 323.816727 121.874982 
L 327.063273 122.273327 
L 330.309818 122.665135 
L 333.556364 123.054027 
L 336.802909 123.437533 
L 340.049455 123.81655 
L 343.296 124.187464 
L 346.542545 124.557764 
L 349.789091 124.923572 
L 353.035636 125.285229 
L 356.282182 125.643025 
L 359.528727 125.99664 
L 362.775273 126.345833 
L 366.021818 126.692354 
L 369.268364 127.033346 
L 372.514909 127.372495 
L 375.761455 127.707514 
L 379.008 128.039238 
L 382.254545 128.367572 
L 385.501091 128.691815 
L 388.747636 129.014063 
L 391.994182 129.332106 
L 395.240727 129.647279 
L 398.487273 129.95845 
" style="fill:none;stroke:#1f77b4;stroke-linecap:round;stroke-width:1.5;"/>
   </g>
   <g id="line2d_15">
    <path clip-path="url(#p13a8e9714c)" d="M 73.832727 290.539636 
L 77.079273 280.981541 
L 80.325818 257.299911 
L 83.572364 86.633349 
L 86.818909 76.576628 
L 90.065455 74.510256 
L 93.312 74.125038 
L 96.558545 73.044809 
L 99.805091 69.202899 
L 103.051636 69.767117 
L 106.298182 69.18867 
L 109.544727 69.72114 
L 112.791273 71.017144 
L 116.037818 72.495737 
L 119.284364 73.963755 
L 122.530909 75.492136 
L 125.777455 76.966407 
L 129.024 78.389578 
L 132.270545 79.799797 
L 135.517091 81.040358 
L 138.763636 82.314736 
L 142.010182 83.615835 
L 145.256727 84.869684 
L 148.503273 86.082397 
L 151.749818 87.249528 
L 154.996364 88.382198 
L 158.242909 89.479812 
L 161.489455 90.545544 
L 164.736 91.577856 
L 167.982545 92.57889 
L 171.229091 93.549928 
L 174.475636 94.493598 
L 177.722182 95.411116 
L 180.968727 96.306387 
L 184.215273 97.177498 
L 187.461818 98.022005 
L 190.708364 98.850645 
L 193.954909 99.654347 
L 197.201455 100.442141 
L 200.448 101.21221 
L 203.694545 101.96458 
L 206.941091 102.699099 
L 210.187636 103.419141 
L 213.434182 104.122244 
L 216.680727 104.811567 
L 219.927273 105.48595 
L 223.173818 106.14586 
L 226.420364 106.793313 
L 229.666909 107.427533 
L 232.913455 108.050598 
L 236.16 108.660642 
L 239.406545 109.261058 
L 242.653091 109.849152 
L 245.899636 110.426966 
L 249.146182 110.995743 
L 252.392727 111.553162 
L 255.639273 112.101223 
L 258.885818 112.640909 
L 262.132364 113.17039 
L 265.378909 113.692227 
L 268.625455 114.205932 
L 271.872 114.711087 
L 275.118545 115.208157 
L 278.365091 115.697638 
L 281.611636 116.180933 
L 284.858182 116.655452 
L 288.104727 117.124359 
L 291.351273 117.585611 
L 294.597818 118.040888 
L 297.844364 118.489255 
L 301.090909 118.931585 
L 304.337455 119.367237 
L 307.584 119.798211 
L 310.830545 120.222473 
L 314.077091 120.641801 
L 317.323636 121.054872 
L 320.570182 121.463674 
L 323.816727 121.866921 
L 327.063273 122.264835 
L 330.309818 122.658482 
L 333.556364 123.046149 
L 336.802909 123.429815 
L 340.049455 123.809366 
L 343.296 124.184155 
L 346.542545 124.554369 
L 349.789091 124.920914 
L 353.035636 125.282432 
L 356.282182 125.640735 
L 359.528727 125.994171 
L 362.775273 126.343751 
L 366.021818 126.690562 
L 369.268364 127.032706 
L 372.514909 127.371869 
L 375.761455 127.70697 
L 379.008 128.038465 
L 382.254545 128.366815 
L 385.501091 128.691857 
L 388.747636 129.01346 
L 391.994182 129.331803 
L 395.240727 129.646989 
L 398.487273 129.958564 
" style="fill:none;stroke:#ff7f0e;stroke-linecap:round;stroke-width:1.5;"/>
   </g>
   <g id="line2d_16">
    <path clip-path="url(#p13a8e9714c)" d="M 73.832727 290.539636 
L 77.079273 281.512649 
L 80.325818 255.044572 
L 83.572364 57.326763 
L 86.818909 53.332364 
L 90.065455 53.960114 
L 93.312 55.826664 
L 96.558545 58.033243 
L 99.805091 60.312391 
L 103.051636 62.577454 
L 106.298182 64.765443 
L 109.544727 66.872399 
L 112.791273 68.885204 
L 116.037818 70.805795 
L 119.284364 72.632143 
L 122.530909 74.370924 
L 125.777455 76.034501 
L 129.024 77.623556 
L 132.270545 79.143006 
L 135.517091 80.598895 
L 138.763636 81.994367 
L 142.010182 83.334688 
L 145.256727 84.625895 
L 148.503273 85.867943 
L 151.749818 87.064886 
L 154.996364 88.219718 
L 158.242909 89.337932 
L 161.489455 90.418039 
L 164.736 91.463999 
L 167.982545 92.478082 
L 171.229091 93.461391 
L 174.475636 94.415809 
L 177.722182 95.342729 
L 180.968727 96.245357 
L 184.215273 97.122041 
L 187.461818 97.97731 
L 190.708364 98.809422 
L 193.954909 99.622203 
L 197.201455 100.413284 
L 200.448 101.186391 
L 203.694545 101.941411 
L 206.941091 102.679291 
L 210.187636 103.399008 
L 213.434182 104.106109 
L 216.680727 104.796299 
L 219.927273 105.471223 
L 223.173818 106.134154 
L 226.420364 106.783261 
L 229.666909 107.418595 
L 232.913455 108.041467 
L 236.16 108.654113 
L 239.406545 109.254059 
L 242.653091 109.842838 
L 245.899636 110.421908 
L 249.146182 110.989705 
L 252.392727 111.547957 
L 255.639273 112.096931 
L 258.885818 112.636468 
L 262.132364 113.167484 
L 265.378909 113.689228 
L 268.625455 114.202893 
L 271.872 114.708268 
L 275.118545 115.206095 
L 278.365091 115.696054 
L 281.611636 116.178325 
L 284.858182 116.65414 
L 288.104727 117.122402 
L 291.351273 117.583682 
L 294.597818 118.038275 
L 297.844364 118.487599 
L 301.090909 118.92902 
L 304.337455 119.36595 
L 307.584 119.797308 
L 310.830545 120.222027 
L 314.077091 120.641081 
L 317.323636 121.054786 
L 320.570182 121.463099 
L 323.816727 121.866305 
L 327.063273 122.264056 
L 330.309818 122.658065 
L 333.556364 123.045931 
L 336.802909 123.430071 
L 340.049455 123.809361 
L 343.296 124.183988 
L 346.542545 124.553875 
L 349.789091 124.920064 
L 353.035636 125.281912 
L 356.282182 125.640186 
L 359.528727 125.994456 
L 362.775273 126.344187 
L 366.021818 126.690654 
L 369.268364 127.032996 
L 372.514909 127.371894 
L 375.761455 127.707014 
L 379.008 128.038274 
L 382.254545 128.366683 
L 385.501091 128.691673 
L 388.747636 129.013484 
L 391.994182 129.331777 
L 395.240727 129.6471 
L 398.487273 129.959355 
" style="fill:none;stroke:#2ca02c;stroke-linecap:round;stroke-width:1.5;"/>
   </g>
   <g id="legend_1">
    <g id="patch_3">
     <path d="M 327.965313 93.520437 
L 407.72 93.520437 
Q 409.72 93.520437 409.72 91.520437 
L 409.72 48.472 
Q 409.72 46.472 407.72 46.472 
L 327.965313 46.472 
Q 325.965313 46.472 325.965313 48.472 
L 325.965313 91.520437 
Q 325.965313 93.520437 327.965313 93.520437 
z
" style="fill:#ffffff;opacity:0.8;stroke:#cccccc;stroke-linejoin:miter;"/>
    </g>
    <g id="line2d_17">
     <path d="M 329.965313 54.589187 
L 349.965313 54.589187 
" style="fill:none;stroke:#1f77b4;stroke-linecap:round;stroke-width:1.5;"/>
    </g>
    <g id="line2d_18"/>
    <g id="text_15">
     <!-- High noise -->
     <defs>
      <path d="M 62.015625 0 
L 52.390625 0 
L 52.390625 31.390625 
L 17.875 31.390625 
L 17.875 0 
L 8.25 0 
L 8.25 71.09375 
L 17.875 71.09375 
L 17.875 38.96875 
L 52.390625 38.96875 
L 52.390625 71.09375 
L 62.015625 71.09375 
z
" id="Roboto-Regular-72"/>
     </defs>
     <g style="fill:#212121;" transform="translate(357.965313 58.089187)scale(0.1 -0.1)">
      <use xlink:href="#Roboto-Regular-72"/>
      <use x="70.263672" xlink:href="#Roboto-Regular-105"/>
      <use x="95.458984" xlink:href="#Roboto-Regular-103"/>
      <use x="152.294922" xlink:href="#Roboto-Regular-104"/>
      <use x="209.130859" xlink:href="#Roboto-Regular-32"/>
      <use x="233.984375" xlink:href="#Roboto-Regular-110"/>
      <use x="290.820312" xlink:href="#Roboto-Regular-111"/>
      <use x="347.65625" xlink:href="#Roboto-Regular-105"/>
      <use x="372.851562" xlink:href="#Roboto-Regular-115"/>
      <use x="425.146484" xlink:href="#Roboto-Regular-101"/>
     </g>
    </g>
    <g id="line2d_19">
     <path d="M 329.965313 69.34075 
L 349.965313 69.34075 
" style="fill:none;stroke:#ff7f0e;stroke-linecap:round;stroke-width:1.5;"/>
    </g>
    <g id="line2d_20"/>
    <g id="text_16">
     <!-- Low noise -->
     <defs>
      <path d="M 17.828125 7.515625 
L 52.484375 7.515625 
L 52.484375 0 
L 8.203125 0 
L 8.203125 71.09375 
L 17.828125 71.09375 
z
" id="Roboto-Regular-76"/>
     </defs>
     <g style="fill:#212121;" transform="translate(357.965313 72.84075)scale(0.1 -0.1)">
      <use xlink:href="#Roboto-Regular-76"/>
      <use x="54.833984" xlink:href="#Roboto-Regular-111"/>
      <use x="111.669922" xlink:href="#Roboto-Regular-119"/>
      <use x="187.353516" xlink:href="#Roboto-Regular-32"/>
      <use x="212.207031" xlink:href="#Roboto-Regular-110"/>
      <use x="269.042969" xlink:href="#Roboto-Regular-111"/>
      <use x="325.878906" xlink:href="#Roboto-Regular-105"/>
      <use x="351.074219" xlink:href="#Roboto-Regular-115"/>
      <use x="403.369141" xlink:href="#Roboto-Regular-101"/>
     </g>
    </g>
    <g id="line2d_21">
     <path d="M 329.965313 83.989187 
L 349.965313 83.989187 
" style="fill:none;stroke:#2ca02c;stroke-linecap:round;stroke-width:1.5;"/>
    </g>
    <g id="line2d_22"/>
    <g id="text_17">
     <!-- No noise -->
     <defs>
      <path d="M 62.015625 0 
L 52.390625 0 
L 18.171875 54.296875 
L 17.875 54.203125 
L 17.875 0 
L 8.25 0 
L 8.25 71.09375 
L 17.875 71.09375 
L 52.09375 16.84375 
L 52.390625 16.9375 
L 52.390625 71.09375 
L 62.015625 71.09375 
z
" id="Roboto-Regular-78"/>
     </defs>
     <g style="fill:#212121;" transform="translate(357.965313 87.489187)scale(0.1 -0.1)">
      <use xlink:href="#Roboto-Regular-78"/>
      <use x="70.263672" xlink:href="#Roboto-Regular-111"/>
      <use x="127.099609" xlink:href="#Roboto-Regular-32"/>
      <use x="151.953125" xlink:href="#Roboto-Regular-110"/>
      <use x="208.789062" xlink:href="#Roboto-Regular-111"/>
      <use x="265.625" xlink:href="#Roboto-Regular-105"/>
      <use x="290.820312" xlink:href="#Roboto-Regular-115"/>
      <use x="343.115234" xlink:href="#Roboto-Regular-101"/>
     </g>
    </g>
   </g>
  </g>
 </g>
 <defs>
  <clipPath id="p13a8e9714c">
   <rect height="260.928" width="357.12" x="57.6" y="41.472"/>
  </clipPath>
 </defs>
</svg>
