<?xml version="1.0" encoding="utf-8" standalone="no"?>
<!DOCTYPE svg PUBLIC "-//W3C//DTD SVG 1.1//EN"
  "http://www.w3.org/Graphics/SVG/1.1/DTD/svg11.dtd">
<!-- Created with matplotlib (https://matplotlib.org/) -->
<svg height="345.6pt" version="1.1" viewBox="0 0 460.8 345.6" width="460.8pt" xmlns="http://www.w3.org/2000/svg" xmlns:xlink="http://www.w3.org/1999/xlink">
 <defs>
  <style type="text/css">
*{stroke-linecap:butt;stroke-linejoin:round;}
  </style>
 </defs>
 <g id="figure_1">
  <g id="patch_1">
   <path d="M 0 345.6 
L 460.8 345.6 
L 460.8 0 
L 0 0 
z
" style="fill:#ffffff;"/>
  </g>
  <g id="axes_1">
   <g id="patch_2">
    <path d="M 57.6 302.4 
L 414.72 302.4 
L 414.72 41.472 
L 57.6 41.472 
z
" style="fill:#ffffff;"/>
   </g>
   <g id="matplotlib.axis_1">
    <g id="xtick_1">
     <g id="line2d_1">
      <path clip-path="url(#p1cec13ad8d)" d="M 73.832727 302.4 
L 73.832727 41.472 
" style="fill:none;stroke:#eeeeee;stroke-linecap:round;stroke-width:0.8;"/>
     </g>
     <g id="text_1">
      <!-- 0.0% -->
      <defs>
       <path d="M 50.78125 25.09375 
Q 50.78125 13.03125 44.65625 6 
Q 38.53125 -1.03125 28.171875 -1.03125 
Q 17.875 -1.03125 11.6875 6 
Q 5.515625 13.03125 5.515625 25.09375 
L 5.515625 46 
Q 5.515625 57.953125 11.640625 65.03125 
Q 17.78125 72.125 28.078125 72.125 
Q 38.421875 72.125 44.59375 65.03125 
Q 50.78125 57.953125 50.78125 46 
z
M 41.15625 48 
Q 41.15625 55.671875 37.734375 60.109375 
Q 34.328125 64.546875 28.078125 64.546875 
Q 21.875 64.546875 18.5 60.109375 
Q 15.140625 55.671875 15.140625 48 
L 15.140625 23.140625 
Q 15.140625 15.484375 18.578125 10.984375 
Q 22.015625 6.5 28.171875 6.5 
Q 34.421875 6.5 37.78125 10.96875 
Q 41.15625 15.4375 41.15625 23.140625 
z
" id="Roboto-Regular-48"/>
       <path d="M 17.484375 0 
L 7.859375 0 
L 7.859375 9.859375 
L 17.484375 9.859375 
z
" id="Roboto-Regular-46"/>
       <path d="M 5.078125 57.421875 
Q 5.078125 63.625 9.078125 67.875 
Q 13.09375 72.125 19.78125 72.125 
Q 26.46875 72.125 30.46875 67.890625 
Q 34.46875 63.671875 34.46875 57.421875 
L 34.46875 53.65625 
Q 34.46875 47.46875 30.484375 43.265625 
Q 26.515625 39.0625 19.875 39.0625 
Q 13.140625 39.0625 9.109375 43.265625 
Q 5.078125 47.46875 5.078125 53.65625 
z
M 12.203125 53.65625 
Q 12.203125 50.046875 14.171875 47.53125 
Q 16.15625 45.015625 19.875 45.015625 
Q 23.4375 45.015625 25.390625 47.5 
Q 27.34375 50 27.34375 53.65625 
L 27.34375 57.421875 
Q 27.34375 61.03125 25.359375 63.59375 
Q 23.390625 66.15625 19.78125 66.15625 
Q 16.109375 66.15625 14.15625 63.59375 
Q 12.203125 61.03125 12.203125 57.421875 
z
M 39.5 17.4375 
Q 39.5 23.640625 43.5 27.859375 
Q 47.515625 32.078125 54.203125 32.078125 
Q 60.84375 32.078125 64.859375 27.859375 
Q 68.890625 23.640625 68.890625 17.4375 
L 68.890625 13.625 
Q 68.890625 7.375 64.890625 3.171875 
Q 60.890625 -1.03125 54.296875 -1.03125 
Q 47.5625 -1.03125 43.53125 3.171875 
Q 39.5 7.375 39.5 13.625 
z
M 46.625 13.625 
Q 46.625 9.96875 48.609375 7.453125 
Q 50.59375 4.9375 54.296875 4.9375 
Q 57.859375 4.9375 59.8125 7.453125 
Q 61.765625 9.96875 61.765625 13.625 
L 61.765625 17.4375 
Q 61.765625 21.046875 59.765625 23.578125 
Q 57.765625 26.125 54.203125 26.125 
Q 50.59375 26.125 48.609375 23.578125 
Q 46.625 21.046875 46.625 17.4375 
z
M 22.359375 5.375 
L 17.046875 8.640625 
L 51.765625 64.203125 
L 57.078125 60.9375 
z
" id="Roboto-Regular-37"/>
      </defs>
      <g style="fill:#757575;" transform="translate(63.207727 317.017187)scale(0.1 -0.1)">
       <use xlink:href="#Roboto-Regular-48"/>
       <use x="56.298828" xlink:href="#Roboto-Regular-46"/>
       <use x="83.056641" xlink:href="#Roboto-Regular-48"/>
       <use x="139.355469" xlink:href="#Roboto-Regular-37"/>
      </g>
     </g>
    </g>
    <g id="xtick_2">
     <g id="line2d_2">
      <path clip-path="url(#p1cec13ad8d)" d="M 194.121039 302.4 
L 194.121039 41.472 
" style="fill:none;stroke:#eeeeee;stroke-linecap:round;stroke-width:0.8;"/>
     </g>
     <g id="text_2">
      <!-- 0.1% -->
      <defs>
       <path d="M 34.671875 0 
L 25 0 
L 25 62.203125 
L 9.515625 62.0625 
L 9.515625 69.484375 
L 34.671875 72.125 
z
" id="Roboto-Regular-49"/>
      </defs>
      <g style="fill:#757575;" transform="translate(183.496039 317.017187)scale(0.1 -0.1)">
       <use xlink:href="#Roboto-Regular-48"/>
       <use x="56.298828" xlink:href="#Roboto-Regular-46"/>
       <use x="83.056641" xlink:href="#Roboto-Regular-49"/>
       <use x="139.355469" xlink:href="#Roboto-Regular-37"/>
      </g>
     </g>
    </g>
    <g id="xtick_3">
     <g id="line2d_3">
      <path clip-path="url(#p1cec13ad8d)" d="M 314.409351 302.4 
L 314.409351 41.472 
" style="fill:none;stroke:#eeeeee;stroke-linecap:round;stroke-width:0.8;"/>
     </g>
     <g id="text_3">
      <!-- 1.0% -->
      <g style="fill:#757575;" transform="translate(303.784351 317.017187)scale(0.1 -0.1)">
       <use xlink:href="#Roboto-Regular-49"/>
       <use x="56.298828" xlink:href="#Roboto-Regular-46"/>
       <use x="83.056641" xlink:href="#Roboto-Regular-48"/>
       <use x="139.355469" xlink:href="#Roboto-Regular-37"/>
      </g>
     </g>
    </g>
    <g id="xtick_4"/>
    <g id="xtick_5"/>
    <g id="xtick_6"/>
    <g id="xtick_7"/>
    <g id="xtick_8"/>
    <g id="xtick_9"/>
    <g id="xtick_10"/>
    <g id="xtick_11"/>
    <g id="xtick_12"/>
    <g id="xtick_13"/>
    <g id="xtick_14"/>
    <g id="xtick_15"/>
    <g id="xtick_16"/>
    <g id="xtick_17"/>
    <g id="xtick_18"/>
    <g id="xtick_19"/>
    <g id="xtick_20"/>
    <g id="xtick_21"/>
    <g id="xtick_22"/>
    <g id="xtick_23"/>
    <g id="xtick_24"/>
    <g id="xtick_25"/>
    <g id="xtick_26"/>
    <g id="text_4">
     <!-- Program budget as a share of GDP -->
     <defs>
      <path d="M 17.578125 28.515625 
L 17.578125 0 
L 7.953125 0 
L 7.953125 71.09375 
L 35.15625 71.09375 
Q 46.53125 71.09375 52.859375 65.234375 
Q 59.1875 59.375 59.1875 49.8125 
Q 59.1875 40.140625 52.859375 34.328125 
Q 46.53125 28.515625 35.15625 28.515625 
z
M 17.578125 36.03125 
L 35.15625 36.03125 
Q 42.390625 36.03125 45.953125 39.90625 
Q 49.515625 43.796875 49.515625 49.703125 
Q 49.515625 55.609375 45.921875 59.5625 
Q 42.328125 63.53125 35.15625 63.53125 
L 17.578125 63.53125 
z
" id="Roboto-Regular-80"/>
      <path d="M 31.984375 44.34375 
L 27.046875 44.625 
Q 23.25 44.625 20.625 42.8125 
Q 18.015625 41.015625 16.609375 37.75 
L 16.609375 0 
L 6.984375 0 
L 6.984375 52.828125 
L 15.578125 52.828125 
L 16.265625 44.625 
Q 18.453125 48.921875 21.828125 51.359375 
Q 25.203125 53.8125 29.640625 53.8125 
Q 30.71875 53.8125 31.6875 53.640625 
Q 32.671875 53.46875 33.296875 53.265625 
z
" id="Roboto-Regular-114"/>
      <path d="M 4.734375 26.90625 
Q 4.734375 38.625 11.078125 46.21875 
Q 17.4375 53.8125 28.328125 53.8125 
Q 39.3125 53.8125 45.671875 46.234375 
Q 52.046875 38.671875 52.046875 26.90625 
L 52.046875 25.828125 
Q 52.046875 14.015625 45.703125 6.484375 
Q 39.359375 -1.03125 28.421875 -1.03125 
Q 17.484375 -1.03125 11.109375 6.515625 
Q 4.734375 14.0625 4.734375 25.828125 
z
M 14.359375 25.828125 
Q 14.359375 17.4375 17.890625 11.96875 
Q 21.4375 6.5 28.421875 6.5 
Q 35.296875 6.5 38.859375 11.96875 
Q 42.4375 17.4375 42.4375 25.828125 
L 42.4375 26.90625 
Q 42.4375 35.203125 38.84375 40.71875 
Q 35.25 46.234375 28.328125 46.234375 
Q 21.4375 46.234375 17.890625 40.71875 
Q 14.359375 35.203125 14.359375 26.90625 
z
" id="Roboto-Regular-111"/>
      <path d="M 5.28125 25.4375 
Q 5.28125 38.1875 10.71875 46 
Q 16.15625 53.8125 25.921875 53.8125 
Q 30.953125 53.8125 34.765625 51.78125 
Q 38.578125 49.75 41.15625 45.953125 
L 42.328125 52.828125 
L 50 52.828125 
L 50 -0.296875 
Q 50 -10.453125 44.09375 -15.890625 
Q 38.1875 -21.34375 27.046875 -21.34375 
Q 23.25 -21.34375 18.828125 -20.28125 
Q 14.40625 -19.234375 11.03125 -17.4375 
L 12.5 -9.96875 
Q 15.28125 -11.421875 19.203125 -12.328125 
Q 23.140625 -13.234375 26.953125 -13.234375 
Q 33.984375 -13.234375 37.171875 -10.03125 
Q 40.375 -6.84375 40.375 -0.296875 
L 40.375 5.71875 
Q 37.796875 2.390625 34.171875 0.671875 
Q 30.5625 -1.03125 25.828125 -1.03125 
Q 16.15625 -1.03125 10.71875 5.96875 
Q 5.28125 12.984375 5.28125 24.421875 
z
M 14.890625 24.421875 
Q 14.890625 16.453125 18.15625 11.609375 
Q 21.4375 6.78125 28.265625 6.78125 
Q 32.625 6.78125 35.546875 8.765625 
Q 38.484375 10.75 40.375 14.359375 
L 40.375 38.671875 
Q 38.53125 42.046875 35.546875 44.015625 
Q 32.5625 46 28.375 46 
Q 21.484375 46 18.1875 40.28125 
Q 14.890625 34.578125 14.890625 25.4375 
z
" id="Roboto-Regular-103"/>
      <path d="M 39.453125 0 
Q 38.96875 2.390625 38.6875 4.21875 
Q 38.421875 6.0625 38.375 7.90625 
Q 35.6875 4.109375 31.359375 1.53125 
Q 27.046875 -1.03125 22.078125 -1.03125 
Q 13.8125 -1.03125 9.484375 3.1875 
Q 5.171875 7.421875 5.171875 14.84375 
Q 5.171875 22.40625 11.296875 26.671875 
Q 17.4375 30.953125 27.9375 30.953125 
L 38.375 30.953125 
L 38.375 36.1875 
Q 38.375 40.828125 35.546875 43.53125 
Q 32.71875 46.234375 27.546875 46.234375 
Q 22.859375 46.234375 19.96875 43.890625 
Q 17.09375 41.546875 17.09375 38.28125 
L 7.953125 38.1875 
L 7.859375 38.484375 
Q 7.515625 44.234375 13.25 49.015625 
Q 19 53.8125 28.078125 53.8125 
Q 37.0625 53.8125 42.53125 49.234375 
Q 48 44.671875 48 36.078125 
L 48 10.640625 
Q 48 7.8125 48.28125 5.171875 
Q 48.578125 2.546875 49.359375 0 
z
M 23.484375 7.03125 
Q 28.71875 7.03125 32.90625 9.71875 
Q 37.109375 12.40625 38.375 15.875 
L 38.375 24.46875 
L 27.59375 24.46875 
Q 21.78125 24.46875 18.28125 21.53125 
Q 14.796875 18.609375 14.796875 14.65625 
Q 14.796875 11.140625 16.984375 9.078125 
Q 19.1875 7.03125 23.484375 7.03125 
z
" id="Roboto-Regular-97"/>
      <path d="M 15.578125 52.828125 
L 16.265625 45.90625 
Q 18.84375 49.65625 22.828125 51.734375 
Q 26.8125 53.8125 32.078125 53.8125 
Q 37.359375 53.8125 41.140625 51.359375 
Q 44.921875 48.921875 46.828125 44.046875 
Q 49.359375 48.578125 53.4375 51.1875 
Q 57.515625 53.8125 62.984375 53.8125 
Q 71.046875 53.8125 75.734375 48.265625 
Q 80.421875 42.71875 80.421875 31.59375 
L 80.421875 0 
L 70.796875 0 
L 70.796875 31.6875 
Q 70.796875 39.5 68.109375 42.75 
Q 65.4375 46 60.109375 46 
Q 55.171875 46 52.125 42.578125 
Q 49.078125 39.15625 48.53125 33.9375 
L 48.53125 33.546875 
L 48.53125 0 
L 38.875 0 
L 38.875 31.6875 
Q 38.875 39.109375 36.109375 42.546875 
Q 33.34375 46 28.171875 46 
Q 23.78125 46 20.9375 44.1875 
Q 18.109375 42.390625 16.609375 39.109375 
L 16.609375 0 
L 6.984375 0 
L 6.984375 52.828125 
z
" id="Roboto-Regular-109"/>
      <path id="Roboto-Regular-32"/>
      <path d="M 52.09375 24.421875 
Q 52.09375 12.984375 46.59375 5.96875 
Q 41.109375 -1.03125 31.5 -1.03125 
Q 26.21875 -1.03125 22.328125 1.046875 
Q 18.453125 3.125 15.921875 7.171875 
L 14.359375 0 
L 6.984375 0 
L 6.984375 76.171875 
L 16.609375 76.171875 
L 16.609375 46.578125 
Q 19.09375 50.09375 22.78125 51.953125 
Q 26.46875 53.8125 31.390625 53.8125 
Q 41.15625 53.8125 46.625 46 
Q 52.09375 38.1875 52.09375 25.4375 
z
M 42.484375 25.4375 
Q 42.484375 34.515625 39.140625 40.25 
Q 35.796875 46 28.953125 46 
Q 24.515625 46 21.453125 43.828125 
Q 18.40625 41.65625 16.609375 37.984375 
L 16.609375 15.09375 
Q 18.453125 11.1875 21.453125 8.984375 
Q 24.46875 6.78125 29.046875 6.78125 
Q 35.84375 6.78125 39.15625 11.609375 
Q 42.484375 16.453125 42.484375 24.421875 
z
" id="Roboto-Regular-98"/>
      <path d="M 40.53125 7.859375 
Q 38.03125 3.609375 34.09375 1.28125 
Q 30.171875 -1.03125 25.09375 -1.03125 
Q 16.453125 -1.03125 11.609375 4.484375 
Q 6.78125 10.015625 6.78125 21.6875 
L 6.78125 52.828125 
L 16.40625 52.828125 
L 16.40625 21.578125 
Q 16.40625 13.140625 18.890625 9.953125 
Q 21.390625 6.78125 26.65625 6.78125 
Q 31.78125 6.78125 35.125 8.875 
Q 38.484375 10.984375 40.1875 14.84375 
L 40.1875 52.828125 
L 49.8125 52.828125 
L 49.8125 0 
L 41.15625 0 
z
" id="Roboto-Regular-117"/>
      <path d="M 4.78125 25.4375 
Q 4.78125 38.1875 10.21875 46 
Q 15.671875 53.8125 25.484375 53.8125 
Q 30.125 53.8125 33.71875 52.09375 
Q 37.3125 50.390625 39.84375 47.125 
L 39.84375 76.171875 
L 49.46875 76.171875 
L 49.46875 0 
L 42.09375 0 
L 40.625 6.6875 
Q 38.03125 2.875 34.21875 0.921875 
Q 30.421875 -1.03125 25.390625 -1.03125 
Q 15.71875 -1.03125 10.25 5.96875 
Q 4.78125 12.984375 4.78125 24.421875 
z
M 14.40625 24.421875 
Q 14.40625 16.40625 17.671875 11.59375 
Q 20.953125 6.78125 27.828125 6.78125 
Q 32.125 6.78125 35.046875 8.734375 
Q 37.984375 10.6875 39.84375 14.203125 
L 39.84375 38.875 
Q 37.984375 42.140625 35.03125 44.0625 
Q 32.078125 46 27.9375 46 
Q 21 46 17.703125 40.28125 
Q 14.40625 34.578125 14.40625 25.4375 
z
" id="Roboto-Regular-100"/>
      <path d="M 29.890625 -1.03125 
Q 18.0625 -1.03125 11.390625 6.265625 
Q 4.734375 13.578125 4.734375 25.390625 
L 4.734375 27.546875 
Q 4.734375 38.921875 11.296875 46.359375 
Q 17.875 53.8125 27.34375 53.8125 
Q 37.9375 53.8125 43.234375 47.21875 
Q 48.53125 40.625 48.53125 29.6875 
L 48.53125 24.609375 
L 14.75 24.609375 
L 14.65625 24.359375 
Q 14.59375 16.453125 18.375 11.46875 
Q 22.171875 6.5 29.890625 6.5 
Q 34.671875 6.5 37.5 7.5 
Q 40.328125 8.5 44.1875 10.546875 
L 46.578125 3.765625 
Q 43.953125 1.859375 40.15625 0.40625 
Q 36.375 -1.03125 29.890625 -1.03125 
z
M 27.34375 46.234375 
Q 22.3125 46.234375 19.015625 42.359375 
Q 15.71875 38.484375 14.984375 32.421875 
L 15.09375 32.171875 
L 38.921875 32.171875 
L 38.921875 32.953125 
Q 38.921875 38.71875 36.078125 42.46875 
Q 33.25 46.234375 27.34375 46.234375 
z
" id="Roboto-Regular-101"/>
      <path d="M 19.234375 65.578125 
L 19.234375 52.828125 
L 29.25 52.828125 
L 29.25 45.703125 
L 19.234375 45.703125 
L 19.234375 13.625 
Q 19.234375 9.90625 20.765625 8.390625 
Q 22.3125 6.890625 24.859375 6.890625 
Q 25.6875 6.890625 26.6875 7.078125 
Q 27.6875 7.28125 28.46875 7.5625 
L 29.78125 0.984375 
Q 28.65625 0.09375 26.5625 -0.46875 
Q 24.46875 -1.03125 22.40625 -1.03125 
Q 16.609375 -1.03125 13.109375 2.515625 
Q 9.625 6.0625 9.625 13.625 
L 9.625 45.703125 
L 1.265625 45.703125 
L 1.265625 52.828125 
L 9.625 52.828125 
L 9.625 65.578125 
z
" id="Roboto-Regular-116"/>
      <path d="M 37.703125 14.203125 
Q 37.703125 17.390625 35.28125 19.390625 
Q 32.859375 21.390625 26.125 22.90625 
Q 16.796875 24.90625 11.78125 28.515625 
Q 6.78125 32.125 6.78125 38.1875 
Q 6.78125 44.625 12.28125 49.21875 
Q 17.78125 53.8125 26.515625 53.8125 
Q 35.5 53.8125 41.0625 48.921875 
Q 46.625 44.046875 46.390625 37.546875 
L 46.296875 37.25 
L 37.109375 37.25 
Q 37.109375 40.671875 34.109375 43.453125 
Q 31.109375 46.234375 26.515625 46.234375 
Q 21.4375 46.234375 18.921875 43.9375 
Q 16.40625 41.65625 16.40625 38.484375 
Q 16.40625 35.359375 18.578125 33.640625 
Q 20.75 31.9375 27.546875 30.515625 
Q 37.25 28.46875 42.28125 24.703125 
Q 47.3125 20.953125 47.3125 14.890625 
Q 47.3125 7.859375 41.625 3.40625 
Q 35.9375 -1.03125 26.765625 -1.03125 
Q 16.65625 -1.03125 10.84375 4.09375 
Q 5.03125 9.234375 5.328125 16.0625 
L 5.421875 16.359375 
L 14.59375 16.359375 
Q 14.84375 11.234375 18.40625 8.859375 
Q 21.96875 6.5 26.765625 6.5 
Q 31.890625 6.5 34.796875 8.671875 
Q 37.703125 10.84375 37.703125 14.203125 
z
" id="Roboto-Regular-115"/>
      <path d="M 16.609375 45.75 
Q 19.34375 49.5625 23.3125 51.6875 
Q 27.296875 53.8125 32.125 53.8125 
Q 40.578125 53.8125 45.28125 48.734375 
Q 50 43.65625 50 33.109375 
L 50 0 
L 40.375 0 
L 40.375 33.203125 
Q 40.375 39.75 37.5625 42.875 
Q 34.765625 46 29.203125 46 
Q 24.90625 46 21.734375 44.3125 
Q 18.5625 42.625 16.609375 39.59375 
L 16.609375 0 
L 6.984375 0 
L 6.984375 76.171875 
L 16.609375 76.171875 
z
" id="Roboto-Regular-104"/>
      <path d="M 9.671875 0 
L 9.671875 45.703125 
L 1.375 45.703125 
L 1.375 52.828125 
L 9.671875 52.828125 
L 9.671875 59.515625 
Q 9.671875 67.96875 14.0625 72.578125 
Q 18.453125 77.203125 26.375 77.203125 
Q 28.03125 77.203125 29.703125 76.921875 
Q 31.390625 76.65625 33.453125 76.171875 
L 32.28125 68.84375 
Q 31.390625 69.046875 30.140625 69.1875 
Q 28.90625 69.34375 27.59375 69.34375 
Q 23.34375 69.34375 21.3125 66.828125 
Q 19.28125 64.3125 19.28125 59.515625 
L 19.28125 52.828125 
L 28.859375 52.828125 
L 28.859375 45.703125 
L 19.28125 45.703125 
L 19.28125 0 
z
" id="Roboto-Regular-102"/>
      <path d="M 59.421875 9.578125 
Q 56.890625 5.609375 50.609375 2.28125 
Q 44.34375 -1.03125 34.328125 -1.03125 
Q 22.015625 -1.03125 13.953125 7.125 
Q 5.90625 15.28125 5.90625 28.21875 
L 5.90625 42.875 
Q 5.90625 55.8125 13.671875 63.96875 
Q 21.4375 72.125 33.6875 72.125 
Q 45.5625 72.125 52.4375 65.796875 
Q 59.328125 59.46875 59.125 49.703125 
L 59.03125 49.421875 
L 49.8125 49.421875 
Q 49.8125 55.90625 45.609375 60.21875 
Q 41.40625 64.546875 33.6875 64.546875 
Q 25.53125 64.546875 20.546875 58.4375 
Q 15.578125 52.34375 15.578125 42.96875 
L 15.578125 28.21875 
Q 15.578125 18.75 20.84375 12.625 
Q 26.125 6.5 34.328125 6.5 
Q 40.625 6.5 44.3125 8.125 
Q 48 9.765625 49.8125 12.015625 
L 49.8125 28.03125 
L 33.6875 28.03125 
L 33.6875 35.546875 
L 59.421875 35.546875 
z
" id="Roboto-Regular-71"/>
      <path d="M 8.25 0 
L 8.25 71.09375 
L 30.609375 71.09375 
Q 44.53125 71.09375 53 62.515625 
Q 61.46875 53.953125 61.46875 40.375 
L 61.46875 30.671875 
Q 61.46875 17.046875 53 8.515625 
Q 44.53125 0 30.609375 0 
z
M 17.875 63.53125 
L 17.875 7.515625 
L 30.609375 7.515625 
Q 40.484375 7.515625 46.171875 14.015625 
Q 51.859375 20.515625 51.859375 30.671875 
L 51.859375 40.484375 
Q 51.859375 50.53125 46.171875 57.03125 
Q 40.484375 63.53125 30.609375 63.53125 
z
" id="Roboto-Regular-68"/>
     </defs>
     <g style="fill:#757575;" transform="translate(158.6725 330.76875)scale(0.1 -0.1)">
      <use xlink:href="#Roboto-Regular-80"/>
      <use x="63.232422" xlink:href="#Roboto-Regular-114"/>
      <use x="98.210938" xlink:href="#Roboto-Regular-111"/>
      <use x="155.046875" xlink:href="#Roboto-Regular-103"/>
      <use x="211.882812" xlink:href="#Roboto-Regular-114"/>
      <use x="246.892578" xlink:href="#Roboto-Regular-97"/>
      <use x="301.873047" xlink:href="#Roboto-Regular-109"/>
      <use x="389.275391" xlink:href="#Roboto-Regular-32"/>
      <use x="414.128906" xlink:href="#Roboto-Regular-98"/>
      <use x="470.964844" xlink:href="#Roboto-Regular-117"/>
      <use x="527.800781" xlink:href="#Roboto-Regular-100"/>
      <use x="584.636719" xlink:href="#Roboto-Regular-103"/>
      <use x="641.472656" xlink:href="#Roboto-Regular-101"/>
      <use x="693.816406" xlink:href="#Roboto-Regular-116"/>
      <use x="725.701172" xlink:href="#Roboto-Regular-32"/>
      <use x="750.554688" xlink:href="#Roboto-Regular-97"/>
      <use x="805.535156" xlink:href="#Roboto-Regular-115"/>
      <use x="857.830078" xlink:href="#Roboto-Regular-32"/>
      <use x="882.683594" xlink:href="#Roboto-Regular-97"/>
      <use x="937.664062" xlink:href="#Roboto-Regular-32"/>
      <use x="962.517578" xlink:href="#Roboto-Regular-115"/>
      <use x="1014.8125" xlink:href="#Roboto-Regular-104"/>
      <use x="1071.648438" xlink:href="#Roboto-Regular-97"/>
      <use x="1126.628906" xlink:href="#Roboto-Regular-114"/>
      <use x="1161.623047" xlink:href="#Roboto-Regular-101"/>
      <use x="1213.966797" xlink:href="#Roboto-Regular-32"/>
      <use x="1238.820312" xlink:href="#Roboto-Regular-111"/>
      <use x="1295.65625" xlink:href="#Roboto-Regular-102"/>
      <use x="1326.125" xlink:href="#Roboto-Regular-32"/>
      <use x="1350.978516" xlink:href="#Roboto-Regular-71"/>
      <use x="1418.703125" xlink:href="#Roboto-Regular-68"/>
      <use x="1486.378906" xlink:href="#Roboto-Regular-80"/>
     </g>
    </g>
   </g>
   <g id="matplotlib.axis_2">
    <g id="ytick_1">
     <g id="line2d_4">
      <path clip-path="url(#p1cec13ad8d)" d="M 57.6 290.539636 
L 414.72 290.539636 
" style="fill:none;stroke:#eeeeee;stroke-linecap:round;stroke-width:0.8;"/>
     </g>
     <g id="text_5">
      <!-- 0% -->
      <g style="fill:#757575;" transform="translate(37.65625 294.34823)scale(0.1 -0.1)">
       <use xlink:href="#Roboto-Regular-48"/>
       <use x="56.298828" xlink:href="#Roboto-Regular-37"/>
      </g>
     </g>
    </g>
    <g id="ytick_2">
     <g id="line2d_5">
      <path clip-path="url(#p1cec13ad8d)" d="M 57.6 258.356738 
L 414.72 258.356738 
" style="fill:none;stroke:#eeeeee;stroke-linecap:round;stroke-width:0.8;"/>
     </g>
     <g id="text_6">
      <!-- 10% -->
      <g style="fill:#757575;" transform="translate(32.026562 262.165331)scale(0.1 -0.1)">
       <use xlink:href="#Roboto-Regular-49"/>
       <use x="56.298828" xlink:href="#Roboto-Regular-48"/>
       <use x="112.597656" xlink:href="#Roboto-Regular-37"/>
      </g>
     </g>
    </g>
    <g id="ytick_3">
     <g id="line2d_6">
      <path clip-path="url(#p1cec13ad8d)" d="M 57.6 226.173839 
L 414.72 226.173839 
" style="fill:none;stroke:#eeeeee;stroke-linecap:round;stroke-width:0.8;"/>
     </g>
     <g id="text_7">
      <!-- 20% -->
      <defs>
       <path d="M 51.46875 0 
L 7.328125 0 
L 7.328125 6.59375 
L 29.640625 33.203125 
Q 35.59375 40.4375 37.71875 44.703125 
Q 39.84375 48.96875 39.84375 53.328125 
Q 39.84375 58.25 36.953125 61.390625 
Q 34.078125 64.546875 29 64.546875 
Q 22.703125 64.546875 19.40625 60.6875 
Q 16.109375 56.84375 16.109375 51.078125 
L 6.84375 51.078125 
L 6.734375 51.375 
Q 6.5 60.0625 12.546875 66.09375 
Q 18.609375 72.125 29 72.125 
Q 38.53125 72.125 44 66.84375 
Q 49.46875 61.578125 49.46875 53.21875 
Q 49.46875 47.609375 46.359375 42.234375 
Q 43.265625 36.859375 36.921875 28.765625 
L 19 7.765625 
L 19.09375 7.515625 
L 51.46875 7.515625 
z
" id="Roboto-Regular-50"/>
      </defs>
      <g style="fill:#757575;" transform="translate(32.026562 229.982433)scale(0.1 -0.1)">
       <use xlink:href="#Roboto-Regular-50"/>
       <use x="56.298828" xlink:href="#Roboto-Regular-48"/>
       <use x="112.597656" xlink:href="#Roboto-Regular-37"/>
      </g>
     </g>
    </g>
    <g id="ytick_4">
     <g id="line2d_7">
      <path clip-path="url(#p1cec13ad8d)" d="M 57.6 193.99094 
L 414.72 193.99094 
" style="fill:none;stroke:#eeeeee;stroke-linecap:round;stroke-width:0.8;"/>
     </g>
     <g id="text_8">
      <!-- 30% -->
      <defs>
       <path d="M 28.265625 40.4375 
Q 34.71875 40.4375 37.375 43.625 
Q 40.046875 46.828125 40.046875 52.59375 
Q 40.046875 57.953125 37.140625 61.25 
Q 34.234375 64.546875 28.515625 64.546875 
Q 22.953125 64.546875 19.3125 61.109375 
Q 15.671875 57.671875 15.671875 52.484375 
L 6.5 52.484375 
L 6.34375 52.78125 
Q 6.109375 60.796875 12.40625 66.453125 
Q 18.703125 72.125 28.515625 72.125 
Q 38.421875 72.125 44.03125 67.109375 
Q 49.65625 62.109375 49.65625 52.390625 
Q 49.65625 47.40625 47.046875 43.296875 
Q 44.4375 39.203125 39.75 36.921875 
Q 45.125 34.765625 47.921875 30.390625 
Q 50.734375 26.03125 50.734375 19.828125 
Q 50.734375 10.0625 44.546875 4.515625 
Q 38.375 -1.03125 28.515625 -1.03125 
Q 19.4375 -1.03125 12.515625 4.3125 
Q 5.609375 9.671875 5.859375 18.453125 
L 5.953125 18.75 
L 15.140625 18.75 
Q 15.140625 13.578125 18.875 10.03125 
Q 22.609375 6.5 28.515625 6.5 
Q 34.375 6.5 37.734375 10.125 
Q 41.109375 13.765625 41.109375 19.625 
Q 41.109375 26.3125 38 29.625 
Q 34.90625 32.953125 28.265625 32.953125 
L 20.359375 32.953125 
L 20.359375 40.4375 
z
" id="Roboto-Regular-51"/>
      </defs>
      <g style="fill:#757575;" transform="translate(32.026562 197.799534)scale(0.1 -0.1)">
       <use xlink:href="#Roboto-Regular-51"/>
       <use x="56.298828" xlink:href="#Roboto-Regular-48"/>
       <use x="112.597656" xlink:href="#Roboto-Regular-37"/>
      </g>
     </g>
    </g>
    <g id="ytick_5">
     <g id="line2d_8">
      <path clip-path="url(#p1cec13ad8d)" d="M 57.6 161.808041 
L 414.72 161.808041 
" style="fill:none;stroke:#eeeeee;stroke-linecap:round;stroke-width:0.8;"/>
     </g>
     <g id="text_9">
      <!-- 40% -->
      <defs>
       <path d="M 43.609375 23.921875 
L 53.421875 23.921875 
L 53.421875 16.40625 
L 43.609375 16.40625 
L 43.609375 0 
L 34.03125 0 
L 34.03125 16.40625 
L 3.515625 16.40625 
L 3.515625 21.828125 
L 33.453125 71.09375 
L 43.609375 71.09375 
z
M 13.8125 23.921875 
L 34.03125 23.921875 
L 34.03125 57.28125 
L 33.734375 57.328125 
L 32.8125 54.890625 
z
" id="Roboto-Regular-52"/>
      </defs>
      <g style="fill:#757575;" transform="translate(32.026562 165.616635)scale(0.1 -0.1)">
       <use xlink:href="#Roboto-Regular-52"/>
       <use x="56.298828" xlink:href="#Roboto-Regular-48"/>
       <use x="112.597656" xlink:href="#Roboto-Regular-37"/>
      </g>
     </g>
    </g>
    <g id="ytick_6">
     <g id="line2d_9">
      <path clip-path="url(#p1cec13ad8d)" d="M 57.6 129.625143 
L 414.72 129.625143 
" style="fill:none;stroke:#eeeeee;stroke-linecap:round;stroke-width:0.8;"/>
     </g>
     <g id="text_10">
      <!-- 50% -->
      <defs>
       <path d="M 8.546875 31.59375 
L 12.640625 71.09375 
L 48.25 71.09375 
L 48.25 62.546875 
L 20.75 62.546875 
L 18.453125 42.09375 
Q 20.75 43.796875 23.53125 44.890625 
Q 26.3125 46 29.890625 46.046875 
Q 39.75 46.140625 45.328125 39.859375 
Q 50.921875 33.59375 50.921875 22.65625 
Q 50.921875 11.96875 45.1875 5.46875 
Q 39.453125 -1.03125 28.46875 -1.03125 
Q 19.4375 -1.03125 13.421875 3.90625 
Q 7.421875 8.84375 7.671875 18.40625 
L 7.765625 18.703125 
L 16.453125 18.703125 
Q 16.453125 12.890625 19.796875 9.6875 
Q 23.140625 6.5 28.46875 6.5 
Q 34.578125 6.5 37.9375 10.796875 
Q 41.3125 15.09375 41.3125 22.5625 
Q 41.3125 29.34375 37.90625 33.546875 
Q 34.515625 37.75 28.46875 37.75 
Q 22.796875 37.75 20.25 36.03125 
Q 17.71875 34.328125 16.5 30.765625 
z
" id="Roboto-Regular-53"/>
      </defs>
      <g style="fill:#757575;" transform="translate(32.026562 133.433736)scale(0.1 -0.1)">
       <use xlink:href="#Roboto-Regular-53"/>
       <use x="56.298828" xlink:href="#Roboto-Regular-48"/>
       <use x="112.597656" xlink:href="#Roboto-Regular-37"/>
      </g>
     </g>
    </g>
    <g id="ytick_7">
     <g id="line2d_10">
      <path clip-path="url(#p1cec13ad8d)" d="M 57.6 97.442244 
L 414.72 97.442244 
" style="fill:none;stroke:#eeeeee;stroke-linecap:round;stroke-width:0.8;"/>
     </g>
     <g id="text_11">
      <!-- 60% -->
      <defs>
       <path d="M 31.296875 72.125 
Q 35.5 72.125 39.59375 71.28125 
Q 43.703125 70.453125 46.390625 69.1875 
L 44.34375 61.8125 
Q 41.546875 63.03125 38.46875 63.78125 
Q 35.40625 64.546875 31.296875 64.546875 
Q 24.609375 64.546875 20.4375 58.828125 
Q 16.265625 53.125 16.265625 44.390625 
L 16.265625 38.875 
Q 19.234375 41.84375 23.3125 43.546875 
Q 27.390625 45.265625 32.078125 45.265625 
Q 41.265625 45.265625 46.609375 39.109375 
Q 51.953125 32.953125 51.953125 22.953125 
Q 51.953125 12.015625 45.96875 5.484375 
Q 39.984375 -1.03125 29.828125 -1.03125 
Q 19.96875 -1.03125 13.328125 6.46875 
Q 6.6875 13.96875 6.6875 26.953125 
L 6.6875 43.3125 
Q 6.6875 55.8125 13.796875 63.96875 
Q 20.90625 72.125 31.296875 72.125 
z
M 29 38.09375 
Q 24.46875 38.09375 21.21875 36.15625 
Q 17.96875 34.234375 16.265625 30.953125 
L 16.265625 26.03125 
Q 16.265625 17 20.1875 11.75 
Q 24.125 6.5 29.828125 6.5 
Q 35.84375 6.5 39.078125 11.0625 
Q 42.328125 15.625 42.328125 22.953125 
Q 42.328125 29.890625 38.84375 33.984375 
Q 35.359375 38.09375 29 38.09375 
z
" id="Roboto-Regular-54"/>
      </defs>
      <g style="fill:#757575;" transform="translate(32.026562 101.250837)scale(0.1 -0.1)">
       <use xlink:href="#Roboto-Regular-54"/>
       <use x="56.298828" xlink:href="#Roboto-Regular-48"/>
       <use x="112.597656" xlink:href="#Roboto-Regular-37"/>
      </g>
     </g>
    </g>
    <g id="ytick_8">
     <g id="line2d_11">
      <path clip-path="url(#p1cec13ad8d)" d="M 57.6 65.259345 
L 414.72 65.259345 
" style="fill:none;stroke:#eeeeee;stroke-linecap:round;stroke-width:0.8;"/>
     </g>
     <g id="text_12">
      <!-- 70% -->
      <defs>
       <path d="M 51.90625 63.53125 
Q 38.421875 47.515625 33.6875 35.25 
Q 28.953125 23 28.953125 7.765625 
L 28.953125 0 
L 19.34375 0 
L 19.34375 7.765625 
Q 19.34375 23.875 25.265625 36.78125 
Q 31.203125 49.703125 42.4375 63.53125 
L 4.734375 63.53125 
L 4.734375 71.09375 
L 51.90625 71.09375 
z
" id="Roboto-Regular-55"/>
      </defs>
      <g style="fill:#757575;" transform="translate(32.026562 69.067939)scale(0.1 -0.1)">
       <use xlink:href="#Roboto-Regular-55"/>
       <use x="56.298828" xlink:href="#Roboto-Regular-48"/>
       <use x="112.597656" xlink:href="#Roboto-Regular-37"/>
      </g>
     </g>
    </g>
    <g id="text_13">
     <!-- Absolute percent change in CRRA -->
     <defs>
      <path d="M 45.015625 18.3125 
L 18.265625 18.3125 
L 11.921875 0 
L 2.09375 0 
L 27.734375 71.09375 
L 35.984375 71.09375 
L 61.078125 0 
L 51.265625 0 
z
M 21.046875 26.375 
L 42.28125 26.375 
L 31.9375 56.890625 
L 31.640625 56.890625 
z
" id="Roboto-Regular-65"/>
      <path d="M 17.390625 0 
L 7.765625 0 
L 7.765625 76.171875 
L 17.390625 76.171875 
z
" id="Roboto-Regular-108"/>
      <path d="M 52 24.421875 
Q 52 12.984375 46.53125 5.96875 
Q 41.0625 -1.03125 31.453125 -1.03125 
Q 26.5625 -1.03125 22.875 0.609375 
Q 19.1875 2.25 16.609375 5.515625 
L 16.609375 -20.3125 
L 6.984375 -20.3125 
L 6.984375 52.828125 
L 14.359375 52.828125 
L 15.875 46 
Q 18.453125 49.8125 22.3125 51.8125 
Q 26.171875 53.8125 31.296875 53.8125 
Q 41.109375 53.8125 46.546875 46.015625 
Q 52 38.234375 52 25.4375 
z
M 42.390625 25.4375 
Q 42.390625 34.421875 38.84375 40.203125 
Q 35.296875 46 28.421875 46 
Q 24.265625 46 21.328125 44.109375 
Q 18.40625 42.234375 16.609375 38.96875 
L 16.609375 13.421875 
Q 18.40625 10.15625 21.328125 8.328125 
Q 24.265625 6.5 28.515625 6.5 
Q 35.359375 6.5 38.875 11.5 
Q 42.390625 16.5 42.390625 24.421875 
z
" id="Roboto-Regular-112"/>
      <path d="M 27.984375 6.5 
Q 32.421875 6.5 35.734375 9.453125 
Q 39.0625 12.40625 39.0625 16.703125 
L 47.75 16.703125 
L 47.90625 16.40625 
Q 48.09375 9.578125 42.03125 4.265625 
Q 35.984375 -1.03125 27.984375 -1.03125 
Q 16.84375 -1.03125 10.78125 6.53125 
Q 4.734375 14.109375 4.734375 25.390625 
L 4.734375 27.4375 
Q 4.734375 38.625 10.8125 46.21875 
Q 16.890625 53.8125 27.984375 53.8125 
Q 36.8125 53.8125 42.453125 48.34375 
Q 48.09375 42.875 47.90625 34.90625 
L 47.796875 34.625 
L 39.0625 34.625 
Q 39.0625 39.453125 35.90625 42.84375 
Q 32.765625 46.234375 27.984375 46.234375 
Q 20.90625 46.234375 17.65625 40.734375 
Q 14.40625 35.25 14.40625 27.4375 
L 14.40625 25.390625 
Q 14.40625 17.4375 17.59375 11.96875 
Q 20.796875 6.5 27.984375 6.5 
z
" id="Roboto-Regular-99"/>
      <path d="M 15.578125 52.828125 
L 16.265625 44.96875 
Q 18.890625 49.171875 22.875 51.484375 
Q 26.859375 53.8125 31.9375 53.8125 
Q 40.484375 53.8125 45.171875 48.796875 
Q 49.859375 43.796875 49.859375 33.34375 
L 49.859375 0 
L 40.234375 0 
L 40.234375 33.15625 
Q 40.234375 40.140625 37.46875 43.0625 
Q 34.71875 46 29.046875 46 
Q 24.609375 46 21.5 44.21875 
Q 18.40625 42.4375 16.609375 39.203125 
L 16.609375 0 
L 6.984375 0 
L 6.984375 52.828125 
z
" id="Roboto-Regular-110"/>
      <path d="M 17.390625 0 
L 7.765625 0 
L 7.765625 52.828125 
L 17.390625 52.828125 
z
M 17.390625 66.359375 
L 7.765625 66.359375 
L 7.765625 76.171875 
L 17.390625 76.171875 
z
" id="Roboto-Regular-105"/>
      <path d="M 59.03125 22.75 
L 59.125 22.46875 
Q 59.328125 12.453125 52.09375 5.703125 
Q 44.875 -1.03125 33.015625 -1.03125 
Q 20.953125 -1.03125 13.359375 7.515625 
Q 5.765625 16.0625 5.765625 29.203125 
L 5.765625 41.84375 
Q 5.765625 54.984375 13.359375 63.546875 
Q 20.953125 72.125 33.015625 72.125 
Q 45.0625 72.125 52.1875 65.703125 
Q 59.328125 59.28125 59.125 48.6875 
L 59.03125 48.390625 
L 49.8125 48.390625 
Q 49.8125 55.859375 45.40625 60.203125 
Q 41.015625 64.546875 33.015625 64.546875 
Q 24.953125 64.546875 20.15625 58.046875 
Q 15.375 51.5625 15.375 41.9375 
L 15.375 29.203125 
Q 15.375 19.484375 20.15625 12.984375 
Q 24.953125 6.5 33.015625 6.5 
Q 41.015625 6.5 45.40625 10.8125 
Q 49.8125 15.140625 49.8125 22.75 
z
" id="Roboto-Regular-67"/>
      <path d="M 17.671875 30.8125 
L 17.671875 0 
L 8.0625 0 
L 8.0625 71.046875 
L 33.296875 71.046875 
Q 44.96875 71.046875 51.140625 65.859375 
Q 57.328125 60.6875 57.328125 50.828125 
Q 57.328125 45.359375 54.46875 41.296875 
Q 51.609375 37.25 46.140625 34.859375 
Q 52 32.953125 54.5625 28.6875 
Q 57.125 24.421875 57.125 18.109375 
L 57.125 11.421875 
Q 57.125 8.109375 57.859375 5.46875 
Q 58.59375 2.828125 60.40625 1.171875 
L 60.40625 0 
L 50.484375 0 
Q 48.578125 1.65625 48.046875 4.875 
Q 47.515625 8.109375 47.515625 11.53125 
L 47.515625 18.015625 
Q 47.515625 23.78125 44.140625 27.296875 
Q 40.765625 30.8125 35.109375 30.8125 
z
M 17.671875 38.375 
L 32.375 38.375 
Q 40.53125 38.375 44.109375 41.46875 
Q 47.703125 44.578125 47.703125 50.921875 
Q 47.703125 56.9375 44.203125 60.234375 
Q 40.71875 63.53125 33.296875 63.53125 
L 17.671875 63.53125 
z
" id="Roboto-Regular-82"/>
     </defs>
     <g style="fill:#757575;" transform="translate(25.892187 246.836781)rotate(-90)scale(0.1 -0.1)">
      <use xlink:href="#Roboto-Regular-65"/>
      <use x="63.232422" xlink:href="#Roboto-Regular-98"/>
      <use x="120.068359" xlink:href="#Roboto-Regular-115"/>
      <use x="172.363281" xlink:href="#Roboto-Regular-111"/>
      <use x="229.199219" xlink:href="#Roboto-Regular-108"/>
      <use x="254.394531" xlink:href="#Roboto-Regular-117"/>
      <use x="311.230469" xlink:href="#Roboto-Regular-116"/>
      <use x="343.115234" xlink:href="#Roboto-Regular-101"/>
      <use x="395.458984" xlink:href="#Roboto-Regular-32"/>
      <use x="420.3125" xlink:href="#Roboto-Regular-112"/>
      <use x="477.148438" xlink:href="#Roboto-Regular-101"/>
      <use x="529.492188" xlink:href="#Roboto-Regular-114"/>
      <use x="564.486328" xlink:href="#Roboto-Regular-99"/>
      <use x="616.830078" xlink:href="#Roboto-Regular-101"/>
      <use x="669.173828" xlink:href="#Roboto-Regular-110"/>
      <use x="726.009766" xlink:href="#Roboto-Regular-116"/>
      <use x="757.894531" xlink:href="#Roboto-Regular-32"/>
      <use x="782.748047" xlink:href="#Roboto-Regular-99"/>
      <use x="835.091797" xlink:href="#Roboto-Regular-104"/>
      <use x="891.927734" xlink:href="#Roboto-Regular-97"/>
      <use x="946.908203" xlink:href="#Roboto-Regular-110"/>
      <use x="1003.744141" xlink:href="#Roboto-Regular-103"/>
      <use x="1060.580078" xlink:href="#Roboto-Regular-101"/>
      <use x="1112.923828" xlink:href="#Roboto-Regular-32"/>
      <use x="1137.777344" xlink:href="#Roboto-Regular-105"/>
      <use x="1162.972656" xlink:href="#Roboto-Regular-110"/>
      <use x="1219.808594" xlink:href="#Roboto-Regular-32"/>
      <use x="1244.662109" xlink:href="#Roboto-Regular-67"/>
      <use x="1307.992188" xlink:href="#Roboto-Regular-82"/>
      <use x="1371.322266" xlink:href="#Roboto-Regular-82"/>
      <use x="1434.652344" xlink:href="#Roboto-Regular-65"/>
     </g>
    </g>
   </g>
   <g id="line2d_12">
    <path clip-path="url(#p1cec13ad8d)" d="M 73.832727 82.205281 
L 194.121039 53.332364 
L 230.331429 75.801908 
L 278.198961 136.213614 
L 314.409351 191.218403 
L 398.487273 253.638874 
" style="fill:none;stroke:#1f77b4;stroke-linecap:round;stroke-width:1.5;"/>
   </g>
   <g id="line2d_13">
    <path clip-path="url(#p1cec13ad8d)" d="M 73.832727 290.539636 
L 194.121039 290.014772 
L 230.331429 290.539636 
L 278.198961 290.539636 
L 314.409351 279.30895 
L 398.487273 263.783329 
" style="fill:none;stroke:#ff7f0e;stroke-linecap:round;stroke-width:1.5;"/>
   </g>
   <g id="line2d_14">
    <path clip-path="url(#p1cec13ad8d)" d="M 73.832727 290.539636 
L 194.121039 290.539636 
L 230.331429 290.539636 
L 278.198961 290.539636 
L 314.409351 290.539636 
L 398.487273 290.539636 
" style="fill:none;stroke:#2ca02c;stroke-linecap:round;stroke-width:1.5;"/>
   </g>
   <g id="legend_1">
    <g id="patch_3">
     <path d="M 327.965313 93.520437 
L 407.72 93.520437 
Q 409.72 93.520437 409.72 91.520437 
L 409.72 48.472 
Q 409.72 46.472 407.72 46.472 
L 327.965313 46.472 
Q 325.965313 46.472 325.965313 48.472 
L 325.965313 91.520437 
Q 325.965313 93.520437 327.965313 93.520437 
z
" style="fill:#ffffff;opacity:0.8;stroke:#cccccc;stroke-linejoin:miter;"/>
    </g>
    <g id="line2d_15">
     <path d="M 329.965313 54.589187 
L 349.965313 54.589187 
" style="fill:none;stroke:#1f77b4;stroke-linecap:round;stroke-width:1.5;"/>
    </g>
    <g id="line2d_16"/>
    <g id="text_14">
     <!-- High noise -->
     <defs>
      <path d="M 62.015625 0 
L 52.390625 0 
L 52.390625 31.390625 
L 17.875 31.390625 
L 17.875 0 
L 8.25 0 
L 8.25 71.09375 
L 17.875 71.09375 
L 17.875 38.96875 
L 52.390625 38.96875 
L 52.390625 71.09375 
L 62.015625 71.09375 
z
" id="Roboto-Regular-72"/>
     </defs>
     <g style="fill:#212121;" transform="translate(357.965313 58.089187)scale(0.1 -0.1)">
      <use xlink:href="#Roboto-Regular-72"/>
      <use x="70.263672" xlink:href="#Roboto-Regular-105"/>
      <use x="95.458984" xlink:href="#Roboto-Regular-103"/>
      <use x="152.294922" xlink:href="#Roboto-Regular-104"/>
      <use x="209.130859" xlink:href="#Roboto-Regular-32"/>
      <use x="233.984375" xlink:href="#Roboto-Regular-110"/>
      <use x="290.820312" xlink:href="#Roboto-Regular-111"/>
      <use x="347.65625" xlink:href="#Roboto-Regular-105"/>
      <use x="372.851562" xlink:href="#Roboto-Regular-115"/>
      <use x="425.146484" xlink:href="#Roboto-Regular-101"/>
     </g>
    </g>
    <g id="line2d_17">
     <path d="M 329.965313 69.34075 
L 349.965313 69.34075 
" style="fill:none;stroke:#ff7f0e;stroke-linecap:round;stroke-width:1.5;"/>
    </g>
    <g id="line2d_18"/>
    <g id="text_15">
     <!-- Low noise -->
     <defs>
      <path d="M 17.828125 7.515625 
L 52.484375 7.515625 
L 52.484375 0 
L 8.203125 0 
L 8.203125 71.09375 
L 17.828125 71.09375 
z
" id="Roboto-Regular-76"/>
      <path d="M 20.515625 19.234375 
L 21.734375 12.453125 
L 22.015625 12.453125 
L 23.296875 19.234375 
L 33.84375 52.828125 
L 41.546875 52.828125 
L 52.15625 19.234375 
L 53.515625 11.671875 
L 53.8125 11.671875 
L 55.375 19.234375 
L 63.1875 52.828125 
L 73.25 52.828125 
L 57.90625 0 
L 50.140625 0 
L 39.703125 32.171875 
L 37.703125 40.578125 
L 37.40625 40.578125 
L 35.546875 32.171875 
L 25.296875 0 
L 17.53125 0 
L 2.203125 52.828125 
L 12.203125 52.828125 
z
" id="Roboto-Regular-119"/>
     </defs>
     <g style="fill:#212121;" transform="translate(357.965313 72.84075)scale(0.1 -0.1)">
      <use xlink:href="#Roboto-Regular-76"/>
      <use x="54.833984" xlink:href="#Roboto-Regular-111"/>
      <use x="111.669922" xlink:href="#Roboto-Regular-119"/>
      <use x="187.353516" xlink:href="#Roboto-Regular-32"/>
      <use x="212.207031" xlink:href="#Roboto-Regular-110"/>
      <use x="269.042969" xlink:href="#Roboto-Regular-111"/>
      <use x="325.878906" xlink:href="#Roboto-Regular-105"/>
      <use x="351.074219" xlink:href="#Roboto-Regular-115"/>
      <use x="403.369141" xlink:href="#Roboto-Regular-101"/>
     </g>
    </g>
    <g id="line2d_19">
     <path d="M 329.965313 83.989187 
L 349.965313 83.989187 
" style="fill:none;stroke:#2ca02c;stroke-linecap:round;stroke-width:1.5;"/>
    </g>
    <g id="line2d_20"/>
    <g id="text_16">
     <!-- No noise -->
     <defs>
      <path d="M 62.015625 0 
L 52.390625 0 
L 18.171875 54.296875 
L 17.875 54.203125 
L 17.875 0 
L 8.25 0 
L 8.25 71.09375 
L 17.875 71.09375 
L 52.09375 16.84375 
L 52.390625 16.9375 
L 52.390625 71.09375 
L 62.015625 71.09375 
z
" id="Roboto-Regular-78"/>
     </defs>
     <g style="fill:#212121;" transform="translate(357.965313 87.489187)scale(0.1 -0.1)">
      <use xlink:href="#Roboto-Regular-78"/>
      <use x="70.263672" xlink:href="#Roboto-Regular-111"/>
      <use x="127.099609" xlink:href="#Roboto-Regular-32"/>
      <use x="151.953125" xlink:href="#Roboto-Regular-110"/>
      <use x="208.789062" xlink:href="#Roboto-Regular-111"/>
      <use x="265.625" xlink:href="#Roboto-Regular-105"/>
      <use x="290.820312" xlink:href="#Roboto-Regular-115"/>
      <use x="343.115234" xlink:href="#Roboto-Regular-101"/>
     </g>
    </g>
   </g>
  </g>
 </g>
 <defs>
  <clipPath id="p1cec13ad8d">
   <rect height="260.928" width="357.12" x="57.6" y="41.472"/>
  </clipPath>
 </defs>
</svg>
